<?xml version="1.0" encoding="UTF-8"?>
<svg width="443px" height="75px" viewBox="0 0 443 75" version="1.1" xmlns="http://www.w3.org/2000/svg" xmlns:xlink="http://www.w3.org/1999/xlink">
    <!-- Generator: Sketch 54.1 (76490) - https://sketchapp.com -->
    <title>replace-results</title>
    <desc>Created with Sketch.</desc>
    <g id="Page-1" stroke="none" stroke-width="1" fill="none" fill-rule="evenodd">
        <g id="Desktop-Copy-2" transform="translate(-292.000000, -1428.000000)">
            <g id="replace-results" transform="translate(292.000000, 1428.000000)">
                <g id="Group-3">
                    <path d="M12,0 L188.735294,0 C195.362711,-1.8876423e-14 200.735294,5.372583 200.735294,12 L200.735294,75 L0,75 L0,12 C-8.11624501e-16,5.372583 5.372583,1.21743675e-15 12,0 Z" id="Rectangle" fill="#1A2C3C"></path>
                    <path d="M28.66,15.8344118 C28.7500005,15.5944106 28.8874991,15.4119124 29.0725,15.2869118 C29.2575009,15.1619111 29.4649989,15.0994118 29.695,15.0994118 C29.9850014,15.0994118 30.232499,15.1894109 30.4375,15.3694118 C30.642501,15.5494127 30.745,15.7944102 30.745,16.1044118 C30.745,16.2544125 30.7150003,16.4194109 30.655,16.5994118 L27.535,25.1344118 C27.4449995,25.374413 27.2875011,25.5619111 27.0625,25.6969118 C26.8374989,25.8319124 26.5900014,25.8994118 26.32,25.8994118 C26.0499986,25.8994118 25.8050011,25.8319124 25.585,25.6969118 C25.3649989,25.5619111 25.2100004,25.374413 25.12,25.1344118 L22.885,18.8194118 L20.59,25.1344118 C20.4999995,25.374413 20.3450011,25.5619111 20.125,25.6969118 C19.9049989,25.8319124 19.6600014,25.8994118 19.39,25.8994118 C19.1299987,25.8994118 18.8875011,25.8319124 18.6625,25.6969118 C18.4374989,25.5619111 18.2800004,25.374413 18.19,25.1344118 L15.07,16.5994118 C15.0099997,16.4294109 14.98,16.2694125 14.98,16.1194118 C14.98,15.8094102 15.0899989,15.5619127 15.31,15.3769118 C15.5300011,15.1919108 15.7899985,15.0994118 16.09,15.0994118 C16.3300012,15.0994118 16.547499,15.1619111 16.7425,15.2869118 C16.937501,15.4119124 17.0799996,15.5944106 17.17,15.8344118 L19.48,22.4794118 L21.88,15.8644118 C21.9700005,15.6244106 22.112499,15.4394124 22.3075,15.3094118 C22.502501,15.1794111 22.7099989,15.1144118 22.93,15.1144118 C23.1600011,15.1144118 23.3699991,15.1794111 23.56,15.3094118 C23.750001,15.4394124 23.8899995,15.6294105 23.98,15.8794118 L26.275,22.5994118 L28.66,15.8344118 Z M37.4084615,18.2344118 C39.1184701,18.2344118 39.9734615,19.2694014 39.9734615,21.3394118 L39.9734615,24.8044118 C39.9734615,25.1344134 39.8709626,25.3944108 39.6659615,25.5844118 C39.4609605,25.7744127 39.1834633,25.8694118 38.8334615,25.8694118 C38.4834598,25.8694118 38.2084625,25.7744127 38.0084615,25.5844118 C37.8084605,25.3944108 37.7084615,25.1344134 37.7084615,24.8044118 L37.7084615,21.3094118 C37.7084615,20.8694096 37.6159625,20.5419128 37.4309615,20.3269118 C37.2459606,20.1119107 36.9584635,20.0044118 36.5684615,20.0044118 C36.0984592,20.0044118 35.720963,20.1544103 35.4359615,20.4544118 C35.1509601,20.7544133 35.0084615,21.1544093 35.0084615,21.6544118 L35.0084615,24.8044118 C35.0084615,25.1344134 34.9084625,25.3944108 34.7084615,25.5844118 C34.5084605,25.7744127 34.2334633,25.8694118 33.8834615,25.8694118 C33.5334598,25.8694118 33.2559626,25.7744127 33.0509615,25.5844118 C32.8459605,25.3944108 32.7434615,25.1344134 32.7434615,24.8044118 L32.7434615,16.1644118 C32.7434615,15.8544102 32.8509605,15.6044127 33.0659615,15.4144118 C33.2809626,15.2244108 33.5634598,15.1294118 33.9134615,15.1294118 C34.2434615,15.1294118 34.5084605,15.2194109 34.7084615,15.3994118 C34.9084625,15.5794127 35.0084615,15.8194103 35.0084615,16.1194118 L35.0084615,19.3894118 C35.2684628,19.0094099 35.6034595,18.7219127 36.0134615,18.5269118 C36.4234636,18.3319108 36.8884589,18.2344118 37.4084615,18.2344118 Z M45.0169231,18.2344118 C46.0969285,18.2344118 46.8969205,18.4969091 47.4169231,19.0219118 C47.9369257,19.5469144 48.1969231,20.3494064 48.1969231,21.4294118 L48.1969231,24.8194118 C48.1969231,25.1494134 48.101924,25.4069108 47.9119231,25.5919118 C47.7219221,25.7769127 47.4569248,25.8694118 47.1169231,25.8694118 C46.7969215,25.8694118 46.539424,25.7719127 46.3444231,25.5769118 C46.1494221,25.3819108 46.0519231,25.1294133 46.0519231,24.8194118 L46.0519231,24.7144118 C45.9019223,25.0844136 45.6519248,25.3744107 45.3019231,25.5844118 C44.9519213,25.7944128 44.5419254,25.8994118 44.0719231,25.8994118 C43.5719206,25.8994118 43.1194251,25.7994128 42.7144231,25.5994118 C42.309421,25.3994108 41.9894242,25.1194136 41.7544231,24.7594118 C41.5194219,24.39941 41.4019231,23.999414 41.4019231,23.5594118 C41.4019231,23.0194091 41.5394217,22.5944133 41.8144231,22.2844118 C42.0894244,21.9744102 42.53192,21.7494125 43.1419231,21.6094118 C43.7519261,21.4694111 44.5869178,21.3994118 45.6469231,21.3994118 L46.0369231,21.3994118 L46.0369231,21.1294118 C46.0369231,20.7094097 45.944424,20.4044127 45.7594231,20.2144118 C45.5744221,20.0244108 45.2669252,19.9294118 44.8369231,19.9294118 C44.4069209,19.9294118 43.7869271,20.0794103 42.9769231,20.3794118 C42.7469219,20.4894123 42.5519239,20.5444118 42.3919231,20.5444118 C42.171922,20.5444118 41.9969237,20.4669125 41.8669231,20.3119118 C41.7369224,20.156911 41.6719231,19.954413 41.6719231,19.7044118 C41.6719231,19.5044108 41.7169226,19.3394124 41.8069231,19.2094118 C41.8969235,19.0794111 42.0419221,18.9594123 42.2419231,18.8494118 C42.5919248,18.6594108 43.0194205,18.5094123 43.5244231,18.3994118 C44.0294256,18.2894112 44.5269206,18.2344118 45.0169231,18.2344118 Z M44.5669231,24.3394118 C45.0069253,24.3394118 45.3619217,24.1919132 45.6319231,23.8969118 C45.9019244,23.6019103 46.0369231,23.2194141 46.0369231,22.7494118 L46.0369231,22.4944118 L45.7819231,22.4944118 C44.971919,22.4944118 44.4044247,22.5594111 44.0794231,22.6894118 C43.7544214,22.8194124 43.5919231,23.0544101 43.5919231,23.3944118 C43.5919231,23.6744132 43.6844221,23.9019109 43.8694231,24.0769118 C44.054424,24.2519126 44.2869217,24.3394118 44.5669231,24.3394118 Z M54.0203846,24.2194118 C54.3203861,24.2394119 54.5403839,24.3144111 54.6803846,24.4444118 C54.8203853,24.5744124 54.8903846,24.7644105 54.8903846,25.0144118 C54.8903846,25.3044132 54.7753857,25.524411 54.5453846,25.6744118 C54.3153834,25.8244125 53.9853867,25.8844119 53.5553846,25.8544118 L53.1353846,25.8244118 C51.3853758,25.6844111 50.5103846,24.7694202 50.5103846,23.0794118 L50.5103846,20.1094118 L49.9103846,20.1094118 C49.5803829,20.1094118 49.3303854,20.0369125 49.1603846,19.8919118 C48.9903837,19.746911 48.9053846,19.5394131 48.9053846,19.2694118 C48.9053846,18.9894104 48.9903837,18.7769125 49.1603846,18.6319118 C49.3303854,18.486911 49.5803829,18.4144118 49.9103846,18.4144118 L50.5103846,18.4144118 L50.5103846,17.2444118 C50.5103846,16.9144101 50.6128836,16.6544127 50.8178846,16.4644118 C51.0228856,16.2744108 51.3003828,16.1794118 51.6503846,16.1794118 C52.0003863,16.1794118 52.2753836,16.2744108 52.4753846,16.4644118 C52.6753856,16.6544127 52.7753846,16.9144101 52.7753846,17.2444118 L52.7753846,18.4144118 L53.8253846,18.4144118 C54.505388,18.4144118 54.8453846,18.6994089 54.8453846,19.2694118 C54.8453846,19.5394131 54.7603854,19.746911 54.5903846,19.8919118 C54.4203837,20.0369125 54.1653863,20.1094118 53.8253846,20.1094118 L52.7753846,20.1094118 L52.7753846,23.2444118 C52.7753846,23.5444133 52.8453839,23.771911 52.9853846,23.9269118 C53.1253853,24.0819125 53.3303832,24.1694117 53.6003846,24.1894118 L54.0203846,24.2194118 Z M56.9338461,15.1294118 C57.3338481,15.1294118 57.6538449,15.2719103 57.8938461,15.5569118 C58.1338473,15.8419132 58.2538461,16.2544091 58.2538461,16.7944118 C58.2538461,17.834417 57.8788499,18.7444079 57.1288461,19.5244118 C56.9988455,19.6644125 56.843847,19.7344118 56.6638461,19.7344118 C56.4938453,19.7344118 56.3438468,19.6769123 56.2138461,19.5619118 C56.0838455,19.4469112 56.0188461,19.3094126 56.0188461,19.1494118 C56.0188461,19.0094111 56.0738456,18.8794124 56.1838461,18.7594118 C56.5138478,18.40941 56.7338456,18.0344138 56.8438461,17.6344118 C56.5038444,17.6044116 56.2288472,17.4794129 56.0188461,17.2594118 C55.8088451,17.0394107 55.7038461,16.7594135 55.7038461,16.4194118 C55.7038461,16.0494099 55.8213449,15.741913 56.0563461,15.4969118 C56.2913473,15.2519105 56.5838444,15.1294118 56.9338461,15.1294118 Z M62.2473076,25.8994118 C61.6373046,25.8994118 61.1073099,25.8494123 60.6573077,25.7494118 C60.2073054,25.6494113 59.8123094,25.4894129 59.4723077,25.2694118 C59.3223069,25.1794113 59.207308,25.0594125 59.1273077,24.9094118 C59.0473073,24.759411 59.0073077,24.5894127 59.0073077,24.3994118 C59.0073077,24.1694106 59.072307,23.9769125 59.2023077,23.8219118 C59.3323083,23.666911 59.4923067,23.5894118 59.6823076,23.5894118 C59.8123083,23.5894118 59.942307,23.6119115 60.0723076,23.6569118 C60.2023083,23.701912 60.3373069,23.7544115 60.4773077,23.8144118 C60.7573091,23.9444124 61.0323063,24.0469114 61.3023077,24.1219118 C61.572309,24.1969121 61.9073056,24.2344118 62.3073076,24.2344118 C62.6573094,24.2344118 62.9298067,24.1794123 63.1248077,24.0694118 C63.3198086,23.9594112 63.4173076,23.8094127 63.4173076,23.6194118 C63.4173076,23.4794111 63.3748081,23.3669122 63.2898077,23.2819118 C63.2048072,23.1969113 63.0473088,23.1194121 62.8173077,23.0494118 C62.5873065,22.9794114 62.2223101,22.8944123 61.7223077,22.7944118 C60.8323032,22.6244109 60.1923096,22.3694135 59.8023077,22.0294118 C59.4123057,21.6894101 59.2173077,21.2144148 59.2173077,20.6044118 C59.2173077,20.1544095 59.3548063,19.7494136 59.6298077,19.3894118 C59.904809,19.02941 60.2823053,18.7469128 60.7623076,18.5419118 C61.2423101,18.3369107 61.7823047,18.2344118 62.3823077,18.2344118 C62.8123098,18.2344118 63.2323056,18.2894112 63.6423077,18.3994118 C64.0523097,18.5094123 64.4173061,18.6644108 64.7373076,18.8644118 C65.0473092,19.0544127 65.2023076,19.3344099 65.2023076,19.7044118 C65.2023076,19.944413 65.1373083,20.144411 65.0073077,20.3044118 C64.877307,20.4644126 64.7173086,20.5444118 64.5273076,20.5444118 C64.2973065,20.5444118 64.0223092,20.4544127 63.7023077,20.2744118 C63.4523064,20.1444111 63.2248087,20.0469121 63.0198077,19.9819118 C62.8148066,19.9169114 62.5723091,19.8844118 62.2923076,19.8844118 C61.9823061,19.8844118 61.7373086,19.9419112 61.5573076,20.0569118 C61.3773068,20.1719123 61.2873077,20.3294108 61.2873077,20.5294118 C61.2873077,20.7394128 61.3923066,20.8994112 61.6023077,21.0094118 C61.8123087,21.1194123 62.2173047,21.2294112 62.8173077,21.3394118 C63.487311,21.4694124 64.0123057,21.6269108 64.3923076,21.8119118 C64.7723096,21.9969127 65.0473068,22.2294104 65.2173077,22.5094118 C65.3873085,22.7894132 65.4723076,23.1444096 65.4723077,23.5744118 C65.4723076,24.2844153 65.1798106,24.8494097 64.5948077,25.2694118 C64.0098047,25.6894139 63.2273126,25.8994118 62.2473076,25.8994118 Z M75.6792307,18.2344118 C77.3892393,18.2344118 78.2442307,19.2694014 78.2442307,21.3394118 L78.2442307,24.8044118 C78.2442307,25.1344134 78.1417317,25.3944108 77.9367307,25.5844118 C77.7317297,25.7744127 77.4542325,25.8694118 77.1042307,25.8694118 C76.754229,25.8694118 76.4792317,25.7744127 76.2792307,25.5844118 C76.0792297,25.3944108 75.9792307,25.1344134 75.9792307,24.8044118 L75.9792307,21.3094118 C75.9792307,20.8694096 75.8867316,20.5419128 75.7017307,20.3269118 C75.5167298,20.1119107 75.2292327,20.0044118 74.8392307,20.0044118 C74.3692284,20.0044118 73.9917321,20.1544103 73.7067307,20.4544118 C73.4217293,20.7544133 73.2792307,21.1544093 73.2792307,21.6544118 L73.2792307,24.8044118 C73.2792307,25.1344134 73.1792317,25.3944108 72.9792307,25.5844118 C72.7792297,25.7744127 72.5042325,25.8694118 72.1542307,25.8694118 C71.804229,25.8694118 71.5267317,25.7744127 71.3217307,25.5844118 C71.1167297,25.3944108 71.0142307,25.1344134 71.0142307,24.8044118 L71.0142307,16.1644118 C71.0142307,15.8544102 71.1217296,15.6044127 71.3367307,15.4144118 C71.5517318,15.2244108 71.834229,15.1294118 72.1842307,15.1294118 C72.5142307,15.1294118 72.7792297,15.2194109 72.9792307,15.3994118 C73.1792317,15.5794127 73.2792307,15.8194103 73.2792307,16.1194118 L73.2792307,19.3894118 C73.539232,19.0094099 73.8742287,18.7219127 74.2842307,18.5269118 C74.6942328,18.3319108 75.1592281,18.2344118 75.6792307,18.2344118 Z M83.2876922,18.2344118 C84.3676976,18.2344118 85.1676896,18.4969091 85.6876922,19.0219118 C86.2076948,19.5469144 86.4676922,20.3494064 86.4676922,21.4294118 L86.4676922,24.8194118 C86.4676922,25.1494134 86.3726932,25.4069108 86.1826922,25.5919118 C85.9926913,25.7769127 85.7276939,25.8694118 85.3876922,25.8694118 C85.0676906,25.8694118 84.8101932,25.7719127 84.6151922,25.5769118 C84.4201913,25.3819108 84.3226922,25.1294133 84.3226922,24.8194118 L84.3226922,24.7144118 C84.1726915,25.0844136 83.922694,25.3744107 83.5726922,25.5844118 C83.2226905,25.7944128 82.8126946,25.8994118 82.3426922,25.8994118 C81.8426897,25.8994118 81.3901943,25.7994128 80.9851922,25.5994118 C80.5801902,25.3994108 80.2601934,25.1194136 80.0251922,24.7594118 C79.7901911,24.39941 79.6726922,23.999414 79.6726922,23.5594118 C79.6726922,23.0194091 79.8101909,22.5944133 80.0851922,22.2844118 C80.3601936,21.9744102 80.8026892,21.7494125 81.4126922,21.6094118 C82.0226953,21.4694111 82.8576869,21.3994118 83.9176922,21.3994118 L84.3076922,21.3994118 L84.3076922,21.1294118 C84.3076922,20.7094097 84.2151932,20.4044127 84.0301922,20.2144118 C83.8451913,20.0244108 83.5376944,19.9294118 83.1076922,19.9294118 C82.6776901,19.9294118 82.0576963,20.0794103 81.2476922,20.3794118 C81.0176911,20.4894123 80.822693,20.5444118 80.6626922,20.5444118 C80.4426911,20.5444118 80.2676929,20.4669125 80.1376922,20.3119118 C80.0076916,20.156911 79.9426922,19.954413 79.9426922,19.7044118 C79.9426922,19.5044108 79.9876918,19.3394124 80.0776922,19.2094118 C80.1676927,19.0794111 80.3126912,18.9594123 80.5126922,18.8494118 C80.862694,18.6594108 81.2901897,18.5094123 81.7951922,18.3994118 C82.3001948,18.2894112 82.7976898,18.2344118 83.2876922,18.2344118 Z M82.8376922,24.3394118 C83.2776944,24.3394118 83.6326909,24.1919132 83.9026922,23.8969118 C84.1726936,23.6019103 84.3076922,23.2194141 84.3076922,22.7494118 L84.3076922,22.4944118 L84.0526922,22.4944118 C83.2426882,22.4944118 82.6751939,22.5594111 82.3501922,22.6894118 C82.0251906,22.8194124 81.8626922,23.0544101 81.8626922,23.3944118 C81.8626922,23.6744132 81.9551913,23.9019109 82.1401922,24.0769118 C82.3251932,24.2519126 82.5576908,24.3394118 82.8376922,24.3394118 Z M92.7561538,18.2344118 C93.3861569,18.2344118 93.9486513,18.3969101 94.4436538,18.7219118 C94.9386562,19.0469134 95.3236524,19.5019088 95.5986538,20.0869118 C95.8736551,20.6719147 96.0111538,21.344408 96.0111538,22.1044118 C96.0111538,22.8644156 95.8736551,23.5319089 95.5986538,24.1069118 C95.3236524,24.6819146 94.9411562,25.1244102 94.4511538,25.4344118 C93.9611513,25.7444133 93.396157,25.8994118 92.7561538,25.8994118 C92.2561513,25.8994118 91.8036558,25.7969128 91.3986538,25.5919118 C90.9936517,25.3869107 90.6811549,25.0994136 90.4611538,24.7294118 L90.4611538,27.5644118 C90.4611538,27.8644133 90.3611548,28.1044109 90.1611538,28.2844118 C89.9611528,28.4644127 89.6961554,28.5544118 89.3661538,28.5544118 C89.016152,28.5544118 88.7336548,28.4594127 88.5186538,28.2694118 C88.3036527,28.0794108 88.1961538,27.8294133 88.1961538,27.5194118 L88.1961538,19.3294118 C88.1961538,19.0094102 88.2986527,18.7519127 88.5036538,18.5569118 C88.7086548,18.3619108 88.9811521,18.2644118 89.3211538,18.2644118 C89.6611555,18.2644118 89.9311528,18.3619108 90.1311538,18.5569118 C90.3311548,18.7519127 90.4311538,19.0094102 90.4311538,19.3294118 L90.4311538,19.4494118 C90.6511549,19.0694099 90.9661517,18.7719128 91.3761538,18.5569118 C91.7861558,18.3419107 92.2461512,18.2344118 92.7561538,18.2344118 Z M92.0961538,24.1744118 C92.6261564,24.1744118 93.0361523,23.9969135 93.3261538,23.6419118 C93.6161552,23.28691 93.7611538,22.7744151 93.7611538,22.1044118 C93.7611538,21.4244084 93.6161552,20.8969136 93.3261538,20.5219118 C93.0361523,20.1469099 92.6261564,19.9594118 92.0961538,19.9594118 C91.5661511,19.9594118 91.1561552,20.1419099 90.8661538,20.5069118 C90.5761523,20.8719136 90.4311538,21.3944084 90.4311538,22.0744118 C90.4311538,22.7444151 90.5761523,23.2619099 90.8661538,23.6269118 C91.1561552,23.9919136 91.5661511,24.1744118 92.0961538,24.1744118 Z M101.984615,18.2344118 C102.614618,18.2344118 103.177113,18.3969101 103.672115,18.7219118 C104.167118,19.0469134 104.552114,19.5019088 104.827115,20.0869118 C105.102117,20.6719147 105.239615,21.344408 105.239615,22.1044118 C105.239615,22.8644156 105.102117,23.5319089 104.827115,24.1069118 C104.552114,24.6819146 104.169618,25.1244102 103.679615,25.4344118 C103.189613,25.7444133 102.624618,25.8994118 101.984615,25.8994118 C101.484613,25.8994118 101.032117,25.7969128 100.627115,25.5919118 C100.222113,25.3869107 99.9096164,25.0994136 99.6896153,24.7294118 L99.6896153,27.5644118 C99.6896153,27.8644133 99.5896163,28.1044109 99.3896153,28.2844118 C99.1896143,28.4644127 98.924617,28.5544118 98.5946153,28.5544118 C98.2446135,28.5544118 97.9621164,28.4594127 97.7471153,28.2694118 C97.5321142,28.0794108 97.4246153,27.8294133 97.4246153,27.5194118 L97.4246153,19.3294118 C97.4246153,19.0094102 97.5271143,18.7519127 97.7321153,18.5569118 C97.9371163,18.3619108 98.2096136,18.2644118 98.5496153,18.2644118 C98.889617,18.2644118 99.1596143,18.3619108 99.3596153,18.5569118 C99.5596163,18.7519127 99.6596153,19.0094102 99.6596153,19.3294118 L99.6596153,19.4494118 C99.8796164,19.0694099 100.194613,18.7719128 100.604615,18.5569118 C101.014617,18.3419107 101.474613,18.2344118 101.984615,18.2344118 Z M101.324615,24.1744118 C101.854618,24.1744118 102.264614,23.9969135 102.554615,23.6419118 C102.844617,23.28691 102.989615,22.7744151 102.989615,22.1044118 C102.989615,21.4244084 102.844617,20.8969136 102.554615,20.5219118 C102.264614,20.1469099 101.854618,19.9594118 101.324615,19.9594118 C100.794613,19.9594118 100.384617,20.1419099 100.094615,20.5069118 C99.8046138,20.8719136 99.6596153,21.3944084 99.6596153,22.0744118 C99.6596153,22.7444151 99.8046138,23.2619099 100.094615,23.6269118 C100.384617,23.9919136 100.794613,24.1744118 101.324615,24.1744118 Z M112.563077,23.5894118 C112.763078,23.5894118 112.925576,23.669411 113.050577,23.8294118 C113.175577,23.9894126 113.238077,24.1944105 113.238077,24.4444118 C113.238077,24.6144126 113.188077,24.771911 113.088077,24.9169118 C112.988076,25.0619125 112.848078,25.1844113 112.668077,25.2844118 C112.328075,25.4644127 111.933079,25.6119112 111.483077,25.7269118 C111.033075,25.8419123 110.618079,25.8994118 110.238077,25.8994118 C109.438073,25.8994118 108.74058,25.7444133 108.145577,25.4344118 C107.550574,25.1244102 107.093078,24.6819146 106.773077,24.1069118 C106.453075,23.5319089 106.293077,22.8544157 106.293077,22.0744118 C106.293077,21.324408 106.448075,20.6594147 106.758077,20.0794118 C107.068078,19.4994089 107.498074,19.0469134 108.048077,18.7219118 C108.59808,18.3969101 109.223073,18.2344118 109.923077,18.2344118 C110.59308,18.2344118 111.180574,18.3819103 111.685577,18.6769118 C112.190579,18.9719132 112.583075,19.391909 112.863077,19.9369118 C113.143078,20.4819145 113.283077,21.1194081 113.283077,21.8494118 C113.283077,22.0694129 113.230577,22.2369112 113.125577,22.3519118 C113.020576,22.4669123 112.873078,22.5244118 112.683077,22.5244118 L108.483077,22.5244118 C108.553077,23.1144147 108.733075,23.5419104 109.023077,23.8069118 C109.313078,24.0719131 109.728074,24.2044118 110.268077,24.2044118 C110.558078,24.2044118 110.818076,24.1694121 111.048077,24.0994118 C111.278078,24.0294114 111.533075,23.9344124 111.813077,23.8144118 C111.953078,23.7544115 112.088076,23.701912 112.218077,23.6569118 C112.348077,23.6119115 112.463076,23.5894118 112.563077,23.5894118 Z M109.983077,19.7944118 C109.553075,19.7944118 109.208078,19.9319104 108.948077,20.2069118 C108.688076,20.4819131 108.533077,20.8794092 108.483077,21.3994118 L111.378077,21.3994118 C111.348077,20.8694091 111.215578,20.4694131 110.980577,20.1994118 C110.745576,19.9294104 110.413079,19.7944118 109.983077,19.7944118 Z M119.301538,18.2344118 C120.181538,18.2344118 120.836536,18.4919092 121.266538,19.0069118 C121.696541,19.5219143 121.911538,20.2994066 121.911538,21.3394118 L121.911538,24.8044118 C121.911538,25.1344134 121.809039,25.3944108 121.604038,25.5844118 C121.399037,25.7744127 121.12154,25.8694118 120.771538,25.8694118 C120.421537,25.8694118 120.146539,25.7744127 119.946538,25.5844118 C119.746537,25.3944108 119.646538,25.1344134 119.646538,24.8044118 L119.646538,21.4444118 C119.646538,20.9444093 119.554039,20.5794129 119.369038,20.3494118 C119.184037,20.1194106 118.89654,20.0044118 118.506538,20.0044118 C118.036536,20.0044118 117.65904,20.1544103 117.374038,20.4544118 C117.089037,20.7544133 116.946538,21.1544093 116.946538,21.6544118 L116.946538,24.8044118 C116.946538,25.1344134 116.846539,25.3944108 116.646538,25.5844118 C116.446537,25.7744127 116.17154,25.8694118 115.821538,25.8694118 C115.471537,25.8694118 115.194039,25.7744127 114.989038,25.5844118 C114.784037,25.3944108 114.681538,25.1344134 114.681538,24.8044118 L114.681538,19.2994118 C114.681538,18.9894102 114.789037,18.7394127 115.004038,18.5494118 C115.219039,18.3594108 115.496537,18.2644118 115.836538,18.2644118 C116.14654,18.2644118 116.399037,18.3569108 116.594038,18.5419118 C116.789039,18.7269127 116.886538,18.9644103 116.886538,19.2544118 L116.886538,19.4644118 C117.14654,19.0644098 117.484036,18.7594128 117.899038,18.5494118 C118.31404,18.3394107 118.781536,18.2344118 119.301538,18.2344118 Z M124.78,25.8694118 C124.449998,25.8694118 124.177501,25.7794127 123.9625,25.5994118 C123.747499,25.4194109 123.64,25.1544135 123.64,24.8044118 L123.64,19.3294118 C123.64,18.97941 123.749999,18.7144127 123.97,18.5344118 C124.190001,18.3544109 124.459998,18.2644118 124.78,18.2644118 C125.100001,18.2644118 125.367499,18.3544109 125.5825,18.5344118 C125.797501,18.7144127 125.905,18.97941 125.905,19.3294118 L125.905,24.8044118 C125.905,25.1544135 125.797501,25.4194109 125.5825,25.5994118 C125.367499,25.7794127 125.100001,25.8694118 124.78,25.8694118 Z M124.78,17.0644118 C124.379998,17.0644118 124.065001,16.9619128 123.835,16.7569118 C123.604999,16.5519107 123.49,16.2744135 123.49,15.9244118 C123.49,15.57441 123.604999,15.2994128 123.835,15.0994118 C124.065001,14.8994108 124.379998,14.7994118 124.78,14.7994118 C125.170002,14.7994118 125.482499,14.9019107 125.7175,15.1069118 C125.952501,15.3119128 126.07,15.5844101 126.07,15.9244118 C126.07,16.2744135 125.955001,16.5519107 125.725,16.7569118 C125.494999,16.9619128 125.180002,17.0644118 124.78,17.0644118 Z M132.298461,18.2344118 C133.178461,18.2344118 133.833459,18.4919092 134.263461,19.0069118 C134.693464,19.5219143 134.908461,20.2994066 134.908461,21.3394118 L134.908461,24.8044118 C134.908461,25.1344134 134.805962,25.3944108 134.600961,25.5844118 C134.39596,25.7744127 134.118463,25.8694118 133.768461,25.8694118 C133.41846,25.8694118 133.143462,25.7744127 132.943461,25.5844118 C132.74346,25.3944108 132.643461,25.1344134 132.643461,24.8044118 L132.643461,21.4444118 C132.643461,20.9444093 132.550962,20.5794129 132.365961,20.3494118 C132.18096,20.1194106 131.893463,20.0044118 131.503461,20.0044118 C131.033459,20.0044118 130.655963,20.1544103 130.370961,20.4544118 C130.08596,20.7544133 129.943461,21.1544093 129.943461,21.6544118 L129.943461,24.8044118 C129.943461,25.1344134 129.843462,25.3944108 129.643461,25.5844118 C129.44346,25.7744127 129.168463,25.8694118 128.818461,25.8694118 C128.46846,25.8694118 128.190962,25.7744127 127.985961,25.5844118 C127.78096,25.3944108 127.678461,25.1344134 127.678461,24.8044118 L127.678461,19.2994118 C127.678461,18.9894102 127.78596,18.7394127 128.000961,18.5494118 C128.215962,18.3594108 128.49346,18.2644118 128.833461,18.2644118 C129.143463,18.2644118 129.39596,18.3569108 129.590961,18.5419118 C129.785962,18.7269127 129.883461,18.9644103 129.883461,19.2544118 L129.883461,19.4644118 C130.143463,19.0644098 130.480959,18.7594128 130.895961,18.5494118 C131.310963,18.3394107 131.778459,18.2344118 132.298461,18.2344118 Z M143.026923,18.2644118 C143.366925,18.2644118 143.639422,18.3619108 143.844423,18.5569118 C144.049424,18.7519127 144.151923,19.0094102 144.151923,19.3294118 L144.151923,24.9844118 C144.151923,26.1744177 143.806926,27.0744087 143.116923,27.6844118 C142.426919,28.2944148 141.41693,28.5994118 140.086923,28.5994118 C138.966917,28.5994118 138.046927,28.3994138 137.326923,27.9994118 C137.146922,27.8994113 137.006923,27.7769125 136.906923,27.6319118 C136.806922,27.486911 136.756923,27.3244127 136.756923,27.1444118 C136.756923,26.8944105 136.816922,26.6894126 136.936923,26.5294118 C137.056924,26.369411 137.216922,26.2894118 137.416923,26.2894118 C137.526924,26.2894118 137.656922,26.3119115 137.806923,26.3569118 C137.956924,26.401912 138.111922,26.4544115 138.271923,26.5144118 C138.591925,26.6344124 138.886922,26.7294114 139.156923,26.7994118 C139.426924,26.8694121 139.716921,26.9044118 140.026923,26.9044118 C140.666926,26.9044118 141.141921,26.7594132 141.451923,26.4694118 C141.761924,26.1794103 141.916923,25.7394147 141.916923,25.1494118 L141.916923,24.3394118 C141.706922,24.7194137 141.391925,25.0194107 140.971923,25.2394118 C140.551921,25.4594129 140.081926,25.5694118 139.561923,25.5694118 C138.92192,25.5694118 138.354425,25.4194133 137.859423,25.1194118 C137.36442,24.8194103 136.976924,24.3919145 136.696923,23.8369118 C136.416922,23.281909 136.276923,22.6394154 136.276923,21.9094118 C136.276923,21.1794081 136.416922,20.5369145 136.696923,19.9819118 C136.976924,19.426909 137.36442,18.9969133 137.859423,18.6919118 C138.354425,18.3869102 138.92192,18.2344118 139.561923,18.2344118 C140.071925,18.2344118 140.534421,18.3419107 140.949423,18.5569118 C141.364425,18.7719128 141.681922,19.0694099 141.901923,19.4494118 L141.901923,19.2994118 C141.901923,18.9794102 142.004422,18.7269127 142.209423,18.5419118 C142.414424,18.3569108 142.686921,18.2644118 143.026923,18.2644118 Z M140.221923,23.8444118 C140.751926,23.8444118 141.164421,23.6744135 141.459423,23.3344118 C141.754424,22.9944101 141.901923,22.5194148 141.901923,21.9094118 C141.901923,21.2994087 141.754424,20.8219135 141.459423,20.4769118 C141.164421,20.13191 140.751926,19.9594118 140.221923,19.9594118 C139.69192,19.9594118 139.276924,20.13191 138.976923,20.4769118 C138.676921,20.8219135 138.526923,21.2994087 138.526923,21.9094118 C138.526923,22.5194148 138.676921,22.9944101 138.976923,23.3344118 C139.276924,23.6744135 139.69192,23.8444118 140.221923,23.8444118 Z" id="What’shappening" fill="#FFFFFF" fill-rule="nonzero"></path>
                    <path d="M20.2577941,53.845 L18.7952941,53.845 L18.4182941,55.782 L19.8807941,55.782 L20.2577941,53.845 Z M22.8902941,52.8245 L22.7862941,53.4095 C22.760294,53.5611674 22.7007113,53.6716663 22.6075441,53.741 C22.514377,53.8103337 22.3681284,53.845 22.1687941,53.845 L21.4017941,53.845 L21.0312941,55.782 L22.0647941,55.782 C22.2077948,55.782 22.3117938,55.8253329 22.3767941,55.912 C22.4417944,55.9986671 22.456961,56.1481656 22.4222941,56.3605 L22.3572941,56.809 L20.8817941,56.809 L20.3617941,59.5 L19.7247941,59.5 C19.6597938,59.5 19.5980444,59.4848335 19.5395441,59.4545 C19.4810438,59.4241665 19.4322943,59.3819169 19.3932941,59.32775 C19.3542939,59.2735831 19.3272109,59.2107504 19.3120441,59.13925 C19.2968774,59.0677496 19.2979607,58.9908337 19.3152941,58.9085 L19.7312941,56.809 L18.2752941,56.809 L17.8592941,58.98 C17.8246273,59.1663343 17.7477114,59.2995829 17.6285441,59.37975 C17.5093769,59.4599171 17.3739615,59.5 17.2222941,59.5 L16.6047941,59.5 L17.1247941,56.809 L16.2862941,56.809 C16.1432934,56.809 16.0392944,56.7645838 15.9742941,56.67575 C15.9092938,56.5869162 15.8919606,56.438501 15.9222941,56.2305 L15.9937941,55.782 L17.2742941,55.782 L17.6447941,53.845 L16.2017941,53.845 L16.3057941,53.26 C16.3317942,53.1083326 16.391377,52.9978337 16.4845441,52.9285 C16.5777113,52.8591663 16.7239598,52.8245 16.9232941,52.8245 L17.7942941,52.8245 L18.2232941,50.6275 C18.2536276,50.4758326 18.3240436,50.3566671 18.4345441,50.27 C18.5450447,50.1833329 18.6761267,50.14 18.8277941,50.14 L19.4582941,50.14 L18.9382941,52.8245 L20.4007941,52.8245 L20.9207941,50.14 L21.5382941,50.14 C21.6899615,50.14 21.8080437,50.1876662 21.8925441,50.283 C21.9770445,50.3783338 22.0062942,50.4974993 21.9802941,50.6405 L21.5512941,52.8245 L22.8902941,52.8245 Z M25.4282941,57.836 C25.6232951,58.0873346 25.8367096,58.2639162 26.0685441,58.36575 C26.3003786,58.4675838 26.5527928,58.5185 26.8257941,58.5185 C27.3761302,58.5185 27.8051259,58.3191687 28.1127941,57.9205 C28.4204623,57.5218313 28.5742941,56.9043375 28.5742941,56.068 C28.5742941,55.3053295 28.4410455,54.7485018 28.1745441,54.3975 C27.9080428,54.0464982 27.5277966,53.871 27.0337941,53.871 C26.6914591,53.871 26.3935454,53.9479159 26.1400441,54.10175 C25.8865429,54.2555841 25.6492952,54.4754986 25.4282941,54.7615 L25.4282941,57.836 Z M25.4282941,53.7475 C25.7012955,53.4484985 26.0067924,53.2101676 26.3447941,53.0325 C26.6827958,52.8548324 27.0684586,52.766 27.5017941,52.766 C27.8874627,52.766 28.2352092,52.8407493 28.5450441,52.99025 C28.854879,53.1397507 29.1181264,53.3553319 29.3347941,53.637 C29.5514619,53.9186681 29.7182935,54.2599147 29.8352941,54.66075 C29.9522947,55.0615853 30.0107941,55.5133308 30.0107941,56.016 C30.0107941,56.553336 29.9447114,57.0419145 29.8125441,57.48175 C29.6803768,57.9215855 29.4907954,58.2985818 29.2437941,58.61275 C28.9967929,58.9269182 28.6977959,59.1695825 28.3467941,59.34075 C27.9957924,59.5119175 27.6036296,59.5975 27.1702941,59.5975 C26.9579597,59.5975 26.7651283,59.5769169 26.5917941,59.53575 C26.4184599,59.4945831 26.2581282,59.4350004 26.1107941,59.357 C25.96346,59.2789996 25.8280447,59.1858339 25.7045441,59.0775 C25.5810435,58.9691661 25.4629613,58.8456674 25.3502941,58.707 L25.2917941,59.2205 C25.2701273,59.3201672 25.2311277,59.3916665 25.1747941,59.435 C25.1184605,59.4783336 25.0404613,59.5 24.9407941,59.5 L24.0307941,59.5 L24.0307941,49.88 L25.4282941,49.88 L25.4282941,53.7475 Z M34.9342941,56.601 C34.4359583,56.6183334 34.0156292,56.6584164 33.6732941,56.72125 C33.3309591,56.7840836 33.0536285,56.8642495 32.8412941,56.96175 C32.6289597,57.0592505 32.4762113,57.175166 32.3830441,57.3095 C32.289877,57.443834 32.2432941,57.5911659 32.2432941,57.7515 C32.2432941,57.9075008 32.2682105,58.0407494 32.3180441,58.15125 C32.3678777,58.2617506 32.4372103,58.3527496 32.5260441,58.42425 C32.6148779,58.4957504 32.7188769,58.5477498 32.8380441,58.58025 C32.9572114,58.6127502 33.0882934,58.629 33.2312941,58.629 C33.5952959,58.629 33.9083761,58.5607507 34.1705441,58.42425 C34.4327121,58.2877493 34.6872929,58.0895013 34.9342941,57.8295 L34.9342941,56.601 Z M31.2292941,53.793 C31.9789645,53.0953298 32.8716223,52.7465 33.9072941,52.7465 C34.2886294,52.7465 34.6277093,52.8082494 34.9245441,52.93175 C35.2213789,53.0552506 35.4705431,53.2296655 35.6720441,53.455 C35.8735451,53.6803345 36.0273769,53.9479151 36.1335441,54.25775 C36.2397113,54.5675849 36.2927941,54.9109981 36.2927941,55.288 L36.2927941,59.5 L35.6687941,59.5 C35.5344601,59.5 35.4326278,59.4794169 35.3632941,59.43825 C35.2939604,59.3970831 35.235461,59.3136673 35.1877941,59.188 L35.0512941,58.6485 C34.8822933,58.8001674 34.7154616,58.9355827 34.5507941,59.05475 C34.3861266,59.1739173 34.216045,59.2746663 34.0405441,59.357 C33.8650432,59.4393337 33.6765451,59.5010831 33.4750441,59.54225 C33.2735431,59.5834169 33.051462,59.604 32.8087941,59.604 C32.5401261,59.604 32.2898786,59.567167 32.0580441,59.4935 C31.8262096,59.419833 31.625795,59.3082507 31.4567941,59.15875 C31.2877933,59.0092493 31.1545446,58.8240011 31.0570441,58.603 C30.9595436,58.3819989 30.9107941,58.1220015 30.9107941,57.823 C30.9107941,57.5673321 30.9790434,57.3181679 31.1155441,57.0755 C31.2520448,56.8328321 31.4773759,56.6150843 31.7915441,56.42225 C32.1057124,56.2294157 32.5195416,56.0701673 33.0330441,55.9445 C33.5465467,55.8188327 34.1802903,55.7473334 34.9342941,55.73 L34.9342941,55.288 C34.9342941,54.8113309 34.8324618,54.4560012 34.6287941,54.222 C34.4251264,53.9879988 34.1261294,53.871 33.7317941,53.871 C33.4631261,53.871 33.237795,53.904583 33.0557941,53.97175 C32.8737932,54.038917 32.7156281,54.1114996 32.5812941,54.1895 C32.4469601,54.2675004 32.3277946,54.340083 32.2237941,54.40725 C32.1197936,54.474417 32.0092947,54.508 31.8922941,54.508 C31.7969603,54.508 31.7157111,54.4830836 31.6485441,54.43325 C31.5813771,54.3834164 31.5261277,54.321667 31.4827941,54.248 L31.2292941,53.793 Z M42.1847941,54.5015 C41.9897931,54.2501654 41.7752953,54.0746672 41.5412941,53.975 C41.3072929,53.8753328 41.0537955,53.8255 40.7807941,53.8255 C40.2347914,53.8255 39.8079623,54.0259147 39.5002941,54.42675 C39.1926259,54.8275853 39.0387941,55.4201627 39.0387941,56.2045 C39.0387941,56.6118354 39.0734604,56.9595819 39.1427941,57.24775 C39.2121278,57.5359181 39.3117935,57.7709991 39.4417941,57.953 C39.5717948,58.1350009 39.7299599,58.2671663 39.9162941,58.3495 C40.1026284,58.4318337 40.3127929,58.473 40.5467941,58.473 C40.9021292,58.473 41.2087095,58.3960841 41.4665441,58.24225 C41.7243787,58.0884159 41.963793,57.8706681 42.1847941,57.589 L42.1847941,54.5015 Z M43.5822941,49.88 L43.5822941,59.5 L42.7372941,59.5 C42.5509599,59.5 42.4317944,59.4111676 42.3797941,59.2335 L42.2562941,58.512 C41.9789594,58.8370016 41.6637126,59.0991657 41.3105441,59.2985 C40.9573757,59.4978343 40.5467965,59.5975 40.0787941,59.5975 C39.7061256,59.5975 39.368129,59.5227507 39.0647941,59.37325 C38.7614593,59.2237493 38.5014619,59.0060014 38.2847941,58.72 C38.0681264,58.4339986 37.9002114,58.0797521 37.7810441,57.65725 C37.6618769,57.2347479 37.6022941,56.7505027 37.6022941,56.2045 C37.6022941,55.7104975 37.6683768,55.2533354 37.8005441,54.833 C37.9327114,54.4126646 38.1222929,54.0475849 38.3692941,53.73775 C38.6162954,53.4279151 38.9163757,53.1852509 39.2695441,53.00975 C39.6227126,52.8342491 40.0181253,52.7465 40.4557941,52.7465 C40.8457961,52.7465 41.1772928,52.8082494 41.4502941,52.93175 C41.7232955,53.0552506 41.9681264,53.2274989 42.1847941,53.4485 L42.1847941,49.88 L43.5822941,49.88 Z M50.4232941,51.739 C50.3756272,51.8170004 50.3257944,51.8744165 50.2737941,51.91125 C50.2217939,51.9480835 50.1567945,51.9665 50.0787941,51.9665 C49.9964604,51.9665 49.904378,51.9318337 49.8025441,51.8625 C49.7007103,51.7931663 49.5750449,51.7162504 49.4255441,51.63175 C49.2760434,51.5472496 49.0994618,51.4692504 48.8957941,51.39775 C48.6921264,51.3262496 48.4494622,51.2905 48.1677941,51.2905 C47.9077928,51.2905 47.6792118,51.3229997 47.4820441,51.388 C47.2848765,51.4530003 47.1191281,51.5439994 46.9847941,51.661 C46.8504601,51.7780006 46.7497111,51.9155825 46.6825441,52.07375 C46.6153771,52.2319175 46.5817941,52.4041657 46.5817941,52.5905 C46.5817941,52.8288345 46.6446268,53.0270825 46.7702941,53.18525 C46.8959614,53.3434175 47.0617098,53.4788328 47.2675441,53.5915 C47.4733785,53.7041672 47.7084595,53.8027496 47.9727941,53.88725 C48.2371288,53.9717504 48.5068761,54.0616662 48.7820441,54.157 C49.0572122,54.2523338 49.3269595,54.3606661 49.5912941,54.482 C49.8556288,54.6033339 50.0907098,54.7571657 50.2965441,54.9435 C50.5023785,55.1298343 50.6681268,55.357332 50.7937941,55.626 C50.9194614,55.894668 50.9822941,56.2218314 50.9822941,56.6075 C50.9822941,57.0235021 50.9107948,57.4134982 50.7677941,57.7775 C50.6247934,58.1415018 50.4178788,58.4589153 50.1470441,58.72975 C49.8762094,59.0005847 49.5425461,59.2139992 49.1460441,59.37 C48.7495421,59.5260008 48.2977967,59.604 47.7907941,59.604 C47.4917926,59.604 47.2003789,59.5747503 46.9165441,59.51625 C46.6327094,59.4577497 46.3618787,59.3754172 46.1040441,59.26925 C45.8462095,59.1630828 45.6046286,59.0341674 45.3792941,58.8825 C45.1539597,58.7308326 44.9524617,58.5618343 44.7747941,58.3755 L45.2167941,57.6475 C45.2557943,57.586833 45.3056271,57.5391668 45.3662941,57.5045 C45.4269611,57.4698332 45.4941271,57.4525 45.5677941,57.4525 C45.6674613,57.4525 45.7779602,57.4990829 45.8992941,57.59225 C46.0206281,57.6854171 46.1668766,57.7872494 46.3380441,57.89775 C46.5092116,58.0082506 46.7161262,58.1100829 46.9587941,58.20325 C47.201462,58.2964171 47.4917924,58.343 47.8297941,58.343 C48.3801302,58.343 48.8058759,58.208668 49.1070441,57.94 C49.4082123,57.671332 49.5587941,57.3008357 49.5587941,56.8285 C49.5587941,56.5641653 49.4959614,56.3485842 49.3702941,56.18175 C49.2446268,56.0149158 49.0788785,55.8751672 48.8730441,55.7625 C48.6672098,55.6498328 48.4321288,55.5545004 48.1677941,55.4765 C47.9034595,55.3984996 47.6347955,55.3150838 47.3617941,55.22625 C47.0887928,55.1374162 46.8201288,55.0334173 46.5557941,54.91425 C46.2914595,54.7950827 46.0563785,54.6390843 45.8505441,54.44625 C45.6447098,54.2534157 45.4789614,54.0150848 45.3532941,53.73125 C45.2276268,53.4474152 45.1647941,53.0931688 45.1647941,52.6685 C45.1647941,52.3304983 45.2308768,52.0033349 45.3630441,51.687 C45.4952114,51.3706651 45.6880429,51.0900846 45.9415441,50.84525 C46.1950454,50.6004154 46.5081256,50.4043341 46.8807941,50.257 C47.2534626,50.1096659 47.6781251,50.036 48.1547941,50.036 C48.6921301,50.036 49.1850419,50.1204992 49.6335441,50.2895 C50.0820464,50.4585008 50.4687925,50.6989984 50.7937941,51.011 L50.4232941,51.739 Z M54.2222941,59.604 C53.671958,59.604 53.2483789,59.4490849 52.9515441,59.13925 C52.6547093,58.8294151 52.5062941,58.3928362 52.5062941,57.8295 L52.5062941,53.9685 L51.7782941,53.9685 C51.7002937,53.9685 51.6331277,53.9435836 51.5767941,53.89375 C51.5204605,53.8439164 51.4922941,53.7691672 51.4922941,53.6695 L51.4922941,53.104 L52.5647941,52.948 L52.8702941,51.0305 C52.8919609,50.956833 52.9287939,50.8972502 52.9807941,50.85175 C53.0327944,50.8062498 53.102127,50.7835 53.1887941,50.7835 L53.9037941,50.7835 L53.9037941,52.961 L55.7432941,52.961 L55.7432941,53.9685 L53.9037941,53.9685 L53.9037941,57.732 C53.9037941,57.9703345 53.9622935,58.1523327 54.0792941,58.278 C54.1962947,58.4036673 54.3522931,58.4665 54.5472941,58.4665 C54.655628,58.4665 54.7487937,58.4524168 54.8267941,58.42425 C54.9047945,58.3960832 54.9719605,58.3657502 55.0282941,58.33325 C55.0846277,58.3007498 55.1333772,58.2704168 55.1745441,58.24225 C55.215711,58.2140832 55.2557939,58.2 55.2947941,58.2 C55.3727945,58.2 55.4356272,58.2433329 55.4832941,58.33 L55.8992941,59.0125 C55.6826264,59.2031676 55.4269623,59.3494162 55.1322941,59.45125 C54.837626,59.5530838 54.5342957,59.604 54.2222941,59.604 Z M62.4672941,52.87 L62.4672941,59.5 L61.6222941,59.5 C61.4359599,59.5 61.3167944,59.4111676 61.2647941,59.2335 L61.1607941,58.616 C61.0221268,58.7633341 60.8758782,58.8976661 60.7220441,59.019 C60.56821,59.1403339 60.4046283,59.2443329 60.2312941,59.331 C60.0579599,59.4176671 59.8727118,59.4848331 59.6755441,59.5325 C59.4783765,59.5801669 59.2671286,59.604 59.0417941,59.604 C58.6777923,59.604 58.3571288,59.5433339 58.0797941,59.422 C57.8024594,59.3006661 57.5695451,59.1295011 57.3810441,58.9085 C57.1925432,58.6874989 57.0506279,58.4220849 56.9552941,58.11225 C56.8599603,57.8024151 56.8122941,57.4611685 56.8122941,57.0885 L56.8122941,52.87 L58.2097941,52.87 L58.2097941,57.0885 C58.2097941,57.5348356 58.3127098,57.8814988 58.5185441,58.1285 C58.7243785,58.3755012 59.0374587,58.499 59.4577941,58.499 C59.7654623,58.499 60.0525428,58.428584 60.3190441,58.28775 C60.5855455,58.146916 60.8357929,57.9530012 61.0697941,57.706 L61.0697941,52.87 L62.4672941,52.87 Z M64.6477941,59.5 L64.6477941,53.9815 L63.9977941,53.8905 C63.8894602,53.8688332 63.8017111,53.8298336 63.7345441,53.7735 C63.6673771,53.7171664 63.6337941,53.6370005 63.6337941,53.533 L63.6337941,52.961 L64.6477941,52.961 L64.6477941,52.5125 C64.6477941,52.1311648 64.7030436,51.7910015 64.8135441,51.492 C64.9240447,51.1929985 65.0822098,50.939501 65.2880441,50.7315 C65.4938785,50.523499 65.744126,50.3653339 66.0387941,50.257 C66.3334623,50.1486661 66.6649589,50.0945 67.0332941,50.0945 C67.1849615,50.0945 67.3290434,50.1053332 67.4655441,50.127 C67.6020448,50.1486668 67.7352935,50.1789998 67.8652941,50.218 L67.8392941,50.9265 C67.8306274,51.0391672 67.7732113,51.1074165 67.6670441,51.13125 C67.5608769,51.1550835 67.4276283,51.167 67.2672941,51.167 C67.0722931,51.167 66.8967949,51.1897498 66.7407941,51.23525 C66.5847933,51.2807502 66.4515447,51.3576661 66.3410441,51.466 C66.2305436,51.5743339 66.1460444,51.7173324 66.0875441,51.895 C66.0290438,52.0726676 65.9997941,52.2914987 65.9997941,52.5515 L65.9997941,52.961 L68.8077941,52.961 L68.8077941,52.3175 C68.8077941,51.9361648 68.8630436,51.5960015 68.9735441,51.297 C69.0840447,50.9979985 69.2422098,50.744501 69.4480441,50.5365 C69.6538785,50.328499 69.904126,50.1703339 70.1987941,50.062 C70.4934623,49.9536661 70.8227923,49.8995 71.1867941,49.8995 C71.3384615,49.8995 71.4836268,49.9103332 71.6222941,49.932 C71.7609615,49.9536668 71.8952935,49.9839998 72.0252941,50.023 L71.9927941,50.7315 C71.9841274,50.8441672 71.9267113,50.9124165 71.8205441,50.93625 C71.7143769,50.9600835 71.5811283,50.972 71.4207941,50.972 C71.2257931,50.972 71.0502949,50.9947498 70.8942941,51.04025 C70.7382933,51.0857502 70.6050447,51.1626661 70.4945441,51.271 C70.3840436,51.3793339 70.2995444,51.5223324 70.2410441,51.7 C70.1825438,51.8776676 70.1532941,52.0964987 70.1532941,52.3565 L70.1532941,52.961 L71.9667941,52.961 L71.9667941,53.9685 L70.1987941,53.9685 L70.1987941,59.5 L68.8077941,59.5 L68.8077941,53.9685 L66.0452941,53.9685 L66.0452941,59.5 L64.6477941,59.5 Z" id="#badStuf" fill="#FFFFFF" fill-rule="nonzero"></path>
                    <rect id="Rectangle" fill="#D8D8D8" opacity="0.262625558" x="0" y="37.7794118" width="200.735294" height="1"></rect>
                </g>
                <g id="Group-3" transform="translate(241.500000, 0.000000)">
                    <path d="M12,0 L188.735294,0 C195.362711,-1.8876423e-14 200.735294,5.372583 200.735294,12 L200.735294,75 L0,75 L0,12 C-8.11624501e-16,5.372583 5.372583,1.21743675e-15 12,0 Z" id="Rectangle" fill="#1A2C3C"></path>
                    <path d="M59.1273971,25.14 L59.1273971,34.5 L57.6063971,34.5 L57.6063971,30.3335 L52.9068971,30.3335 L52.9068971,34.5 L51.3793971,34.5 L51.3793971,25.14 L52.9068971,25.14 L52.9068971,29.235 L57.6063971,29.235 L57.6063971,25.14 L59.1273971,25.14 Z M64.4863971,31.601 C63.9880612,31.6183334 63.5677321,31.6584164 63.2253971,31.72125 C62.883062,31.7840836 62.6057315,31.8642495 62.3933971,31.96175 C62.1810627,32.0592505 62.0283142,32.175166 61.9351471,32.3095 C61.8419799,32.443834 61.7953971,32.5911659 61.7953971,32.7515 C61.7953971,32.9075008 61.8203135,33.0407494 61.8701471,33.15125 C61.9199806,33.2617506 61.9893133,33.3527496 62.0781471,33.42425 C62.1669808,33.4957504 62.2709798,33.5477498 62.3901471,33.58025 C62.5093143,33.6127502 62.6403963,33.629 62.7833971,33.629 C63.1473989,33.629 63.4604791,33.5607507 63.7226471,33.42425 C63.984815,33.2877493 64.2393958,33.0895013 64.4863971,32.8295 L64.4863971,31.601 Z M60.7813971,28.793 C61.5310675,28.0953298 62.4237252,27.7465 63.4593971,27.7465 C63.8407323,27.7465 64.1798122,27.8082494 64.4766471,27.93175 C64.7734819,28.0552506 65.0226461,28.2296655 65.2241471,28.455 C65.4256481,28.6803345 65.5794799,28.9479151 65.6856471,29.25775 C65.7918143,29.5675849 65.8448971,29.9109981 65.8448971,30.288 L65.8448971,34.5 L65.2208971,34.5 C65.0865631,34.5 64.9847307,34.4794169 64.9153971,34.43825 C64.8460634,34.3970831 64.787564,34.3136673 64.7398971,34.188 L64.6033971,33.6485 C64.4343962,33.8001674 64.2675645,33.9355827 64.1028971,34.05475 C63.9382296,34.1739173 63.7681479,34.2746663 63.5926471,34.357 C63.4171462,34.4393337 63.2286481,34.5010831 63.0271471,34.54225 C62.8256461,34.5834169 62.6035649,34.604 62.3608971,34.604 C62.092229,34.604 61.8419816,34.567167 61.6101471,34.4935 C61.3783126,34.419833 61.1778979,34.3082507 61.0088971,34.15875 C60.8398962,34.0092493 60.7066475,33.8240011 60.6091471,33.603 C60.5116466,33.3819989 60.4628971,33.1220015 60.4628971,32.823 C60.4628971,32.5673321 60.5311464,32.3181679 60.6676471,32.0755 C60.8041477,31.8328321 61.0294788,31.6150843 61.3436471,31.42225 C61.6578153,31.2294157 62.0716445,31.0701673 62.5851471,30.9445 C63.0986496,30.8188327 63.7323933,30.7473334 64.4863971,30.73 L64.4863971,30.288 C64.4863971,29.8113309 64.3845647,29.4560012 64.1808971,29.222 C63.9772294,28.9879988 63.6782324,28.871 63.2838971,28.871 C63.015229,28.871 62.789898,28.904583 62.6078971,28.97175 C62.4258961,29.038917 62.2677311,29.1114996 62.1333971,29.1895 C61.9990631,29.2675004 61.8798976,29.340083 61.7758971,29.40725 C61.6718965,29.474417 61.5613976,29.508 61.4443971,29.508 C61.3490632,29.508 61.2678141,29.4830836 61.2006471,29.43325 C61.1334801,29.3834164 61.0782306,29.321667 61.0348971,29.248 L60.7813971,28.793 Z M73.1928971,27.87 L70.5278971,34.5 L69.2668971,34.5 L66.6018971,27.87 L67.7523971,27.87 C67.8607309,27.87 67.9506467,27.8970831 68.0221471,27.95125 C68.0936474,28.0054169 68.1402303,28.069333 68.1618971,28.143 L69.6308971,32.004 C69.691564,32.1860009 69.7457302,32.3658324 69.7933971,32.5435 C69.841064,32.7211676 69.8822302,32.9009991 69.9168971,33.083 C69.9515639,32.9009991 69.9938135,32.7222509 70.0436471,32.54675 C70.0934806,32.3712491 70.1487301,32.1903343 70.2093971,32.004 L71.7043971,28.143 C71.7303972,28.0649996 71.7780634,28.0000003 71.8473971,27.948 C71.9167307,27.8959997 72.0012299,27.87 72.1008971,27.87 L73.1928971,27.87 Z M78.3308971,30.4375 C78.3308971,30.2034988 78.2973141,29.985751 78.2301471,29.78425 C78.1629801,29.582749 78.0643977,29.4072507 77.9343971,29.25775 C77.8043964,29.1082493 77.6429814,28.9912504 77.4501471,28.90675 C77.2573128,28.8222496 77.0352316,28.78 76.7838971,28.78 C76.2768945,28.78 75.8782318,28.9251652 75.5878971,29.2155 C75.2975623,29.5058348 75.1133974,29.913164 75.0353971,30.4375 L78.3308971,30.4375 Z M74.9963971,31.2955 C75.0137305,31.6725019 75.0722299,31.998582 75.1718971,32.27375 C75.2715642,32.548918 75.4048129,32.7774991 75.5716471,32.9595 C75.7384812,33.1415009 75.9378126,33.2769162 76.1696471,33.36575 C76.4014816,33.4545838 76.6603956,33.499 76.9463971,33.499 C77.2193984,33.499 77.4555627,33.4675836 77.6548971,33.40475 C77.8542314,33.3419164 78.027563,33.2725837 78.1748971,33.19675 C78.3222311,33.1209163 78.4478965,33.0515836 78.5518971,32.98875 C78.6558976,32.9259164 78.75123,32.8945 78.8378971,32.8945 C78.9505643,32.8945 79.0372301,32.9378329 79.0978971,33.0245 L79.4943971,33.538 C79.3297296,33.733001 79.1433981,33.897666 78.9353971,34.032 C78.727396,34.166334 78.5063982,34.2757496 78.2723971,34.36025 C78.0383959,34.4447504 77.7978983,34.5054165 77.5508971,34.54225 C77.3038958,34.5790835 77.0633982,34.5975 76.8293971,34.5975 C76.3700614,34.5975 75.9443157,34.5205841 75.5521471,34.36675 C75.1599784,34.2129159 74.8198152,33.9865015 74.5316471,33.6875 C74.243479,33.3884985 74.0181479,33.0180022 73.8556471,32.576 C73.6931462,32.1339978 73.6118971,31.6248362 73.6118971,31.0485 C73.6118971,30.5891644 73.6844797,30.1601687 73.8296471,29.7615 C73.9748145,29.3628313 74.1828124,29.0161681 74.4536471,28.7215 C74.7244817,28.4268319 75.0538118,28.1939175 75.4416471,28.02275 C75.8294823,27.8515825 76.2682279,27.766 76.7578971,27.766 C77.1652324,27.766 77.5422287,27.8320827 77.8888971,27.96425 C78.2355655,28.0964173 78.5345625,28.2903321 78.7858971,28.546 C79.0372316,28.8016679 79.233313,29.1147481 79.3741471,29.48525 C79.5149811,29.8557519 79.5853971,30.2771643 79.5853971,30.7495 C79.5853971,30.9661677 79.561564,31.111333 79.5138971,31.185 C79.4662302,31.258667 79.3795644,31.2955 79.2538971,31.2955 L74.9963971,31.2955 Z M87.7228971,31.601 C87.2245612,31.6183334 86.8042321,31.6584164 86.4618971,31.72125 C86.119562,31.7840836 85.8422315,31.8642495 85.6298971,31.96175 C85.4175627,32.0592505 85.2648142,32.175166 85.1716471,32.3095 C85.0784799,32.443834 85.0318971,32.5911659 85.0318971,32.7515 C85.0318971,32.9075008 85.0568135,33.0407494 85.1066471,33.15125 C85.1564806,33.2617506 85.2258133,33.3527496 85.3146471,33.42425 C85.4034808,33.4957504 85.5074798,33.5477498 85.6266471,33.58025 C85.7458143,33.6127502 85.8768963,33.629 86.0198971,33.629 C86.3838989,33.629 86.6969791,33.5607507 86.9591471,33.42425 C87.221315,33.2877493 87.4758958,33.0895013 87.7228971,32.8295 L87.7228971,31.601 Z M84.0178971,28.793 C84.7675675,28.0953298 85.6602252,27.7465 86.6958971,27.7465 C87.0772323,27.7465 87.4163122,27.8082494 87.7131471,27.93175 C88.0099819,28.0552506 88.2591461,28.2296655 88.4606471,28.455 C88.6621481,28.6803345 88.8159799,28.9479151 88.9221471,29.25775 C89.0283143,29.5675849 89.0813971,29.9109981 89.0813971,30.288 L89.0813971,34.5 L88.4573971,34.5 C88.3230631,34.5 88.2212307,34.4794169 88.1518971,34.43825 C88.0825634,34.3970831 88.024064,34.3136673 87.9763971,34.188 L87.8398971,33.6485 C87.6708962,33.8001674 87.5040645,33.9355827 87.3393971,34.05475 C87.1747296,34.1739173 87.0046479,34.2746663 86.8291471,34.357 C86.6536462,34.4393337 86.4651481,34.5010831 86.2636471,34.54225 C86.0621461,34.5834169 85.8400649,34.604 85.5973971,34.604 C85.328729,34.604 85.0784816,34.567167 84.8466471,34.4935 C84.6148126,34.419833 84.4143979,34.3082507 84.2453971,34.15875 C84.0763962,34.0092493 83.9431475,33.8240011 83.8456471,33.603 C83.7481466,33.3819989 83.6993971,33.1220015 83.6993971,32.823 C83.6993971,32.5673321 83.7676464,32.3181679 83.9041471,32.0755 C84.0406477,31.8328321 84.2659788,31.6150843 84.5801471,31.42225 C84.8943153,31.2294157 85.3081445,31.0701673 85.8216471,30.9445 C86.3351496,30.8188327 86.9688933,30.7473334 87.7228971,30.73 L87.7228971,30.288 C87.7228971,29.8113309 87.6210647,29.4560012 87.4173971,29.222 C87.2137294,28.9879988 86.9147324,28.871 86.5203971,28.871 C86.251729,28.871 86.026398,28.904583 85.8443971,28.97175 C85.6623961,29.038917 85.5042311,29.1114996 85.3698971,29.1895 C85.2355631,29.2675004 85.1163976,29.340083 85.0123971,29.40725 C84.9083965,29.474417 84.7978976,29.508 84.6808971,29.508 C84.5855632,29.508 84.5043141,29.4830836 84.4371471,29.43325 C84.3699801,29.3834164 84.3147306,29.321667 84.2713971,29.248 L84.0178971,28.793 Z M95.3143971,28.7475 C95.4573978,28.6001659 95.605813,28.4669173 95.7596471,28.34775 C95.9134812,28.2285827 96.0770629,28.1256671 96.2503971,28.039 C96.4237313,27.9523329 96.6078961,27.8851669 96.8028971,27.8375 C96.997898,27.7898331 97.2102292,27.766 97.4398971,27.766 C97.8038989,27.766 98.123479,27.8266661 98.3986471,27.948 C98.6738151,28.0693339 98.9056461,28.2404989 99.0941471,28.4615 C99.282648,28.6825011 99.4245632,28.9479151 99.5198971,29.25775 C99.6152309,29.5675849 99.6628971,29.9088315 99.6628971,30.2815 L99.6628971,34.5 L98.2718971,34.5 L98.2718971,30.2815 C98.2718971,29.8351644 98.1689814,29.4885012 97.9631471,29.2415 C97.7573127,28.9944988 97.4442325,28.871 97.0238971,28.871 C96.7118955,28.871 96.4226484,28.9424993 96.1561471,29.0855 C95.8896457,29.2285007 95.6393982,29.4234988 95.4053971,29.6705 L95.4053971,34.5 L94.0078971,34.5 L94.0078971,27.87 L94.8528971,27.87 C95.0435647,27.87 95.1648968,27.9588324 95.2168971,28.1365 L95.3143971,28.7475 Z M102.785897,27.87 L102.785897,34.5 L101.388397,34.5 L101.388397,27.87 L102.785897,27.87 Z M103.019897,25.868 C103.019897,25.9936673 102.994981,26.1128328 102.945147,26.2255 C102.895313,26.3381672 102.827064,26.4367496 102.740397,26.52125 C102.65373,26.6057504 102.552981,26.6729164 102.438147,26.72275 C102.323313,26.7725836 102.200898,26.7975 102.070897,26.7975 C101.94523,26.7975 101.827148,26.7725836 101.716647,26.72275 C101.606147,26.6729164 101.509731,26.6057504 101.427397,26.52125 C101.345063,26.4367496 101.278981,26.3381672 101.229147,26.2255 C101.179313,26.1128328 101.154397,25.9936673 101.154397,25.868 C101.154397,25.7379993 101.179313,25.6166672 101.229147,25.504 C101.278981,25.3913328 101.345063,25.2927504 101.427397,25.20825 C101.509731,25.1237496 101.606147,25.0565836 101.716647,25.00675 C101.827148,24.9569164 101.94523,24.932 102.070897,24.932 C102.200898,24.932 102.323313,24.9569164 102.438147,25.00675 C102.552981,25.0565836 102.65373,25.1237496 102.740397,25.20825 C102.827064,25.2927504 102.895313,25.3913328 102.945147,25.504 C102.994981,25.6166672 103.019897,25.7379993 103.019897,25.868 Z M109.262897,29.17 C109.219564,29.2263336 109.178397,29.2696665 109.139397,29.3 C109.100397,29.3303335 109.044064,29.3455 108.970397,29.3455 C108.89673,29.3455 108.819814,29.3195003 108.739647,29.2675 C108.65948,29.2154997 108.564148,29.1580836 108.453647,29.09525 C108.343147,29.0324164 108.209898,28.9750003 108.053897,28.923 C107.897896,28.8709997 107.702898,28.845 107.468897,28.845 C107.165562,28.845 106.900148,28.8991661 106.672647,29.0075 C106.445146,29.1158339 106.254481,29.270749 106.100647,29.47225 C105.946813,29.673751 105.831981,29.9185819 105.756147,30.20675 C105.680313,30.4949181 105.642397,30.8188315 105.642397,31.1785 C105.642397,31.5511685 105.683563,31.8826652 105.765897,32.173 C105.848231,32.4633348 105.966313,32.7081657 106.120147,32.9075 C106.273981,33.1068343 106.460313,33.2584995 106.679147,33.3625 C106.897981,33.4665005 107.143896,33.5185 107.416897,33.5185 C107.685565,33.5185 107.904396,33.4860003 108.073397,33.421 C108.242398,33.3559997 108.38323,33.2845004 108.495897,33.2065 C108.608564,33.1284996 108.70498,33.0570003 108.785147,32.992 C108.865314,32.9269997 108.950897,32.8945 109.041897,32.8945 C109.154564,32.8945 109.24123,32.9378329 109.301897,33.0245 L109.698397,33.538 C109.538063,33.733001 109.360398,33.897666 109.165397,34.032 C108.970396,34.166334 108.764565,34.2757496 108.547897,34.36025 C108.331229,34.4447504 108.105898,34.5054165 107.871897,34.54225 C107.637896,34.5790835 107.401732,34.5975 107.163397,34.5975 C106.751728,34.5975 106.367149,34.5205841 106.009647,34.36675 C105.652145,34.2129159 105.340148,33.9897515 105.073647,33.69725 C104.807146,33.4047485 104.596981,33.0472521 104.443147,32.62475 C104.289313,32.2022479 104.212397,31.7201694 104.212397,31.1785 C104.212397,30.6888309 104.28173,30.2349188 104.420397,29.81675 C104.559064,29.3985812 104.761646,29.0378348 105.028147,28.7345 C105.294648,28.4311651 105.625062,28.1939175 106.019397,28.02275 C106.413732,27.8515825 106.868728,27.766 107.384397,27.766 C107.865399,27.766 108.288979,27.8439992 108.655147,28 C109.021316,28.1560008 109.347396,28.3769986 109.633397,28.663 L109.262897,29.17 Z M115.076897,30.4375 C115.076897,30.2034988 115.043314,29.985751 114.976147,29.78425 C114.90898,29.582749 114.810398,29.4072507 114.680397,29.25775 C114.550396,29.1082493 114.388981,28.9912504 114.196147,28.90675 C114.003313,28.8222496 113.781232,28.78 113.529897,28.78 C113.022895,28.78 112.624232,28.9251652 112.333897,29.2155 C112.043562,29.5058348 111.859397,29.913164 111.781397,30.4375 L115.076897,30.4375 Z M111.742397,31.2955 C111.75973,31.6725019 111.81823,31.998582 111.917897,32.27375 C112.017564,32.548918 112.150813,32.7774991 112.317647,32.9595 C112.484481,33.1415009 112.683813,33.2769162 112.915647,33.36575 C113.147482,33.4545838 113.406396,33.499 113.692397,33.499 C113.965398,33.499 114.201563,33.4675836 114.400897,33.40475 C114.600231,33.3419164 114.773563,33.2725837 114.920897,33.19675 C115.068231,33.1209163 115.193897,33.0515836 115.297897,32.98875 C115.401898,32.9259164 115.49723,32.8945 115.583897,32.8945 C115.696564,32.8945 115.78323,32.9378329 115.843897,33.0245 L116.240397,33.538 C116.07573,33.733001 115.889398,33.897666 115.681397,34.032 C115.473396,34.166334 115.252398,34.2757496 115.018397,34.36025 C114.784396,34.4447504 114.543898,34.5054165 114.296897,34.54225 C114.049896,34.5790835 113.809398,34.5975 113.575397,34.5975 C113.116061,34.5975 112.690316,34.5205841 112.298147,34.36675 C111.905978,34.2129159 111.565815,33.9865015 111.277647,33.6875 C110.989479,33.3884985 110.764148,33.0180022 110.601647,32.576 C110.439146,32.1339978 110.357897,31.6248362 110.357897,31.0485 C110.357897,30.5891644 110.43048,30.1601687 110.575647,29.7615 C110.720814,29.3628313 110.928812,29.0161681 111.199647,28.7215 C111.470482,28.4268319 111.799812,28.1939175 112.187647,28.02275 C112.575482,27.8515825 113.014228,27.766 113.503897,27.766 C113.911232,27.766 114.288229,27.8320827 114.634897,27.96425 C114.981565,28.0964173 115.280562,28.2903321 115.531897,28.546 C115.783232,28.8016679 115.979313,29.1147481 116.120147,29.48525 C116.260981,29.8557519 116.331397,30.2771643 116.331397,30.7495 C116.331397,30.9661677 116.307564,31.111333 116.259897,31.185 C116.21223,31.258667 116.125564,31.2955 115.999897,31.2955 L111.742397,31.2955 Z M125.157897,29.5015 C124.962896,29.2501654 124.748398,29.0746672 124.514397,28.975 C124.280396,28.8753328 124.026898,28.8255 123.753897,28.8255 C123.207894,28.8255 122.781065,29.0259147 122.473397,29.42675 C122.165729,29.8275853 122.011897,30.4201627 122.011897,31.2045 C122.011897,31.6118354 122.046563,31.9595819 122.115897,32.24775 C122.185231,32.5359181 122.284896,32.7709991 122.414897,32.953 C122.544898,33.1350009 122.703063,33.2671663 122.889397,33.3495 C123.075731,33.4318337 123.285896,33.473 123.519897,33.473 C123.875232,33.473 124.181812,33.3960841 124.439647,33.24225 C124.697482,33.0884159 124.936896,32.8706681 125.157897,32.589 L125.157897,29.5015 Z M126.555397,24.88 L126.555397,34.5 L125.710397,34.5 C125.524063,34.5 125.404897,34.4111676 125.352897,34.2335 L125.229397,33.512 C124.952062,33.8370016 124.636815,34.0991657 124.283647,34.2985 C123.930479,34.4978343 123.519899,34.5975 123.051897,34.5975 C122.679229,34.5975 122.341232,34.5227507 122.037897,34.37325 C121.734562,34.2237493 121.474565,34.0060014 121.257897,33.72 C121.041229,33.4339986 120.873314,33.0797521 120.754147,32.65725 C120.63498,32.2347479 120.575397,31.7505027 120.575397,31.2045 C120.575397,30.7104975 120.64148,30.2533354 120.773647,29.833 C120.905814,29.4126646 121.095396,29.0475849 121.342397,28.73775 C121.589398,28.4279151 121.889479,28.1852509 122.242647,28.00975 C122.595815,27.8342491 122.991228,27.7465 123.428897,27.7465 C123.818899,27.7465 124.150396,27.8082494 124.423397,27.93175 C124.696398,28.0552506 124.941229,28.2274989 125.157897,28.4485 L125.157897,24.88 L126.555397,24.88 Z M131.829897,31.601 C131.331561,31.6183334 130.911232,31.6584164 130.568897,31.72125 C130.226562,31.7840836 129.949231,31.8642495 129.736897,31.96175 C129.524563,32.0592505 129.371814,32.175166 129.278647,32.3095 C129.18548,32.443834 129.138897,32.5911659 129.138897,32.7515 C129.138897,32.9075008 129.163813,33.0407494 129.213647,33.15125 C129.263481,33.2617506 129.332813,33.3527496 129.421647,33.42425 C129.510481,33.4957504 129.61448,33.5477498 129.733647,33.58025 C129.852814,33.6127502 129.983896,33.629 130.126897,33.629 C130.490899,33.629 130.803979,33.5607507 131.066147,33.42425 C131.328315,33.2877493 131.582896,33.0895013 131.829897,32.8295 L131.829897,31.601 Z M128.124897,28.793 C128.874567,28.0953298 129.767225,27.7465 130.802897,27.7465 C131.184232,27.7465 131.523312,27.8082494 131.820147,27.93175 C132.116982,28.0552506 132.366146,28.2296655 132.567647,28.455 C132.769148,28.6803345 132.92298,28.9479151 133.029147,29.25775 C133.135314,29.5675849 133.188397,29.9109981 133.188397,30.288 L133.188397,34.5 L132.564397,34.5 C132.430063,34.5 132.328231,34.4794169 132.258897,34.43825 C132.189563,34.3970831 132.131064,34.3136673 132.083397,34.188 L131.946897,33.6485 C131.777896,33.8001674 131.611065,33.9355827 131.446397,34.05475 C131.28173,34.1739173 131.111648,34.2746663 130.936147,34.357 C130.760646,34.4393337 130.572148,34.5010831 130.370647,34.54225 C130.169146,34.5834169 129.947065,34.604 129.704397,34.604 C129.435729,34.604 129.185482,34.567167 128.953647,34.4935 C128.721813,34.419833 128.521398,34.3082507 128.352397,34.15875 C128.183396,34.0092493 128.050148,33.8240011 127.952647,33.603 C127.855147,33.3819989 127.806397,33.1220015 127.806397,32.823 C127.806397,32.5673321 127.874646,32.3181679 128.011147,32.0755 C128.147648,31.8328321 128.372979,31.6150843 128.687147,31.42225 C129.001315,31.2294157 129.415144,31.0701673 129.928647,30.9445 C130.44215,30.8188327 131.075893,30.7473334 131.829897,30.73 L131.829897,30.288 C131.829897,29.8113309 131.728065,29.4560012 131.524397,29.222 C131.320729,28.9879988 131.021732,28.871 130.627397,28.871 C130.358729,28.871 130.133398,28.904583 129.951397,28.97175 C129.769396,29.038917 129.611231,29.1114996 129.476897,29.1895 C129.342563,29.2675004 129.223398,29.340083 129.119397,29.40725 C129.015397,29.474417 128.904898,29.508 128.787897,29.508 C128.692563,29.508 128.611314,29.4830836 128.544147,29.43325 C128.47698,29.3834164 128.421731,29.321667 128.378397,29.248 L128.124897,28.793 Z M140.555897,27.87 L136.902897,36.385 C136.85523,36.4846672 136.797814,36.5626664 136.730647,36.619 C136.66348,36.6753336 136.560564,36.7035 136.421897,36.7035 L135.388397,36.7035 L136.610397,34.0515 L133.906397,27.87 L135.121897,27.87 C135.238898,27.87 135.328813,27.8970831 135.391647,27.95125 C135.454481,28.0054169 135.501064,28.069333 135.531397,28.143 L137.110897,31.9065 C137.149897,32.0148339 137.185647,32.1220828 137.218147,32.22825 C137.250647,32.3344172 137.282064,32.4438328 137.312397,32.5565 C137.347064,32.4438328 137.38173,32.3333339 137.416397,32.225 C137.451064,32.1166661 137.490064,32.0083339 137.533397,31.9 L139.047897,28.143 C139.078231,28.0649996 139.129147,28.0000003 139.200647,27.948 C139.272147,27.8959997 139.35123,27.87 139.437897,27.87 L140.555897,27.87 Z M144.331897,33.694 C144.331897,33.5683327 144.354647,33.4502506 144.400147,33.33975 C144.445647,33.2292494 144.50848,33.1328337 144.588647,33.0505 C144.668814,32.9681663 144.764147,32.9031669 144.874647,32.8555 C144.985148,32.8078331 145.10323,32.784 145.228897,32.784 C145.354564,32.784 145.472647,32.8078331 145.583147,32.8555 C145.693648,32.9031669 145.790063,32.9681663 145.872397,33.0505 C145.954731,33.1328337 146.01973,33.2292494 146.067397,33.33975 C146.115064,33.4502506 146.138897,33.5683327 146.138897,33.694 C146.138897,33.8240007 146.115064,33.9431661 146.067397,34.0515 C146.01973,34.1598339 145.954731,34.2551663 145.872397,34.3375 C145.790063,34.4198337 145.693648,34.4837498 145.583147,34.52925 C145.472647,34.5747502 145.354564,34.5975 145.228897,34.5975 C145.10323,34.5975 144.985148,34.5747502 144.874647,34.52925 C144.764147,34.4837498 144.668814,34.4198337 144.588647,34.3375 C144.50848,34.2551663 144.445647,34.1598339 144.400147,34.0515 C144.354647,33.9431661 144.331897,33.8240007 144.331897,33.694 Z M144.331897,28.9555 C144.331897,28.8298327 144.354647,28.7117506 144.400147,28.60125 C144.445647,28.4907494 144.50848,28.3943337 144.588647,28.312 C144.668814,28.2296663 144.764147,28.1646669 144.874647,28.117 C144.985148,28.0693331 145.10323,28.0455 145.228897,28.0455 C145.354564,28.0455 145.472647,28.0693331 145.583147,28.117 C145.693648,28.1646669 145.790063,28.2296663 145.872397,28.312 C145.954731,28.3943337 146.01973,28.4907494 146.067397,28.60125 C146.115064,28.7117506 146.138897,28.8298327 146.138897,28.9555 C146.138897,29.0855007 146.115064,29.2046661 146.067397,29.313 C146.01973,29.4213339 145.954731,29.5166663 145.872397,29.599 C145.790063,29.6813337 145.693648,29.7452498 145.583147,29.79075 C145.472647,29.8362502 145.354564,29.859 145.228897,29.859 C145.10323,29.859 144.985148,29.8362502 144.874647,29.79075 C144.764147,29.7452498 144.668814,29.6813337 144.588647,29.599 C144.50848,29.5166663 144.445647,29.4213339 144.400147,29.313 C144.354647,29.2046661 144.331897,29.0855007 144.331897,28.9555 Z M148.696397,30.418 C148.696397,29.5079954 148.583732,28.619671 148.358397,27.753 C148.133063,26.886329 147.808066,26.0673372 147.383397,25.296 C147.344397,25.2179996 147.320564,25.148667 147.311897,25.088 C147.30323,25.027333 147.30648,24.9742502 147.321647,24.92875 C147.336814,24.8832498 147.360647,24.8453335 147.393147,24.815 C147.425647,24.7846665 147.461397,24.7565001 147.500397,24.7305 L148.124397,24.347 C148.445065,24.8453358 148.718063,25.3414975 148.943397,25.8355 C149.168732,26.3295025 149.352896,26.8267475 149.495897,27.32725 C149.638898,27.8277525 149.742897,28.3347474 149.807897,28.84825 C149.872897,29.3617526 149.905397,29.8849973 149.905397,30.418 C149.905397,30.955336 149.872897,31.4807474 149.807897,31.99425 C149.742897,32.5077526 149.638898,33.0147475 149.495897,33.51525 C149.352896,34.0157525 149.168732,34.5119142 148.943397,35.00375 C148.718063,35.4955858 148.445065,35.9906642 148.124397,36.489 L147.500397,36.1055 C147.461397,36.0794999 147.425647,36.0513335 147.393147,36.021 C147.360647,35.9906665 147.336814,35.9527502 147.321647,35.90725 C147.30648,35.8617498 147.30323,35.808667 147.311897,35.748 C147.320564,35.687333 147.344397,35.6180004 147.383397,35.54 C147.808066,34.7729962 148.133063,33.9550877 148.358397,33.08625 C148.583732,32.2174123 148.696397,31.3280045 148.696397,30.418 Z" id="Haveaniceday:)" fill="#FFFFFF" fill-rule="nonzero"></path>
                </g>
                <polyline id="Path-3" stroke="#138FA5" stroke-width="5" stroke-linecap="round" stroke-linejoin="round" points="218.5 30.7794118 226.845635 38.1543647 218.5 46.4999998"></polyline>
            </g>
        </g>
    </g>
</svg>