<?xml version="1.0" encoding="UTF-8"?>
<svg width="444px" height="133px" viewBox="0 0 444 133" version="1.1" xmlns="http://www.w3.org/2000/svg" xmlns:xlink="http://www.w3.org/1999/xlink">
    <!-- Generator: Sketch 54.1 (76490) - https://sketchapp.com -->
    <title>replace-trending-instructions</title>
    <desc>Created with Sketch.</desc>
    <g id="Page-1" stroke="none" stroke-width="1" fill="none" fill-rule="evenodd">
        <g id="Desktop-Copy-2" transform="translate(-290.000000, -987.000000)">
            <g id="replace-trending-instructions" transform="translate(290.500000, 987.500000)">
                <path d="M12,0 L431,0 C437.627417,-1.21743675e-15 443,5.372583 443,12 L443,90 L0,90 L0,12 C-8.11624501e-16,5.372583 5.372583,1.21743675e-15 12,0 Z" id="Rectangle" fill="#1A2C3C"></path>
                <rect id="Rectangle" fill="#D8D8D8" x="61.0142315" y="10.75" width="374" height="34" rx="4"></rect>
                <path d="M74.538,35.426 C73.606662,35.426 72.8898358,35.163836 72.3875,34.6395 C71.8851642,34.115164 71.634,33.3763381 71.634,32.423 L71.634,25.889 L70.402,25.889 C70.2699993,25.889 70.1563338,25.8468338 70.061,25.7625 C69.9656662,25.6781662 69.918,25.5516675 69.918,25.383 L69.918,24.426 L71.733,24.162 L72.25,20.917 C72.2866669,20.7923327 72.3489996,20.6915004 72.437,20.6145 C72.5250004,20.5374996 72.6423326,20.499 72.789,20.499 L73.999,20.499 L73.999,24.184 L77.112,24.184 L77.112,25.889 L73.999,25.889 L73.999,32.258 C73.999,32.6613354 74.097999,32.9693323 74.296,33.182 C74.494001,33.3946677 74.7579983,33.501 75.088,33.501 C75.2713342,33.501 75.4289993,33.4771669 75.561,33.4295 C75.6930007,33.3818331 75.8066662,33.3305003 75.902,33.2755 C75.9973338,33.2204997 76.079833,33.1691669 76.1495,33.1215 C76.219167,33.0738331 76.2869997,33.05 76.353,33.05 C76.4850007,33.05 76.5913329,33.1233326 76.672,33.27 L77.376,34.425 C77.0093315,34.7476683 76.5766692,34.9951658 76.078,35.1675 C75.5793308,35.3398342 75.0660026,35.426 74.538,35.426 Z M94.7940769,24.03 L91.1970769,35.25 L89.3160769,35.25 C89.0960758,35.25 88.9420774,35.1070014 88.8540769,34.821 L86.6210769,27.836 C86.56241,27.637999 86.5092438,27.440001 86.4615769,27.242 C86.41391,27.043999 86.3717438,26.8496676 86.3350769,26.659 C86.2544099,27.055002 86.1554108,27.450998 86.0380769,27.847 L83.7720769,34.821 C83.6914099,35.1070014 83.5190783,35.25 83.2550769,35.25 L81.4620769,35.25 L77.8650769,24.03 L79.7350769,24.03 C79.9184112,24.03 80.0705763,24.0758329 80.1915769,24.1675 C80.3125775,24.2591671 80.3914101,24.3673327 80.4280769,24.492 L82.2980769,31.026 C82.3714106,31.3266682 82.4355767,31.6181653 82.4905769,31.9005 C82.5455772,32.1828347 82.5950767,32.4633319 82.6390769,32.742 C82.7124106,32.4633319 82.7894099,32.1828347 82.8700769,31.9005 C82.950744,31.6181653 83.0350765,31.3266682 83.1230769,31.026 L85.2240769,24.459 C85.2607438,24.3269993 85.3359097,24.2188338 85.4495769,24.1345 C85.5632442,24.0501662 85.7007428,24.008 85.8620769,24.008 L86.8960769,24.008 C87.0647444,24.008 87.207743,24.0501662 87.3250769,24.1345 C87.4424109,24.2188338 87.5194101,24.3269993 87.5560769,24.459 L89.6020769,31.026 C89.6900774,31.3266682 89.7725765,31.6199986 89.8495769,31.906 C89.9265773,32.1920014 89.9980766,32.4779986 90.0640769,32.764 C90.1154105,32.4853319 90.17041,32.2030014 90.2290769,31.917 C90.2877439,31.6309986 90.3574099,31.3340015 90.4380769,31.026 L92.3410769,24.492 C92.3850772,24.3599993 92.465743,24.2500004 92.5830769,24.162 C92.7004108,24.0739996 92.8434094,24.03 93.0120769,24.03 L94.7940769,24.03 Z M99.0231539,24.03 L99.0231539,35.25 L96.6581539,35.25 L96.6581539,24.03 L99.0231539,24.03 Z M99.4191539,20.642 C99.4191539,20.8546677 99.3769876,21.0563324 99.2926539,21.247 C99.2083201,21.4376676 99.0928213,21.6044993 98.9461539,21.7475 C98.7994865,21.8905007 98.6289882,22.0041662 98.4346539,22.0885 C98.2403196,22.1728338 98.033155,22.215 97.8131539,22.215 C97.6004861,22.215 97.4006548,22.1728338 97.2136539,22.0885 C97.0266529,22.0041662 96.8634879,21.8905007 96.7241539,21.7475 C96.5848198,21.6044993 96.4729876,21.4376676 96.3886539,21.247 C96.3043201,21.0563324 96.2621539,20.8546677 96.2621539,20.642 C96.2621539,20.4219989 96.3043201,20.2166676 96.3886539,20.026 C96.4729876,19.8353324 96.5848198,19.6685007 96.7241539,19.5255 C96.8634879,19.3824993 97.0266529,19.2688338 97.2136539,19.1845 C97.4006548,19.1001662 97.6004861,19.058 97.8131539,19.058 C98.033155,19.058 98.2403196,19.1001662 98.4346539,19.1845 C98.6289882,19.2688338 98.7994865,19.3824993 98.9461539,19.5255 C99.0928213,19.6685007 99.2083201,19.8353324 99.2926539,20.026 C99.3769876,20.2166676 99.4191539,20.4219989 99.4191539,20.642 Z M105.650231,35.426 C104.718893,35.426 104.002067,35.163836 103.499731,34.6395 C102.997395,34.115164 102.746231,33.3763381 102.746231,32.423 L102.746231,25.889 L101.514231,25.889 C101.38223,25.889 101.268565,25.8468338 101.173231,25.7625 C101.077897,25.6781662 101.030231,25.5516675 101.030231,25.383 L101.030231,24.426 L102.845231,24.162 L103.362231,20.917 C103.398898,20.7923327 103.46123,20.6915004 103.549231,20.6145 C103.637231,20.5374996 103.754563,20.499 103.901231,20.499 L105.111231,20.499 L105.111231,24.184 L110.061231,24.184 L110.589231,20.917 C110.618564,20.7923327 110.67723,20.6915004 110.765231,20.6145 C110.853231,20.5374996 110.970563,20.499 111.117231,20.499 L112.327231,20.499 L112.327231,24.184 L115.440231,24.184 L115.440231,25.889 L112.327231,25.889 L112.327231,32.258 C112.327231,32.6613354 112.42623,32.9693323 112.624231,33.182 C112.822232,33.3946677 113.086229,33.501 113.416231,33.501 C113.599565,33.501 113.759063,33.4771669 113.894731,33.4295 C114.030398,33.3818331 114.145897,33.3305003 114.241231,33.2755 C114.336565,33.2204997 114.419064,33.1691669 114.488731,33.1215 C114.558398,33.0738331 114.622564,33.05 114.681231,33.05 C114.761898,33.05 114.824231,33.0664998 114.868231,33.0995 C114.912231,33.1325002 114.959897,33.1893329 115.011231,33.27 L115.715231,34.425 C115.341229,34.7476683 114.906733,34.9951658 114.411731,35.1675 C113.916728,35.3398342 113.405233,35.426 112.877231,35.426 C111.938559,35.426 111.2199,35.163836 110.721231,34.6395 C110.222562,34.115164 109.973231,33.3763381 109.973231,32.423 L109.973231,25.889 L105.111231,25.889 L105.111231,32.258 C105.111231,32.6613354 105.21023,32.9693323 105.408231,33.182 C105.606232,33.3946677 105.870229,33.501 106.200231,33.501 C106.383565,33.501 106.54123,33.4771669 106.673231,33.4295 C106.805231,33.3818331 106.918897,33.3305003 107.014231,33.2755 C107.109565,33.2204997 107.192064,33.1691669 107.261731,33.1215 C107.331398,33.0738331 107.39923,33.05 107.465231,33.05 C107.597231,33.05 107.703564,33.1233326 107.784231,33.27 L108.488231,34.425 C108.121562,34.7476683 107.6889,34.9951658 107.190231,35.1675 C106.691562,35.3398342 106.178233,35.426 105.650231,35.426 Z M124.641308,28.375 C124.641308,27.978998 124.584475,27.6105017 124.470808,27.2695 C124.35714,26.9284983 124.190309,26.6315013 123.970308,26.3785 C123.750307,26.1254987 123.477143,25.9275007 123.150808,25.7845 C122.824473,25.6414993 122.448643,25.57 122.023308,25.57 C121.165303,25.57 120.490644,25.8156642 119.999308,26.307 C119.507972,26.7983358 119.196308,27.4876622 119.064308,28.375 L124.641308,28.375 Z M118.998308,29.827 C119.027641,30.4650032 119.12664,31.016831 119.295308,31.4825 C119.463975,31.948169 119.689473,32.3349985 119.971808,32.643 C120.254142,32.9510015 120.591472,33.1801659 120.983808,33.3305 C121.376143,33.4808341 121.814305,33.556 122.298308,33.556 C122.76031,33.556 123.159973,33.5028339 123.497308,33.3965 C123.834643,33.2901661 124.127973,33.172834 124.377308,33.0445 C124.626642,32.916166 124.839307,32.7988339 125.015308,32.6925 C125.191309,32.5861661 125.35264,32.533 125.499308,32.533 C125.689975,32.533 125.836641,32.6063326 125.939308,32.753 L126.610308,33.622 C126.33164,33.9520016 126.016309,34.2306655 125.664308,34.458 C125.312306,34.6853345 124.93831,34.8704993 124.542308,35.0135 C124.146306,35.1565007 123.73931,35.2591664 123.321308,35.3215 C122.903306,35.3838336 122.49631,35.415 122.100308,35.415 C121.32297,35.415 120.602478,35.2848346 119.938808,35.0245 C119.275138,34.7641654 118.699477,34.3810025 118.211808,33.875 C117.724139,33.3689975 117.342809,32.7420037 117.067808,31.994 C116.792806,31.2459963 116.655308,30.3843382 116.655308,29.409 C116.655308,28.6316628 116.77814,27.90567 117.023808,27.231 C117.269476,26.55633 117.621472,25.9696692 118.079808,25.471 C118.538143,24.9723308 119.095471,24.5781681 119.751808,24.2885 C120.408144,23.9988319 121.150637,23.854 121.979308,23.854 C122.668644,23.854 123.306638,23.9658322 123.893308,24.1895 C124.479977,24.4131678 124.985972,24.7413312 125.411308,25.174 C125.836643,25.6066688 126.168473,26.1364969 126.406808,26.7635 C126.645142,27.3905031 126.764308,28.1036627 126.764308,28.903 C126.764308,29.2696685 126.723975,29.5153327 126.643308,29.64 C126.562641,29.7646673 126.415975,29.827 126.203308,29.827 L118.998308,29.827 Z M131.246385,26.109 C131.598386,25.3976631 132.023715,24.838502 132.522385,24.4315 C133.021054,24.024498 133.618715,23.821 134.315385,23.821 C134.557386,23.821 134.784717,23.8484997 134.997385,23.9035 C135.210052,23.9585003 135.400717,24.0409995 135.569385,24.151 L135.404385,25.933 C135.375051,26.0576673 135.329218,26.1438331 135.266885,26.1915 C135.204551,26.2391669 135.122052,26.263 135.019385,26.263 C134.909384,26.263 134.751719,26.2428335 134.546385,26.2025 C134.34105,26.1621665 134.124719,26.142 133.897385,26.142 C133.567383,26.142 133.275886,26.1896662 133.022885,26.285 C132.769883,26.3803338 132.542552,26.5196658 132.340885,26.703 C132.139217,26.8863343 131.961385,27.1099987 131.807385,27.374 C131.653384,27.6380013 131.510385,27.938665 131.378385,28.276 L131.378385,35.25 L129.013385,35.25 L129.013385,24.03 L130.388385,24.03 C130.637719,24.03 130.810051,24.0758329 130.905385,24.1675 C131.000718,24.2591671 131.066718,24.4186655 131.103385,24.646 L131.246385,26.109 Z M135.948462,33.886 C135.948462,33.6733323 135.986961,33.4735009 136.063962,33.2865 C136.140962,33.0994991 136.247294,32.936334 136.382962,32.797 C136.518629,32.657666 136.679961,32.5476671 136.866962,32.467 C137.053963,32.3863329 137.253794,32.346 137.466462,32.346 C137.679129,32.346 137.878961,32.3863329 138.065962,32.467 C138.252963,32.5476671 138.416128,32.657666 138.555462,32.797 C138.694796,32.936334 138.804795,33.0994991 138.885462,33.2865 C138.966129,33.4735009 139.006462,33.6733323 139.006462,33.886 C139.006462,34.1060011 138.966129,34.3076657 138.885462,34.491 C138.804795,34.6743343 138.694796,34.835666 138.555462,34.975 C138.416128,35.114334 138.252963,35.2224996 138.065962,35.2995 C137.878961,35.3765004 137.679129,35.415 137.466462,35.415 C137.253794,35.415 137.053963,35.3765004 136.866962,35.2995 C136.679961,35.2224996 136.518629,35.114334 136.382962,34.975 C136.247294,34.835666 136.140962,34.6743343 136.063962,34.491 C135.986961,34.3076657 135.948462,34.1060011 135.948462,33.886 Z M149.494539,26.23 C149.421205,26.3253338 149.351539,26.3986664 149.285539,26.45 C149.219538,26.5013336 149.124206,26.527 148.999539,26.527 C148.874871,26.527 148.744706,26.4830004 148.609039,26.395 C148.473371,26.3069996 148.312039,26.2098339 148.125039,26.1035 C147.938038,25.9971661 147.71254,25.9000004 147.448539,25.812 C147.184537,25.7239996 146.85454,25.68 146.458539,25.68 C145.945203,25.68 145.49604,25.7716658 145.111039,25.955 C144.726037,26.1383342 144.403373,26.4004983 144.143039,26.7415 C143.882704,27.0825017 143.688372,27.4968309 143.560039,27.9845 C143.431705,28.4721691 143.367539,29.0203303 143.367539,29.629 C143.367539,30.2596698 143.437204,30.8206642 143.576539,31.312 C143.715873,31.8033358 143.915704,32.217665 144.176039,32.555 C144.436373,32.892335 144.751703,33.1489991 145.122039,33.325 C145.492374,33.5010009 145.908536,33.589 146.370539,33.589 C146.825207,33.589 147.195537,33.5340006 147.481539,33.424 C147.76754,33.3139994 148.005871,33.1930007 148.196539,33.061 C148.387206,32.9289993 148.550371,32.8080006 148.686039,32.698 C148.821706,32.5879994 148.966538,32.533 149.120539,32.533 C149.311206,32.533 149.457871,32.6063326 149.560539,32.753 L150.231539,33.622 C149.960204,33.9520016 149.65954,34.2306655 149.329539,34.458 C148.999537,34.6853345 148.651207,34.8704993 148.284539,35.0135 C147.91787,35.1565007 147.53654,35.2591664 147.140539,35.3215 C146.744537,35.3838336 146.344874,35.415 145.941539,35.415 C145.244868,35.415 144.594042,35.2848346 143.989039,35.0245 C143.384035,34.7641654 142.856041,34.3865025 142.405039,33.8915 C141.954036,33.3964975 141.598373,32.7915036 141.338039,32.0765 C141.077704,31.3614964 140.947539,30.5456713 140.947539,29.629 C140.947539,28.8003292 141.064871,28.0321702 141.299539,27.3245 C141.534206,26.6168298 141.877036,26.0063359 142.328039,25.493 C142.779041,24.9796641 143.338202,24.5781681 144.005539,24.2885 C144.672875,23.9988319 145.442867,23.854 146.315539,23.854 C147.129543,23.854 147.846369,23.9859987 148.466039,24.25 C149.085708,24.5140013 149.637536,24.8879976 150.121539,25.372 L149.494539,26.23 Z M156.825615,23.854 C157.654286,23.854 158.404112,23.9896653 159.075115,24.261 C159.746119,24.5323347 160.318113,24.9173308 160.791115,25.416 C161.264118,25.9146692 161.628947,26.5196631 161.885615,27.231 C162.142283,27.9423369 162.270615,28.7416622 162.270615,29.629 C162.270615,30.5163378 162.142283,31.3156631 161.885615,32.027 C161.628947,32.7383369 161.264118,33.3451642 160.791115,33.8475 C160.318113,34.3498358 159.746119,34.7366653 159.075115,35.008 C158.404112,35.2793347 157.654286,35.415 156.825615,35.415 C155.989611,35.415 155.236119,35.2793347 154.565115,35.008 C153.894112,34.7366653 153.320284,34.3498358 152.843615,33.8475 C152.366946,33.3451642 152.000283,32.7383369 151.743615,32.027 C151.486947,31.3156631 151.358615,30.5163378 151.358615,29.629 C151.358615,28.7416622 151.486947,27.9423369 151.743615,27.231 C152.000283,26.5196631 152.366946,25.9146692 152.843615,25.416 C153.320284,24.9173308 153.894112,24.5323347 154.565115,24.261 C155.236119,23.9896653 155.989611,23.854 156.825615,23.854 Z M156.825615,33.567 C157.83762,33.567 158.591113,33.2278367 159.086115,32.5495 C159.581118,31.8711633 159.828615,30.9013396 159.828615,29.64 C159.828615,28.3786604 159.581118,27.4051701 159.086115,26.7195 C158.591113,26.0338299 157.83762,25.691 156.825615,25.691 C155.798944,25.691 155.036285,26.0338299 154.537615,26.7195 C154.038946,27.4051701 153.789615,28.3786604 153.789615,29.64 C153.789615,30.9013396 154.038946,31.8711633 154.537615,32.5495 C155.036285,33.2278367 155.798944,33.567 156.825615,33.567 Z M164.585692,35.25 L164.585692,24.03 L166.015692,24.03 C166.338361,24.03 166.543692,24.1803318 166.631692,24.481 L166.785692,25.46 C166.991027,25.2253322 167.203691,25.0108343 167.423692,24.8165 C167.643693,24.6221657 167.880191,24.4535007 168.133192,24.3105 C168.386194,24.1674993 168.657524,24.0556671 168.947192,23.975 C169.23686,23.8943329 169.550357,23.854 169.887692,23.854 C170.247028,23.854 170.577024,23.9053328 170.877692,24.008 C171.178361,24.1106672 171.444191,24.2573324 171.675192,24.448 C171.906194,24.6386676 172.106025,24.8696653 172.274692,25.141 C172.44336,25.4123347 172.582692,25.716665 172.692692,26.054 C172.86136,25.6653314 173.074024,25.3316681 173.330692,25.053 C173.58736,24.7743319 173.873357,24.5470009 174.188692,24.371 C174.504027,24.1949991 174.839524,24.0648338 175.195192,23.9805 C175.550861,23.8961662 175.912024,23.854 176.278692,23.854 C176.880029,23.854 177.41719,23.9493324 177.890192,24.14 C178.363195,24.3306676 178.762857,24.6074982 179.089192,24.9705 C179.415527,25.3335018 179.663025,25.7789974 179.831692,26.307 C180.00036,26.8350026 180.084692,27.43633 180.084692,28.111 L180.084692,35.25 L177.719692,35.25 L177.719692,28.111 C177.719692,27.318996 177.549194,26.7231687 177.208192,26.3235 C176.867191,25.9238313 176.363029,25.724 175.695692,25.724 C175.395024,25.724 175.112694,25.7753328 174.848692,25.878 C174.584691,25.9806672 174.353693,26.130999 174.155692,26.329 C173.957691,26.527001 173.80186,26.7744985 173.688192,27.0715 C173.574525,27.3685015 173.517692,27.714998 173.517692,28.111 L173.517692,35.25 L171.152692,35.25 L171.152692,28.111 C171.152692,27.2896626 170.987694,26.6865019 170.657692,26.3015 C170.327691,25.9164981 169.843696,25.724 169.205692,25.724 C168.76569,25.724 168.358694,25.8358322 167.984692,26.0595 C167.61069,26.2831678 167.266027,26.5893314 166.950692,26.978 L166.950692,35.25 L164.585692,35.25 Z" id="twiter.com" fill="#404544" fill-rule="nonzero"></path>
                <path d="M10.0278068,29.09 L14.6598068,24.466 L15.2518068,25.074 C15.374474,25.2020006 15.4238069,25.328666 15.3998068,25.454 C15.3758066,25.579334 15.3078073,25.6979994 15.1958068,25.81 L13.2358068,27.762 C12.958472,28.0393347 12.7051412,28.2686658 12.4758068,28.45 C12.7851416,28.4073331 13.111805,28.3740001 13.4558068,28.35 C13.7998085,28.3259999 14.147805,28.314 14.4998068,28.314 L24.3158068,28.314 L24.3158068,29.874 L14.4998068,29.874 C14.1424716,29.874 13.7918085,29.8633334 13.4478068,29.842 C13.103805,29.8206666 12.7771416,29.7886669 12.4678068,29.746 C12.5851407,29.8366671 12.7064728,29.9379994 12.8318068,30.05 C12.9571407,30.1620006 13.091806,30.2873326 13.2358068,30.426 L15.2118068,32.394 C15.3238073,32.5060006 15.3918066,32.624666 15.4158068,32.75 C15.4398069,32.875334 15.390474,32.9993327 15.2678068,33.122 L14.6758068,33.738 L10.0278068,29.09 Z" id="←" fill="#FFFFFF" fill-rule="nonzero"></path>
                <path d="M424.324,30.778 C424.516001,30.970001 424.612,31.1886654 424.612,31.434 C424.612,31.6686678 424.521334,31.8793324 424.34,32.066 C424.158666,32.2526676 423.945335,32.346 423.7,32.346 C423.433332,32.346 423.204001,32.2340011 423.012,32.01 L420.756,29.514 L418.5,32.01 C418.297332,32.2233344 418.068001,32.33 417.812,32.33 C417.577332,32.33 417.369334,32.2393342 417.188,32.058 C417.006666,31.8766658 416.916,31.6686678 416.916,31.434 C416.916,31.1886654 417.011999,30.970001 417.204,30.778 L419.54,28.234 L417.332,25.834 C417.139999,25.641999 417.044,25.4233346 417.044,25.178 C417.044,24.9326654 417.134666,24.7220009 417.316,24.546 C417.497334,24.3699991 417.705332,24.282 417.94,24.282 C418.196001,24.282 418.425332,24.3886656 418.628,24.602 L420.756,26.938 L422.884,24.602 C423.086668,24.3886656 423.315999,24.282 423.572,24.282 C423.817335,24.282 424.027999,24.3699991 424.204,24.546 C424.380001,24.7220009 424.468,24.9326654 424.468,25.178 C424.468,25.4233346 424.372001,25.641999 424.18,25.834 L421.972,28.234 L424.324,30.778 Z" id="x" fill="#404544" fill-rule="nonzero"></path>
                <path d="M48.772,26.493 L43.404,22.61 L38.014,26.493 L38.014,34.479 L48.772,34.479 L48.772,26.493 Z M50.532,25.536 L50.532,36.25 L36.254,36.25 L36.254,25.536 L43.382,20.377 L43.393,20.366 L50.532,25.536 Z" id="⌂" fill="#FFFFFF" fill-rule="nonzero" transform="translate(43.393000, 28.308000) scale(-1, 1) translate(-43.393000, -28.308000) "></path>
                <path d="M30.948,64.17 L27.812,74.25 L26.335,74.25 L23.969,67.012 C23.9409999,66.9326663 23.9141668,66.8463338 23.8885,66.753 C23.8628332,66.6596662 23.8383335,66.5593339 23.815,66.452 C23.7916666,66.5593339 23.7671668,66.6596662 23.7415,66.753 C23.7158332,66.8463338 23.6890001,66.9326663 23.661,67.012 L21.274,74.25 L19.797,74.25 L16.661,64.17 L18.033,64.17 C18.1730007,64.17 18.2908329,64.203833 18.3865,64.2715 C18.4821671,64.339167 18.5463332,64.4313327 18.579,64.548 L20.469,71.009 C20.5063335,71.1490007 20.5413332,71.3006659 20.574,71.464 C20.6066668,71.6273341 20.6393332,71.7976658 20.672,71.975 C20.7046668,71.7976658 20.7408331,71.6261675 20.7805,71.4605 C20.8201669,71.2948325 20.8633331,71.144334 20.91,71.009 L23.073,64.548 C23.1056668,64.4546662 23.1709995,64.3683337 23.269,64.289 C23.3670005,64.2096663 23.483666,64.17 23.619,64.17 L24.095,64.17 C24.2396674,64.17 24.3563329,64.2061663 24.445,64.2785 C24.5336671,64.3508337 24.6013331,64.4406661 24.648,64.548 L26.804,71.009 C26.8506669,71.144334 26.8938331,71.2901659 26.9335,71.4465 C26.9731669,71.6028341 27.0093332,71.7673325 27.042,71.94 C27.0746668,71.7673325 27.1061665,71.6028341 27.1365,71.4465 C27.1668335,71.2901659 27.2006665,71.144334 27.238,71.009 L29.121,64.548 C29.1490001,64.4453328 29.2131662,64.356667 29.3135,64.282 C29.4138338,64.207333 29.531666,64.17 29.667,64.17 L30.948,64.17 Z M34.3182308,66.998 C34.8455667,66.998 35.3227286,67.0843325 35.7497308,67.257 C36.1767329,67.4296675 36.5407293,67.6746651 36.8417308,67.992 C37.1427323,68.3093349 37.3748966,68.6943311 37.5382308,69.147 C37.7015649,69.5996689 37.7832308,70.1083305 37.7832308,70.673 C37.7832308,71.2376695 37.7015649,71.7463311 37.5382308,72.199 C37.3748966,72.6516689 37.1427323,73.0378317 36.8417308,73.3575 C36.5407293,73.6771683 36.1767329,73.9233325 35.7497308,74.096 C35.3227286,74.2686675 34.8455667,74.355 34.3182308,74.355 C33.7862281,74.355 33.3067329,74.2686675 32.8797308,74.096 C32.4527286,73.9233325 32.0875656,73.6771683 31.7842308,73.3575 C31.4808959,73.0378317 31.2475649,72.6516689 31.0842308,72.199 C30.9208966,71.7463311 30.8392308,71.2376695 30.8392308,70.673 C30.8392308,70.1083305 30.9208966,69.5996689 31.0842308,69.147 C31.2475649,68.6943311 31.4808959,68.3093349 31.7842308,67.992 C32.0875656,67.6746651 32.4527286,67.4296675 32.8797308,67.257 C33.3067329,67.0843325 33.7862281,66.998 34.3182308,66.998 Z M34.3182308,73.179 C34.962234,73.179 35.4417292,72.9631688 35.7567308,72.5315 C36.0717323,72.0998312 36.2292308,71.4826707 36.2292308,70.68 C36.2292308,69.8773293 36.0717323,69.2578355 35.7567308,68.8215 C35.4417292,68.3851645 34.962234,68.167 34.3182308,68.167 C33.6648942,68.167 33.1795657,68.3851645 32.8622308,68.8215 C32.5448958,69.2578355 32.3862308,69.8773293 32.3862308,70.68 C32.3862308,71.4826707 32.5448958,72.0998312 32.8622308,72.5315 C33.1795657,72.9631688 33.6648942,73.179 34.3182308,73.179 Z M40.6774615,68.433 C40.9014626,67.9803311 41.1721266,67.6245013 41.4894615,67.3655 C41.8067964,67.1064987 42.187126,66.977 42.6304615,66.977 C42.7844623,66.977 42.9291275,66.9944998 43.0644615,67.0295 C43.1997955,67.0645002 43.3211277,67.1169996 43.4284615,67.187 L43.3234615,68.321 C43.3047948,68.4003337 43.2756284,68.4551665 43.2359615,68.4855 C43.1962947,68.5158335 43.1437952,68.531 43.0784615,68.531 C43.0084612,68.531 42.9081288,68.5181668 42.7774615,68.4925 C42.6467942,68.4668332 42.5091289,68.454 42.3644615,68.454 C42.1544605,68.454 41.9689623,68.484333 41.8079615,68.545 C41.6469607,68.605667 41.5022955,68.6943328 41.3739615,68.811 C41.2456276,68.9276672 41.132462,69.0699992 41.0344615,69.238 C40.936461,69.4060008 40.8454619,69.5973323 40.7614615,69.812 L40.7614615,74.25 L39.2564615,74.25 L39.2564615,67.11 L40.1314615,67.11 C40.290129,67.11 40.3997946,67.1391664 40.4604615,67.1975 C40.5211285,67.2558336 40.5631281,67.3573326 40.5864615,67.502 L40.6774615,68.433 Z M45.9586923,63.89 L45.9586923,69.896 L46.2806923,69.896 C46.3833595,69.896 46.4673586,69.8820001 46.5326923,69.854 C46.598026,69.8259999 46.6656919,69.7676671 46.7356923,69.679 L48.7376923,67.39 C48.8076926,67.2966662 48.8846919,67.2266669 48.9686923,67.18 C49.0526927,67.1333331 49.160025,67.11 49.2906923,67.11 L50.6556923,67.11 L48.2476923,69.826 C48.1076916,70.0080009 47.9536931,70.1526661 47.7856923,70.26 C47.8790261,70.3253337 47.9606919,70.3988329 48.0306923,70.4805 C48.1006926,70.5621671 48.1683586,70.6543328 48.2336923,70.757 L50.8026923,74.25 L49.4586923,74.25 C49.3373584,74.25 49.2335261,74.2301669 49.1471923,74.1905 C49.0608585,74.1508331 48.985026,74.0773339 48.9196923,73.97 L46.8546923,71.17 C46.7846919,71.0626661 46.7146926,70.9938335 46.6446923,70.9635 C46.5746919,70.9331665 46.469693,70.918 46.3296923,70.918 L45.9586923,70.918 L45.9586923,74.25 L44.4536923,74.25 L44.4536923,63.89 L45.9586923,63.89 Z M60.8611538,65.892 C60.8098202,65.9760004 60.7561541,66.0378331 60.7001538,66.0775 C60.6441535,66.1171669 60.5741542,66.137 60.4901538,66.137 C60.4014867,66.137 60.302321,66.099667 60.1926538,66.025 C60.0829866,65.950333 59.9476546,65.8675005 59.7866538,65.7765 C59.625653,65.6854995 59.4354883,65.6015004 59.2161538,65.5245 C58.9968194,65.4474996 58.7354887,65.409 58.4321538,65.409 C58.1521524,65.409 57.9059882,65.4439996 57.6936538,65.514 C57.4813194,65.5840003 57.3028212,65.6819994 57.1581538,65.808 C57.0134864,65.9340006 56.9049875,66.0821658 56.8326538,66.2525 C56.7603201,66.4228342 56.7241538,66.6083323 56.7241538,66.809 C56.7241538,67.065668 56.7918198,67.2791658 56.9271538,67.4495 C57.0624878,67.6198342 57.240986,67.7656661 57.4626538,67.887 C57.6843216,68.0083339 57.9374857,68.1144995 58.2221538,68.2055 C58.5068219,68.2965005 58.797319,68.3933328 59.0936538,68.496 C59.3899886,68.5986672 59.6804857,68.7153327 59.9651538,68.846 C60.2498219,68.9766673 60.502986,69.1423323 60.7246538,69.343 C60.9463216,69.5436677 61.1248198,69.7886652 61.2601538,70.078 C61.3954878,70.3673348 61.4631538,70.7196646 61.4631538,71.135 C61.4631538,71.5830022 61.3861546,72.002998 61.2321538,72.395 C61.0781531,72.787002 60.8553219,73.1288319 60.5636538,73.4205 C60.2719857,73.7121681 59.912656,73.9419992 59.4856538,74.11 C59.0586517,74.2780008 58.5721566,74.362 58.0261538,74.362 C57.7041522,74.362 57.390322,74.3305003 57.0846538,74.2675 C56.7789856,74.2044997 56.4873219,74.1158339 56.2096538,74.0015 C55.9319858,73.8871661 55.6718217,73.7483342 55.4291538,73.585 C55.1864859,73.4216658 54.9694881,73.2396677 54.7781538,73.039 L55.2541538,72.255 C55.296154,72.1896663 55.3498202,72.1383335 55.4151538,72.101 C55.4804875,72.0636665 55.5528201,72.045 55.6321538,72.045 C55.7394877,72.045 55.8584865,72.0951662 55.9891538,72.1955 C56.1198211,72.2958338 56.2773196,72.4054994 56.4616538,72.5245 C56.6459881,72.6435006 56.8688192,72.7531662 57.1301538,72.8535 C57.3914885,72.9538338 57.704152,73.004 58.0681538,73.004 C58.6608235,73.004 59.1193189,72.8593348 59.4436538,72.57 C59.7679888,72.2806652 59.9301538,71.8816692 59.9301538,71.373 C59.9301538,71.0883319 59.8624878,70.8561676 59.7271538,70.6765 C59.5918198,70.4968324 59.4133216,70.3463339 59.1916538,70.225 C58.969986,70.1036661 58.7168219,70.0010004 58.4321538,69.917 C58.1474857,69.8329996 57.8581553,69.7431671 57.5641538,69.6475 C57.2701524,69.5518329 56.9808219,69.439834 56.6961538,69.3115 C56.4114857,69.183166 56.1583216,69.0151677 55.9366538,68.8075 C55.714986,68.5998323 55.5364878,68.3431682 55.4011538,68.0375 C55.2658198,67.7318318 55.1981538,67.3503356 55.1981538,66.893 C55.1981538,66.5289982 55.2693198,66.1766684 55.4116538,65.836 C55.5539879,65.4953316 55.7616525,65.193168 56.0346538,64.9295 C56.3076552,64.665832 56.6448185,64.4546675 57.0461538,64.296 C57.4474892,64.1373325 57.9048179,64.058 58.4181538,64.058 C58.9968234,64.058 59.5276514,64.1489991 60.0106538,64.331 C60.4936562,64.5130009 60.9101521,64.7719983 61.2601538,65.108 L60.8611538,65.892 Z M64.9523846,74.362 C64.359715,74.362 63.9035529,74.1951683 63.5838846,73.8615 C63.2642163,73.5278317 63.1043846,73.0576697 63.1043846,72.451 L63.1043846,68.293 L62.3203846,68.293 C62.2363842,68.293 62.1640516,68.2661669 62.1033846,68.2125 C62.0427176,68.1588331 62.0123846,68.0783339 62.0123846,67.971 L62.0123846,67.362 L63.1673846,67.194 L63.4963846,65.129 C63.519718,65.0496663 63.5593843,64.9855002 63.6153846,64.9365 C63.6713849,64.8874998 63.7460508,64.863 63.8393846,64.863 L64.6093846,64.863 L64.6093846,67.208 L66.5903846,67.208 L66.5903846,68.293 L64.6093846,68.293 L64.6093846,72.346 C64.6093846,72.6026679 64.672384,72.798666 64.7983846,72.934 C64.9243852,73.069334 65.0923835,73.137 65.3023846,73.137 C65.4190518,73.137 65.5193842,73.1218335 65.6033846,73.0915 C65.687385,73.0611665 65.7597176,73.0285002 65.8203846,72.9935 C65.8810516,72.9584998 65.933551,72.9258335 65.9778846,72.8955 C66.0222181,72.8651665 66.0653844,72.85 66.1073846,72.85 C66.191385,72.85 66.259051,72.8966662 66.3103846,72.99 L66.7583846,73.725 C66.5250501,73.9303344 66.2497195,74.0878328 65.9323846,74.1975 C65.6150497,74.3071672 65.2883863,74.362 64.9523846,74.362 Z M73.8316154,67.11 L73.8316154,74.25 L72.9216154,74.25 C72.7209477,74.25 72.5926156,74.1543343 72.5366154,73.963 L72.4246154,73.298 C72.2752813,73.4566675 72.1177828,73.6013327 71.9521154,73.732 C71.7864479,73.8626673 71.610283,73.9746662 71.4236154,74.068 C71.2369478,74.1613338 71.0374497,74.2336664 70.8251154,74.285 C70.612781,74.3363336 70.3852832,74.362 70.1426154,74.362 C69.7506134,74.362 69.4052835,74.2966673 69.1066154,74.166 C68.8079472,74.0353327 68.5571164,73.8510012 68.3541154,73.613 C68.1511143,73.3749988 67.9982825,73.0891683 67.8956154,72.7555 C67.7929482,72.4218317 67.7416154,72.0543353 67.7416154,71.653 L67.7416154,67.11 L69.2466154,67.11 L69.2466154,71.653 C69.2466154,72.1336691 69.3574476,72.5069987 69.5791154,72.773 C69.8007831,73.0390013 70.1379464,73.172 70.5906154,73.172 C70.9219503,73.172 71.2311139,73.0961674 71.5181154,72.9445 C71.8051168,72.7928326 72.0746141,72.5840013 72.3266154,72.318 L72.3266154,67.11 L73.8316154,67.11 Z M76.1798461,74.25 L76.1798461,68.307 L75.4798461,68.209 C75.3631789,68.1856666 75.2686798,68.143667 75.1963461,68.083 C75.1240124,68.022333 75.0878461,67.9360006 75.0878461,67.824 L75.0878461,67.208 L76.1798461,67.208 L76.1798461,66.725 C76.1798461,66.3143313 76.2393455,65.9480016 76.3583461,65.626 C76.4773467,65.3039984 76.6476783,65.0310011 76.8693461,64.807 C77.0910139,64.5829989 77.3605112,64.4126672 77.6778461,64.296 C77.995181,64.1793328 78.3521775,64.121 78.7488461,64.121 C78.9121803,64.121 79.0673454,64.1326665 79.2143461,64.156 C79.3613469,64.1793335 79.5048454,64.2119998 79.6448461,64.254 L79.6168461,65.017 C79.6075127,65.1383339 79.54568,65.2118332 79.4313461,65.2375 C79.3170122,65.2631668 79.1735136,65.276 79.0008461,65.276 C78.7908451,65.276 78.601847,65.3004998 78.4338461,65.3495 C78.2658453,65.3985002 78.1223467,65.4813328 78.0033461,65.598 C77.8843455,65.7146673 77.7933464,65.8686657 77.7303461,66.06 C77.6673458,66.2513343 77.6358461,66.4869986 77.6358461,66.767 L77.6358461,67.208 L80.6598461,67.208 L80.6598461,66.515 C80.6598461,66.1043313 80.7193455,65.7380016 80.8383461,65.416 C80.9573467,65.0939984 81.1276783,64.8210011 81.3493461,64.597 C81.5710139,64.3729989 81.8405112,64.2026673 82.1578461,64.086 C82.475181,63.9693327 82.8298442,63.911 83.2218461,63.911 C83.3851803,63.911 83.541512,63.9226666 83.6908461,63.946 C83.8401802,63.9693335 83.9848454,64.0019998 84.1248461,64.044 L84.0898461,64.807 C84.0805127,64.9283339 84.01868,65.0018332 83.9043461,65.0275 C83.7900122,65.0531668 83.6465136,65.066 83.4738461,65.066 C83.2638451,65.066 83.074847,65.0904998 82.9068461,65.1395 C82.7388453,65.1885002 82.5953467,65.2713327 82.4763461,65.388 C82.3573455,65.5046672 82.2663464,65.6586657 82.2033461,65.85 C82.1403458,66.0413343 82.1088461,66.2769986 82.1088461,66.557 L82.1088461,67.208 L84.0618461,67.208 L84.0618461,68.293 L82.1578461,68.293 L82.1578461,74.25 L80.6598461,74.25 L80.6598461,68.293 L77.6848461,68.293 L77.6848461,74.25 L76.1798461,74.25 Z" id="WorkStuf" fill="#4A5865" fill-rule="nonzero"></path>
                <path d="M245.623,69 C245.996335,69 246.322999,68.9545005 246.603,68.8635 C246.883001,68.7724995 247.116332,68.6453341 247.303,68.482 C247.489668,68.3186659 247.629666,68.1238345 247.723,67.8975 C247.816334,67.6711655 247.863,67.4203347 247.863,67.145 C247.863,66.5943306 247.681002,66.1743348 247.317,65.885 C246.952998,65.5956652 246.402337,65.451 245.665,65.451 L244.335,65.451 L244.335,69 L245.623,69 Z M250.369,74.25 L248.906,74.25 C248.616665,74.25 248.406667,74.1380011 248.276,73.914 L245.924,70.519 C245.844666,70.4023327 245.758334,70.3183336 245.665,70.267 C245.571666,70.2156664 245.431668,70.19 245.245,70.19 L244.335,70.19 L244.335,74.25 L242.697,74.25 L242.697,64.17 L245.665,64.17 C246.32767,64.17 246.898164,64.237666 247.3765,64.373 C247.854836,64.508334 248.247998,64.7008321 248.556,64.9505 C248.864002,65.2001679 249.091499,65.4999983 249.2385,65.85 C249.385501,66.2000017 249.459,66.5896645 249.459,67.019 C249.459,67.3690017 249.406501,67.6956651 249.3015,67.999 C249.196499,68.3023348 249.044834,68.5776654 248.8465,68.825 C248.648166,69.0723346 248.404335,69.2869991 248.115,69.469 C247.825665,69.6510009 247.496669,69.7933328 247.128,69.896 C247.328668,70.0173339 247.501333,70.1876656 247.646,70.407 L250.369,74.25 Z M255.041231,71.128 C254.504561,71.1466668 254.051899,71.189833 253.683231,71.2575 C253.314562,71.325167 253.015899,71.4114995 252.787231,71.5165 C252.558563,71.6215005 252.394065,71.7463326 252.293731,71.891 C252.193397,72.0356674 252.143231,72.1943325 252.143231,72.367 C252.143231,72.5350008 252.170064,72.6784994 252.223731,72.7975 C252.277398,72.9165006 252.352064,73.0144996 252.447731,73.0915 C252.543398,73.1685004 252.655397,73.2244998 252.783731,73.2595 C252.912065,73.2945002 253.05323,73.312 253.207231,73.312 C253.599233,73.312 253.936396,73.2385007 254.218731,73.0915 C254.501066,72.9444993 254.775229,72.7310014 255.041231,72.451 L255.041231,71.128 Z M251.051231,68.104 C251.858568,67.3526629 252.819892,66.977 253.935231,66.977 C254.345899,66.977 254.711062,67.0434993 255.030731,67.1765 C255.350399,67.3095007 255.61873,67.4973321 255.835731,67.74 C256.052732,67.9826679 256.218397,68.2708317 256.332731,68.6045 C256.447065,68.9381683 256.504231,69.307998 256.504231,69.714 L256.504231,74.25 L255.832231,74.25 C255.687563,74.25 255.577898,74.2278336 255.503231,74.1835 C255.428564,74.1391664 255.365564,74.049334 255.314231,73.914 L255.167231,73.333 C254.98523,73.4963341 254.805565,73.642166 254.628231,73.7705 C254.450897,73.898834 254.267732,74.0073329 254.078731,74.096 C253.88973,74.1846671 253.686732,74.2511664 253.469731,74.2955 C253.25273,74.3398336 253.013565,74.362 252.752231,74.362 C252.462896,74.362 252.193399,74.3223337 251.943731,74.243 C251.694063,74.1636663 251.478232,74.0435008 251.296231,73.8825 C251.11423,73.7214992 250.970731,73.5220012 250.865731,73.284 C250.76073,73.0459988 250.708231,72.7660016 250.708231,72.444 C250.708231,72.1686653 250.78173,71.9003346 250.928731,71.639 C251.075731,71.3776654 251.318396,71.1431677 251.656731,70.9355 C251.995066,70.7278323 252.440728,70.556334 252.993731,70.421 C253.546734,70.285666 254.229227,70.2086668 255.041231,70.19 L255.041231,69.714 C255.041231,69.2006641 254.931565,68.8180013 254.712231,68.566 C254.492896,68.3139987 254.1709,68.188 253.746231,68.188 C253.456896,68.188 253.214232,68.2241663 253.018231,68.2965 C252.82223,68.3688337 252.651898,68.4469996 252.507231,68.531 C252.362563,68.6150004 252.234231,68.6931663 252.122231,68.7655 C252.01023,68.8378337 251.891231,68.874 251.765231,68.874 C251.662564,68.874 251.575064,68.8471669 251.502731,68.7935 C251.430397,68.7398331 251.370898,68.6733337 251.324231,68.594 L251.051231,68.104 Z M262.849462,68.867 C262.63946,68.596332 262.408463,68.4073339 262.156462,68.3 C261.90446,68.1926661 261.631463,68.139 261.337462,68.139 C260.749459,68.139 260.289797,68.3548312 259.958462,68.7865 C259.627127,69.2181688 259.461462,69.8563291 259.461462,70.701 C259.461462,71.1396689 259.498794,71.5141651 259.573462,71.8245 C259.648129,72.1348349 259.755461,72.387999 259.895462,72.584 C260.035462,72.780001 260.205794,72.9223329 260.406462,73.011 C260.607129,73.0996671 260.83346,73.144 261.085462,73.144 C261.46813,73.144 261.798293,73.0611675 262.075962,72.8955 C262.35363,72.7298325 262.61146,72.4953349 262.849462,72.192 L262.849462,68.867 Z M264.354462,63.89 L264.354462,74.25 L263.444462,74.25 C263.243794,74.25 263.115462,74.1543343 263.059462,73.963 L262.926462,73.186 C262.627793,73.5360017 262.288297,73.8183323 261.907962,74.033 C261.527626,74.2476677 261.085464,74.355 260.581462,74.355 C260.180126,74.355 259.81613,74.2745008 259.489462,74.1135 C259.162793,73.9524992 258.882796,73.7180015 258.649462,73.41 C258.416127,73.1019985 258.235295,72.7205023 258.106962,72.2655 C257.978628,71.8104977 257.914462,71.2890029 257.914462,70.701 C257.914462,70.1689973 257.985627,69.6766689 258.127962,69.224 C258.270296,68.7713311 258.47446,68.3781683 258.740462,68.0445 C259.006463,67.7108317 259.329626,67.4495009 259.709962,67.2605 C260.090297,67.0714991 260.516126,66.977 260.987462,66.977 C261.407464,66.977 261.76446,67.0434993 262.058462,67.1765 C262.352463,67.3095007 262.616127,67.4949988 262.849462,67.733 L262.849462,63.89 L264.354462,63.89 Z M275.287923,65.892 C275.236589,65.9760004 275.182923,66.0378331 275.126923,66.0775 C275.070923,66.1171669 275.000923,66.137 274.916923,66.137 C274.828256,66.137 274.72909,66.099667 274.619423,66.025 C274.509756,65.950333 274.374424,65.8675005 274.213423,65.7765 C274.052422,65.6854995 273.862257,65.6015004 273.642923,65.5245 C273.423589,65.4474996 273.162258,65.409 272.858923,65.409 C272.578922,65.409 272.332757,65.4439996 272.120423,65.514 C271.908089,65.5840003 271.72959,65.6819994 271.584923,65.808 C271.440256,65.9340006 271.331757,66.0821658 271.259423,66.2525 C271.187089,66.4228342 271.150923,66.6083323 271.150923,66.809 C271.150923,67.065668 271.218589,67.2791658 271.353923,67.4495 C271.489257,67.6198342 271.667755,67.7656661 271.889423,67.887 C272.111091,68.0083339 272.364255,68.1144995 272.648923,68.2055 C272.933591,68.2965005 273.224088,68.3933328 273.520423,68.496 C273.816758,68.5986672 274.107255,68.7153327 274.391923,68.846 C274.676591,68.9766673 274.929755,69.1423323 275.151423,69.343 C275.373091,69.5436677 275.551589,69.7886652 275.686923,70.078 C275.822257,70.3673348 275.889923,70.7196646 275.889923,71.135 C275.889923,71.5830022 275.812924,72.002998 275.658923,72.395 C275.504922,72.787002 275.282091,73.1288319 274.990423,73.4205 C274.698755,73.7121681 274.339425,73.9419992 273.912423,74.11 C273.485421,74.2780008 272.998926,74.362 272.452923,74.362 C272.130921,74.362 271.817091,74.3305003 271.511423,74.2675 C271.205755,74.2044997 270.914091,74.1158339 270.636423,74.0015 C270.358755,73.8871661 270.098591,73.7483342 269.855923,73.585 C269.613255,73.4216658 269.396257,73.2396677 269.204923,73.039 L269.680923,72.255 C269.722923,72.1896663 269.776589,72.1383335 269.841923,72.101 C269.907257,72.0636665 269.979589,72.045 270.058923,72.045 C270.166257,72.045 270.285256,72.0951662 270.415923,72.1955 C270.54659,72.2958338 270.704089,72.4054994 270.888423,72.5245 C271.072757,72.6435006 271.295588,72.7531662 271.556923,72.8535 C271.818258,72.9538338 272.130921,73.004 272.494923,73.004 C273.087593,73.004 273.546088,72.8593348 273.870423,72.57 C274.194758,72.2806652 274.356923,71.8816692 274.356923,71.373 C274.356923,71.0883319 274.289257,70.8561676 274.153923,70.6765 C274.018589,70.4968324 273.840091,70.3463339 273.618423,70.225 C273.396755,70.1036661 273.143591,70.0010004 272.858923,69.917 C272.574255,69.8329996 272.284925,69.7431671 271.990923,69.6475 C271.696922,69.5518329 271.407591,69.439834 271.122923,69.3115 C270.838255,69.183166 270.585091,69.0151677 270.363423,68.8075 C270.141755,68.5998323 269.963257,68.3431682 269.827923,68.0375 C269.692589,67.7318318 269.624923,67.3503356 269.624923,66.893 C269.624923,66.5289982 269.696089,66.1766684 269.838423,65.836 C269.980757,65.4953316 270.188422,65.193168 270.461423,64.9295 C270.734424,64.665832 271.071588,64.4546675 271.472923,64.296 C271.874258,64.1373325 272.331587,64.058 272.844923,64.058 C273.423593,64.058 273.954421,64.1489991 274.437423,64.331 C274.920425,64.5130009 275.336921,64.7719983 275.686923,65.108 L275.287923,65.892 Z M278.924154,67.11 L278.924154,74.25 L277.419154,74.25 L277.419154,67.11 L278.924154,67.11 Z M279.176154,64.954 C279.176154,65.089334 279.149321,65.2176661 279.095654,65.339 C279.041987,65.4603339 278.968488,65.5664995 278.875154,65.6575 C278.78182,65.7485005 278.673321,65.8208331 278.549654,65.8745 C278.425987,65.9281669 278.294154,65.955 278.154154,65.955 C278.01882,65.955 277.891654,65.9281669 277.772654,65.8745 C277.653653,65.8208331 277.549821,65.7485005 277.461154,65.6575 C277.372487,65.5664995 277.301321,65.4603339 277.247654,65.339 C277.193987,65.2176661 277.167154,65.089334 277.167154,64.954 C277.167154,64.8139993 277.193987,64.6833339 277.247654,64.562 C277.301321,64.4406661 277.372487,64.3345005 277.461154,64.2435 C277.549821,64.1524995 277.653653,64.0801669 277.772654,64.0265 C277.891654,63.9728331 278.01882,63.946 278.154154,63.946 C278.294154,63.946 278.425987,63.9728331 278.549654,64.0265 C278.673321,64.0801669 278.78182,64.1524995 278.875154,64.2435 C278.968488,64.3345005 279.041987,64.4406661 279.095654,64.562 C279.149321,64.6833339 279.176154,64.8139993 279.176154,64.954 Z M283.141385,74.362 C282.548715,74.362 282.092553,74.1951683 281.772885,73.8615 C281.453216,73.5278317 281.293385,73.0576697 281.293385,72.451 L281.293385,68.293 L280.509385,68.293 C280.425384,68.293 280.353052,68.2661669 280.292385,68.2125 C280.231718,68.1588331 280.201385,68.0783339 280.201385,67.971 L280.201385,67.362 L281.356385,67.194 L281.685385,65.129 C281.708718,65.0496663 281.748384,64.9855002 281.804385,64.9365 C281.860385,64.8874998 281.935051,64.863 282.028385,64.863 L282.798385,64.863 L282.798385,67.208 L284.779385,67.208 L284.779385,68.293 L282.798385,68.293 L282.798385,72.346 C282.798385,72.6026679 282.861384,72.798666 282.987385,72.934 C283.113385,73.069334 283.281384,73.137 283.491385,73.137 C283.608052,73.137 283.708384,73.1218335 283.792385,73.0915 C283.876385,73.0611665 283.948718,73.0285002 284.009385,72.9935 C284.070052,72.9584998 284.122551,72.9258335 284.166885,72.8955 C284.211218,72.8651665 284.254384,72.85 284.296385,72.85 C284.380385,72.85 284.448051,72.8966662 284.499385,72.99 L284.947385,73.725 C284.71405,73.9303344 284.438719,74.0878328 284.121385,74.1975 C283.80405,74.3071672 283.477386,74.362 283.141385,74.362 Z M290.634615,69.875 C290.634615,69.6229987 290.598449,69.3885011 290.526115,69.1715 C290.453782,68.9544989 290.347616,68.7655008 290.207615,68.6045 C290.067615,68.4434992 289.893783,68.3175005 289.686115,68.2265 C289.478448,68.1354995 289.239283,68.09 288.968615,68.09 C288.422613,68.09 287.993284,68.2463318 287.680615,68.559 C287.367947,68.8716682 287.169616,69.3103305 287.085615,69.875 L290.634615,69.875 Z M287.043615,70.799 C287.062282,71.205002 287.125281,71.5561652 287.232615,71.8525 C287.339949,72.1488348 287.483448,72.394999 287.663115,72.591 C287.842783,72.787001 288.057447,72.9328329 288.307115,73.0285 C288.556783,73.1241671 288.835614,73.172 289.143615,73.172 C289.437617,73.172 289.691948,73.138167 289.906615,73.0705 C290.121283,73.002833 290.307948,72.9281671 290.466615,72.8465 C290.625283,72.7648329 290.760615,72.690167 290.872615,72.6225 C290.984616,72.554833 291.087282,72.521 291.180615,72.521 C291.301949,72.521 291.395282,72.5676662 291.460615,72.661 L291.887615,73.214 C291.710281,73.4240011 291.509616,73.6013326 291.285615,73.746 C291.061614,73.8906674 290.823617,74.0084995 290.571615,74.0995 C290.319614,74.1905005 290.060617,74.2558331 289.794615,74.2955 C289.528614,74.3351669 289.269617,74.355 289.017615,74.355 C288.522946,74.355 288.064451,74.2721675 287.642115,74.1065 C287.21978,73.9408325 286.85345,73.6970016 286.543115,73.375 C286.23278,73.0529984 285.990116,72.6540024 285.815115,72.178 C285.640114,71.7019976 285.552615,71.1536698 285.552615,70.533 C285.552615,70.0383309 285.630781,69.5763355 285.787115,69.147 C285.943449,68.7176645 286.167447,68.3443349 286.459115,68.027 C286.750783,67.7096651 287.105447,67.4588343 287.523115,67.2745 C287.940784,67.0901657 288.413279,66.998 288.940615,66.998 C289.379284,66.998 289.78528,67.069166 290.158615,67.2115 C290.531951,67.353834 290.853947,67.5626653 291.124615,67.838 C291.395283,68.1133347 291.606448,68.450498 291.758115,68.8495 C291.909783,69.248502 291.985615,69.7023308 291.985615,70.211 C291.985615,70.4443345 291.959949,70.6006663 291.908615,70.68 C291.857282,70.7593337 291.763949,70.799 291.628615,70.799 L287.043615,70.799 Z" id="RadSite" fill="#4A5865" fill-rule="nonzero"></path>
                <path d="M112.623,69 C112.996335,69 113.322999,68.9545005 113.603,68.8635 C113.883001,68.7724995 114.116332,68.6453341 114.303,68.482 C114.489668,68.3186659 114.629666,68.1238345 114.723,67.8975 C114.816334,67.6711655 114.863,67.4203347 114.863,67.145 C114.863,66.5943306 114.681002,66.1743348 114.317,65.885 C113.952998,65.5956652 113.402337,65.451 112.665,65.451 L111.335,65.451 L111.335,69 L112.623,69 Z M117.369,74.25 L115.906,74.25 C115.616665,74.25 115.406667,74.1380011 115.276,73.914 L112.924,70.519 C112.844666,70.4023327 112.758334,70.3183336 112.665,70.267 C112.571666,70.2156664 112.431668,70.19 112.245,70.19 L111.335,70.19 L111.335,74.25 L109.697,74.25 L109.697,64.17 L112.665,64.17 C113.32767,64.17 113.898164,64.237666 114.3765,64.373 C114.854836,64.508334 115.247998,64.7008321 115.556,64.9505 C115.864002,65.2001679 116.091499,65.4999983 116.2385,65.85 C116.385501,66.2000017 116.459,66.5896645 116.459,67.019 C116.459,67.3690017 116.406501,67.6956651 116.3015,67.999 C116.196499,68.3023348 116.044834,68.5776654 115.8465,68.825 C115.648166,69.0723346 115.404335,69.2869991 115.115,69.469 C114.825665,69.6510009 114.496669,69.7933328 114.128,69.896 C114.328668,70.0173339 114.501333,70.1876656 114.646,70.407 L117.369,74.25 Z M122.559231,69.875 C122.559231,69.6229987 122.523064,69.3885011 122.450731,69.1715 C122.378397,68.9544989 122.272231,68.7655008 122.132231,68.6045 C121.99223,68.4434992 121.818398,68.3175005 121.610731,68.2265 C121.403063,68.1354995 121.163899,68.09 120.893231,68.09 C120.347228,68.09 119.917899,68.2463318 119.605231,68.559 C119.292563,68.8716682 119.094231,69.3103305 119.010231,69.875 L122.559231,69.875 Z M118.968231,70.799 C118.986898,71.205002 119.049897,71.5561652 119.157231,71.8525 C119.264565,72.1488348 119.408063,72.394999 119.587731,72.591 C119.767398,72.787001 119.982063,72.9328329 120.231731,73.0285 C120.481399,73.1241671 120.760229,73.172 121.068231,73.172 C121.362232,73.172 121.616563,73.138167 121.831231,73.0705 C122.045898,73.002833 122.232563,72.9281671 122.391231,72.8465 C122.549898,72.7648329 122.68523,72.690167 122.797231,72.6225 C122.909231,72.554833 123.011897,72.521 123.105231,72.521 C123.226565,72.521 123.319897,72.5676662 123.385231,72.661 L123.812231,73.214 C123.634897,73.4240011 123.434232,73.6013326 123.210231,73.746 C122.98623,73.8906674 122.748232,74.0084995 122.496231,74.0995 C122.24423,74.1905005 121.985232,74.2558331 121.719231,74.2955 C121.453229,74.3351669 121.194232,74.355 120.942231,74.355 C120.447562,74.355 119.989066,74.2721675 119.566731,74.1065 C119.144395,73.9408325 118.778066,73.6970016 118.467731,73.375 C118.157396,73.0529984 117.914732,72.6540024 117.739731,72.178 C117.56473,71.7019976 117.477231,71.1536698 117.477231,70.533 C117.477231,70.0383309 117.555397,69.5763355 117.711731,69.147 C117.868065,68.7176645 118.092063,68.3443349 118.383731,68.027 C118.675399,67.7096651 119.030062,67.4588343 119.447731,67.2745 C119.8654,67.0901657 120.337895,66.998 120.865231,66.998 C121.3039,66.998 121.709896,67.069166 122.083231,67.2115 C122.456566,67.353834 122.778563,67.5626653 123.049231,67.838 C123.319899,68.1133347 123.531063,68.450498 123.682731,68.8495 C123.834398,69.248502 123.910231,69.7023308 123.910231,70.211 C123.910231,70.4443345 123.884564,70.6006663 123.833231,70.68 C123.781897,70.7593337 123.688565,70.799 123.553231,70.799 L118.968231,70.799 Z M126.846462,72.458 C127.056463,72.728668 127.286294,72.9188328 127.535962,73.0285 C127.785629,73.1381672 128.062127,73.193 128.365462,73.193 C128.953464,73.193 129.41196,72.9783355 129.740962,72.549 C130.069963,72.1196645 130.234462,71.4803376 130.234462,70.631 C130.234462,70.1923311 130.197129,69.8178349 130.122462,69.5075 C130.047794,69.1971651 129.940462,68.944001 129.800462,68.748 C129.660461,68.551999 129.490129,68.4096671 129.289462,68.321 C129.088794,68.2323329 128.862463,68.188 128.610462,68.188 C128.227793,68.188 127.89763,68.2708325 127.619962,68.4365 C127.342293,68.6021675 127.084463,68.8389985 126.846462,69.147 L126.846462,72.458 Z M126.769462,68.146 C127.06813,67.7959982 127.407626,67.5136677 127.787962,67.299 C128.168297,67.0843323 128.610459,66.977 129.114462,66.977 C129.515797,66.977 129.879793,67.0574992 130.206462,67.2185 C130.53313,67.3795008 130.813127,67.6139985 131.046462,67.922 C131.279796,68.2300015 131.460628,68.6114977 131.588962,69.0665 C131.717295,69.5215023 131.781462,70.0429971 131.781462,70.631 C131.781462,71.158336 131.710296,71.6494977 131.567962,72.1045 C131.425627,72.5595023 131.221463,72.9538317 130.955462,73.2875 C130.68946,73.6211683 130.367463,73.8824991 129.989462,74.0715 C129.61146,74.2605009 129.184464,74.355 128.708462,74.355 C128.288459,74.355 127.93263,74.287334 127.640962,74.152 C127.349293,74.016666 127.084463,73.8300012 126.846462,73.592 L126.846462,76.623 L125.341462,76.623 L125.341462,67.11 L126.251462,67.11 C126.456796,67.11 126.587461,67.2056657 126.643462,67.397 L126.769462,68.146 Z M134.808692,63.89 L134.808692,74.25 L133.303692,74.25 L133.303692,63.89 L134.808692,63.89 Z M140.516923,71.128 C139.980254,71.1466668 139.527592,71.189833 139.158923,71.2575 C138.790255,71.325167 138.491591,71.4114995 138.262923,71.5165 C138.034255,71.6215005 137.869757,71.7463326 137.769423,71.891 C137.669089,72.0356674 137.618923,72.1943325 137.618923,72.367 C137.618923,72.5350008 137.645756,72.6784994 137.699423,72.7975 C137.75309,72.9165006 137.827756,73.0144996 137.923423,73.0915 C138.01909,73.1685004 138.131089,73.2244998 138.259423,73.2595 C138.387757,73.2945002 138.528922,73.312 138.682923,73.312 C139.074925,73.312 139.412088,73.2385007 139.694423,73.0915 C139.976758,72.9444993 140.250922,72.7310014 140.516923,72.451 L140.516923,71.128 Z M136.526923,68.104 C137.33426,67.3526629 138.295584,66.977 139.410923,66.977 C139.821592,66.977 140.186755,67.0434993 140.506423,67.1765 C140.826091,67.3095007 141.094422,67.4973321 141.311423,67.74 C141.528424,67.9826679 141.694089,68.2708317 141.808423,68.6045 C141.922757,68.9381683 141.979923,69.307998 141.979923,69.714 L141.979923,74.25 L141.307923,74.25 C141.163256,74.25 141.05359,74.2278336 140.978923,74.1835 C140.904256,74.1391664 140.841257,74.049334 140.789923,73.914 L140.642923,73.333 C140.460922,73.4963341 140.281257,73.642166 140.103923,73.7705 C139.926589,73.898834 139.743424,74.0073329 139.554423,74.096 C139.365422,74.1846671 139.162424,74.2511664 138.945423,74.2955 C138.728422,74.3398336 138.489258,74.362 138.227923,74.362 C137.938588,74.362 137.669091,74.3223337 137.419423,74.243 C137.169755,74.1636663 136.953924,74.0435008 136.771923,73.8825 C136.589922,73.7214992 136.446424,73.5220012 136.341423,73.284 C136.236423,73.0459988 136.183923,72.7660016 136.183923,72.444 C136.183923,72.1686653 136.257422,71.9003346 136.404423,71.639 C136.551424,71.3776654 136.794088,71.1431677 137.132423,70.9355 C137.470758,70.7278323 137.91642,70.556334 138.469423,70.421 C139.022426,70.285666 139.704919,70.2086668 140.516923,70.19 L140.516923,69.714 C140.516923,69.2006641 140.407257,68.8180013 140.187923,68.566 C139.968589,68.3139987 139.646592,68.188 139.221923,68.188 C138.932588,68.188 138.689924,68.2241663 138.493923,68.2965 C138.297922,68.3688337 138.12759,68.4469996 137.982923,68.531 C137.838256,68.6150004 137.709924,68.6931663 137.597923,68.7655 C137.485922,68.8378337 137.366924,68.874 137.240923,68.874 C137.138256,68.874 137.050757,68.8471669 136.978423,68.7935 C136.906089,68.7398331 136.84659,68.6733337 136.799923,68.594 L136.526923,68.104 Z M148.815154,68.51 C148.768487,68.570667 148.724154,68.6173332 148.682154,68.65 C148.640154,68.6826668 148.579488,68.699 148.500154,68.699 C148.42082,68.699 148.337988,68.6710003 148.251654,68.615 C148.16532,68.5589997 148.062654,68.497167 147.943654,68.4295 C147.824653,68.361833 147.681155,68.3000003 147.513154,68.244 C147.345153,68.1879997 147.135155,68.16 146.883154,68.16 C146.556486,68.16 146.270655,68.2183328 146.025654,68.335 C145.780653,68.4516672 145.575321,68.6184989 145.409654,68.8355 C145.243986,69.0525011 145.120321,69.3161651 145.038654,69.6265 C144.956987,69.9368349 144.916154,70.2856647 144.916154,70.673 C144.916154,71.0743353 144.960487,71.4313318 145.049154,71.744 C145.137821,72.0566682 145.264986,72.3203323 145.430654,72.535 C145.596321,72.7496677 145.796986,72.9129994 146.032654,73.025 C146.268322,73.1370006 146.533152,73.193 146.827154,73.193 C147.116489,73.193 147.352153,73.1580003 147.534154,73.088 C147.716155,73.0179997 147.86782,72.9410004 147.989154,72.857 C148.110488,72.7729996 148.21432,72.6960003 148.300654,72.626 C148.386988,72.5559997 148.479153,72.521 148.577154,72.521 C148.698488,72.521 148.79182,72.5676662 148.857154,72.661 L149.284154,73.214 C149.111486,73.4240011 148.920155,73.6013326 148.710154,73.746 C148.500153,73.8906674 148.278488,74.0084995 148.045154,74.0995 C147.811819,74.1905005 147.569155,74.2558331 147.317154,74.2955 C147.065153,74.3351669 146.810822,74.355 146.554154,74.355 C146.110818,74.355 145.696656,74.2721675 145.311654,74.1065 C144.926652,73.9408325 144.590655,73.7005016 144.303654,73.3855 C144.016652,73.0704984 143.790321,72.6855023 143.624654,72.2305 C143.458986,71.7754977 143.376154,71.2563363 143.376154,70.673 C143.376154,70.145664 143.45082,69.6568356 143.600154,69.2065 C143.749488,68.7561644 143.967652,68.3676683 144.254654,68.041 C144.541655,67.7143317 144.897485,67.4588343 145.322154,67.2745 C145.746823,67.0901657 146.236818,66.998 146.792154,66.998 C147.310156,66.998 147.766318,67.0819992 148.160654,67.25 C148.554989,67.4180008 148.906152,67.6559985 149.214154,67.964 L148.815154,68.51 Z M155.076385,69.875 C155.076385,69.6229987 155.040218,69.3885011 154.967885,69.1715 C154.895551,68.9544989 154.789385,68.7655008 154.649385,68.6045 C154.509384,68.4434992 154.335552,68.3175005 154.127885,68.2265 C153.920217,68.1354995 153.681053,68.09 153.410385,68.09 C152.864382,68.09 152.435053,68.2463318 152.122385,68.559 C151.809716,68.8716682 151.611385,69.3103305 151.527385,69.875 L155.076385,69.875 Z M151.485385,70.799 C151.504051,71.205002 151.567051,71.5561652 151.674385,71.8525 C151.781718,72.1488348 151.925217,72.394999 152.104885,72.591 C152.284552,72.787001 152.499217,72.9328329 152.748885,73.0285 C152.998552,73.1241671 153.277383,73.172 153.585385,73.172 C153.879386,73.172 154.133717,73.138167 154.348385,73.0705 C154.563052,73.002833 154.749717,72.9281671 154.908385,72.8465 C155.067052,72.7648329 155.202384,72.690167 155.314385,72.6225 C155.426385,72.554833 155.529051,72.521 155.622385,72.521 C155.743718,72.521 155.837051,72.5676662 155.902385,72.661 L156.329385,73.214 C156.15205,73.4240011 155.951386,73.6013326 155.727385,73.746 C155.503383,73.8906674 155.265386,74.0084995 155.013385,74.0995 C154.761383,74.1905005 154.502386,74.2558331 154.236385,74.2955 C153.970383,74.3351669 153.711386,74.355 153.459385,74.355 C152.964715,74.355 152.50622,74.2721675 152.083885,74.1065 C151.661549,73.9408325 151.295219,73.6970016 150.984885,73.375 C150.67455,73.0529984 150.431885,72.6540024 150.256885,72.178 C150.081884,71.7019976 149.994385,71.1536698 149.994385,70.533 C149.994385,70.0383309 150.07255,69.5763355 150.228885,69.147 C150.385219,68.7176645 150.609216,68.3443349 150.900885,68.027 C151.192553,67.7096651 151.547216,67.4588343 151.964885,67.2745 C152.382553,67.0901657 152.855049,66.998 153.382385,66.998 C153.821053,66.998 154.227049,67.069166 154.600385,67.2115 C154.97372,67.353834 155.295717,67.5626653 155.566385,67.838 C155.837053,68.1133347 156.048217,68.450498 156.199885,68.8495 C156.351552,69.248502 156.427385,69.7023308 156.427385,70.211 C156.427385,70.4443345 156.401718,70.6006663 156.350385,70.68 C156.299051,70.7593337 156.205719,70.799 156.070385,70.799 L151.485385,70.799 Z M168.172846,65.535 L165.029846,65.535 L165.029846,74.25 L163.398846,74.25 L163.398846,65.535 L160.248846,65.535 L160.248846,64.17 L168.172846,64.17 L168.172846,65.535 Z M169.275077,68.433 C169.499078,67.9803311 169.769742,67.6245013 170.087077,67.3655 C170.404412,67.1064987 170.784741,66.977 171.228077,66.977 C171.382078,66.977 171.526743,66.9944998 171.662077,67.0295 C171.797411,67.0645002 171.918743,67.1169996 172.026077,67.187 L171.921077,68.321 C171.90241,68.4003337 171.873244,68.4551665 171.833577,68.4855 C171.79391,68.5158335 171.741411,68.531 171.676077,68.531 C171.606076,68.531 171.505744,68.5181668 171.375077,68.4925 C171.24441,68.4668332 171.106744,68.454 170.962077,68.454 C170.752076,68.454 170.566578,68.484333 170.405577,68.545 C170.244576,68.605667 170.099911,68.6943328 169.971577,68.811 C169.843243,68.9276672 169.730077,69.0699992 169.632077,69.238 C169.534076,69.4060008 169.443077,69.5973323 169.359077,69.812 L169.359077,74.25 L167.854077,74.25 L167.854077,67.11 L168.729077,67.11 C168.887744,67.11 168.99741,67.1391664 169.058077,67.1975 C169.118744,67.2558336 169.160743,67.3573326 169.184077,67.502 L169.275077,68.433 Z M177.489308,69.875 C177.489308,69.6229987 177.453141,69.3885011 177.380808,69.1715 C177.308474,68.9544989 177.202308,68.7655008 177.062308,68.6045 C176.922307,68.4434992 176.748475,68.3175005 176.540808,68.2265 C176.33314,68.1354995 176.093976,68.09 175.823308,68.09 C175.277305,68.09 174.847976,68.2463318 174.535308,68.559 C174.222639,68.8716682 174.024308,69.3103305 173.940308,69.875 L177.489308,69.875 Z M173.898308,70.799 C173.916974,71.205002 173.979974,71.5561652 174.087308,71.8525 C174.194641,72.1488348 174.33814,72.394999 174.517808,72.591 C174.697475,72.787001 174.91214,72.9328329 175.161808,73.0285 C175.411476,73.1241671 175.690306,73.172 175.998308,73.172 C176.292309,73.172 176.54664,73.138167 176.761308,73.0705 C176.975975,73.002833 177.16264,72.9281671 177.321308,72.8465 C177.479975,72.7648329 177.615307,72.690167 177.727308,72.6225 C177.839308,72.554833 177.941974,72.521 178.035308,72.521 C178.156642,72.521 178.249974,72.5676662 178.315308,72.661 L178.742308,73.214 C178.564973,73.4240011 178.364309,73.6013326 178.140308,73.746 C177.916306,73.8906674 177.678309,74.0084995 177.426308,74.0995 C177.174306,74.1905005 176.915309,74.2558331 176.649308,74.2955 C176.383306,74.3351669 176.124309,74.355 175.872308,74.355 C175.377638,74.355 174.919143,74.2721675 174.496808,74.1065 C174.074472,73.9408325 173.708142,73.6970016 173.397808,73.375 C173.087473,73.0529984 172.844808,72.6540024 172.669808,72.178 C172.494807,71.7019976 172.407308,71.1536698 172.407308,70.533 C172.407308,70.0383309 172.485473,69.5763355 172.641808,69.147 C172.798142,68.7176645 173.022139,68.3443349 173.313808,68.027 C173.605476,67.7096651 173.960139,67.4588343 174.377808,67.2745 C174.795476,67.0901657 175.267972,66.998 175.795308,66.998 C176.233976,66.998 176.639972,67.069166 177.013308,67.2115 C177.386643,67.353834 177.70864,67.5626653 177.979308,67.838 C178.249976,68.1133347 178.46114,68.450498 178.612808,68.8495 C178.764475,69.248502 178.840308,69.7023308 178.840308,70.211 C178.840308,70.4443345 178.814641,70.6006663 178.763308,70.68 C178.711974,70.7593337 178.618642,70.799 178.483308,70.799 L173.898308,70.799 Z M181.678538,68.055 C181.832539,67.8963325 181.992371,67.752834 182.158038,67.6245 C182.323706,67.496166 182.499871,67.3853338 182.686538,67.292 C182.873206,67.1986662 183.071537,67.1263336 183.281538,67.075 C183.491539,67.0236664 183.720204,66.998 183.967538,66.998 C184.35954,66.998 184.703704,67.0633327 185.000038,67.194 C185.296373,67.3246673 185.546037,67.5089988 185.749038,67.747 C185.952039,67.9850012 186.104871,68.2708317 186.207538,68.6045 C186.310206,68.9381683 186.361538,69.3056647 186.361538,69.707 L186.361538,74.25 L184.863538,74.25 L184.863538,69.707 C184.863538,69.2263309 184.752706,68.8530013 184.531038,68.587 C184.309371,68.3209987 183.972207,68.188 183.519538,68.188 C183.183537,68.188 182.87204,68.2649992 182.585038,68.419 C182.298037,68.5730008 182.02854,68.7829987 181.776538,69.049 L181.776538,74.25 L180.271538,74.25 L180.271538,67.11 L181.181538,67.11 C181.386873,67.11 181.517538,67.2056657 181.573538,67.397 L181.678538,68.055 Z M192.713769,68.867 C192.503768,68.596332 192.27277,68.4073339 192.020769,68.3 C191.768768,68.1926661 191.495771,68.139 191.201769,68.139 C190.613766,68.139 190.154104,68.3548312 189.822769,68.7865 C189.491434,69.2181688 189.325769,69.8563291 189.325769,70.701 C189.325769,71.1396689 189.363102,71.5141651 189.437769,71.8245 C189.512436,72.1348349 189.619768,72.387999 189.759769,72.584 C189.89977,72.780001 190.070101,72.9223329 190.270769,73.011 C190.471437,73.0996671 190.697768,73.144 190.949769,73.144 C191.332438,73.144 191.662601,73.0611675 191.940269,72.8955 C192.217937,72.7298325 192.475768,72.4953349 192.713769,72.192 L192.713769,68.867 Z M194.218769,63.89 L194.218769,74.25 L193.308769,74.25 C193.108101,74.25 192.979769,74.1543343 192.923769,73.963 L192.790769,73.186 C192.492101,73.5360017 192.152604,73.8183323 191.772269,74.033 C191.391934,74.2476677 190.949772,74.355 190.445769,74.355 C190.044434,74.355 189.680437,74.2745008 189.353769,74.1135 C189.027101,73.9524992 188.747104,73.7180015 188.513769,73.41 C188.280435,73.1019985 188.099603,72.7205023 187.971269,72.2655 C187.842935,71.8104977 187.778769,71.2890029 187.778769,70.701 C187.778769,70.1689973 187.849935,69.6766689 187.992269,69.224 C188.134603,68.7713311 188.338768,68.3781683 188.604769,68.0445 C188.87077,67.7108317 189.193934,67.4495009 189.574269,67.2605 C189.954604,67.0714991 190.380433,66.977 190.851769,66.977 C191.271771,66.977 191.628768,67.0434993 191.922769,67.1765 C192.216771,67.3095007 192.480435,67.4949988 192.713769,67.733 L192.713769,63.89 L194.218769,63.89 Z M197.652,67.11 L197.652,74.25 L196.147,74.25 L196.147,67.11 L197.652,67.11 Z M197.904,64.954 C197.904,65.089334 197.877167,65.2176661 197.8235,65.339 C197.769833,65.4603339 197.696334,65.5664995 197.603,65.6575 C197.509666,65.7485005 197.401167,65.8208331 197.2775,65.8745 C197.153833,65.9281669 197.022001,65.955 196.882,65.955 C196.746666,65.955 196.6195,65.9281669 196.5005,65.8745 C196.381499,65.8208331 196.277667,65.7485005 196.189,65.6575 C196.100333,65.5664995 196.029167,65.4603339 195.9755,65.339 C195.921833,65.2176661 195.895,65.089334 195.895,64.954 C195.895,64.8139993 195.921833,64.6833339 195.9755,64.562 C196.029167,64.4406661 196.100333,64.3345005 196.189,64.2435 C196.277667,64.1524995 196.381499,64.0801669 196.5005,64.0265 C196.6195,63.9728331 196.746666,63.946 196.882,63.946 C197.022001,63.946 197.153833,63.9728331 197.2775,64.0265 C197.401167,64.0801669 197.509666,64.1524995 197.603,64.2435 C197.696334,64.3345005 197.769833,64.4406661 197.8235,64.562 C197.877167,64.6833339 197.904,64.8139993 197.904,64.954 Z M200.987231,68.055 C201.141231,67.8963325 201.301063,67.752834 201.466731,67.6245 C201.632398,67.496166 201.808563,67.3853338 201.995231,67.292 C202.181898,67.1986662 202.38023,67.1263336 202.590231,67.075 C202.800232,67.0236664 203.028896,66.998 203.276231,66.998 C203.668233,66.998 204.012396,67.0633327 204.308731,67.194 C204.605065,67.3246673 204.85473,67.5089988 205.057731,67.747 C205.260732,67.9850012 205.413563,68.2708317 205.516231,68.6045 C205.618898,68.9381683 205.670231,69.3056647 205.670231,69.707 L205.670231,74.25 L204.172231,74.25 L204.172231,69.707 C204.172231,69.2263309 204.061398,68.8530013 203.839731,68.587 C203.618063,68.3209987 203.2809,68.188 202.828231,68.188 C202.492229,68.188 202.180732,68.2649992 201.893731,68.419 C201.606729,68.5730008 201.337232,68.7829987 201.085231,69.049 L201.085231,74.25 L199.580231,74.25 L199.580231,67.11 L200.490231,67.11 C200.695565,67.11 200.82623,67.2056657 200.882231,67.397 L200.987231,68.055 Z M210.013461,70.617 C210.48013,70.617 210.830127,70.4980012 211.063461,70.26 C211.296796,70.0219988 211.413461,69.7116686 211.413461,69.329 C211.413461,68.936998 211.296796,68.6266678 211.063461,68.398 C210.830127,68.1693322 210.48013,68.055 210.013461,68.055 C209.551459,68.055 209.202629,68.1693322 208.966961,68.398 C208.731294,68.6266678 208.613461,68.936998 208.613461,69.329 C208.613461,69.5156676 208.643794,69.6883325 208.704461,69.847 C208.765128,70.0056675 208.853794,70.1421661 208.970461,70.2565 C209.087129,70.3708339 209.232961,70.4594997 209.407961,70.5225 C209.582962,70.5855003 209.784794,70.617 210.013461,70.617 Z M212.106461,74.6 C212.106461,74.4413325 212.060962,74.3141671 211.969961,74.2185 C211.878961,74.1228329 211.756462,74.0481669 211.602461,73.9945 C211.448461,73.9408331 211.268796,73.9011668 211.063461,73.8755 C210.858127,73.8498332 210.639963,73.8311667 210.408961,73.8195 C210.17796,73.8078333 209.942296,73.7961667 209.701961,73.7845 C209.461627,73.7728333 209.229463,73.7506668 209.005461,73.718 C208.78146,73.8346672 208.598295,73.9746659 208.455961,74.138 C208.313627,74.3013342 208.242461,74.4903323 208.242461,74.705 C208.242461,74.8450007 208.278628,74.9756661 208.350961,75.097 C208.423295,75.2183339 208.535294,75.3233329 208.686961,75.412 C208.838629,75.5006671 209.032294,75.5706664 209.267961,75.622 C209.503629,75.6733336 209.787126,75.699 210.118461,75.699 C210.781131,75.699 211.278126,75.5963344 211.609461,75.391 C211.940796,75.1856656 212.106461,74.9220016 212.106461,74.6 Z M213.618461,67.369 L213.618461,67.929 C213.618461,68.1156676 213.506463,68.2299998 213.282461,68.272 L212.568461,68.391 C212.689795,68.661668 212.750461,68.962665 212.750461,69.294 C212.750461,69.6440018 212.681629,69.9613319 212.543961,70.246 C212.406294,70.5306681 212.216129,70.7733323 211.973461,70.974 C211.730794,71.1746677 211.441463,71.3286661 211.105461,71.436 C210.76946,71.5433339 210.405463,71.597 210.013461,71.597 C209.864127,71.597 209.718295,71.5888334 209.575961,71.5725 C209.433627,71.5561666 209.294795,71.5340001 209.159461,71.506 C209.024127,71.5853337 208.923795,71.6693329 208.858461,71.758 C208.793128,71.8466671 208.760461,71.9376662 208.760461,72.031 C208.760461,72.1850008 208.828127,72.299333 208.963461,72.374 C209.098795,72.448667 209.277294,72.5023332 209.498961,72.535 C209.720629,72.5676668 209.973793,72.5886666 210.258461,72.598 C210.543129,72.6073334 210.83246,72.6236665 211.126461,72.647 C211.420463,72.6703335 211.709793,72.7088331 211.994461,72.7625 C212.279129,72.8161669 212.532294,72.9048327 212.753961,73.0285 C212.975629,73.1521673 213.154127,73.318999 213.289461,73.529 C213.424795,73.739001 213.492461,74.0119983 213.492461,74.348 C213.492461,74.6560015 213.415462,74.9569985 213.261461,75.251 C213.107461,75.5450015 212.88463,75.8063322 212.592961,76.035 C212.301293,76.2636678 211.945463,76.4468326 211.525461,76.5845 C211.105459,76.7221674 210.627131,76.791 210.090461,76.791 C209.558459,76.791 209.095297,76.7396672 208.700961,76.637 C208.306626,76.5343328 207.977629,76.3955009 207.713961,76.2205 C207.450293,76.0454991 207.254295,75.8436678 207.125961,75.615 C206.997627,75.3863322 206.933461,75.1483346 206.933461,74.901 C206.933461,74.5649983 207.039627,74.2780012 207.251961,74.04 C207.464296,73.8019988 207.75246,73.615334 208.116461,73.48 C207.92046,73.3866662 207.762962,73.2583341 207.643961,73.095 C207.524961,72.9316659 207.465461,72.7170013 207.465461,72.451 C207.465461,72.240999 207.542461,72.0216678 207.696461,71.793 C207.850462,71.5643322 208.08146,71.3706675 208.389461,71.212 C208.034793,71.015999 207.754796,70.755835 207.549461,70.4315 C207.344127,70.107165 207.241461,69.7280022 207.241461,69.294 C207.241461,68.9393316 207.310294,68.6196681 207.447961,68.335 C207.585629,68.0503319 207.778127,67.8076677 208.025461,67.607 C208.272796,67.4063323 208.565626,67.2523339 208.903961,67.145 C209.242296,67.0376661 209.612126,66.984 210.013461,66.984 C210.629464,66.984 211.166126,67.112332 211.623461,67.369 L213.618461,67.369 Z" id="ReplaceTrending" fill="#FFFFFF" fill-rule="nonzero"></path>
                <rect id="Rectangle" fill="#D8D8D8" opacity="0.150227865" x="95" y="53.75" width="1" height="29"></rect>
                <rect id="Rectangle" fill="#D8D8D8" opacity="0.150227865" x="227" y="53.75" width="1" height="29"></rect>
                <path d="M328.031,70.47 L326.645,66.788 C326.532999,66.5033319 326.418667,66.1416689 326.302,65.703 C326.250666,65.9223344 326.194667,66.1241657 326.134,66.3085 C326.073333,66.4928343 326.017334,66.6549993 325.966,66.795 L324.58,70.47 L328.031,70.47 Z M331.132,74.25 L329.865,74.25 C329.720333,74.25 329.603667,74.2138337 329.515,74.1415 C329.426333,74.0691663 329.358667,73.9793339 329.312,73.872 L328.472,71.646 L324.132,71.646 L323.292,73.872 C323.254666,73.9653338 323.189334,74.0516663 323.096,74.131 C323.002666,74.2103337 322.886001,74.25 322.746,74.25 L321.479,74.25 L325.476,64.17 L327.135,64.17 L331.132,74.25 Z M333.459231,68.433 C333.683232,67.9803311 333.953896,67.6245013 334.271231,67.3655 C334.588566,67.1064987 334.968895,66.977 335.412231,66.977 C335.566232,66.977 335.710897,66.9944998 335.846231,67.0295 C335.981565,67.0645002 336.102897,67.1169996 336.210231,67.187 L336.105231,68.321 C336.086564,68.4003337 336.057398,68.4551665 336.017731,68.4855 C335.978064,68.5158335 335.925564,68.531 335.860231,68.531 C335.79023,68.531 335.689898,68.5181668 335.559231,68.4925 C335.428563,68.4668332 335.290898,68.454 335.146231,68.454 C334.93623,68.454 334.750732,68.484333 334.589731,68.545 C334.42873,68.605667 334.284065,68.6943328 334.155731,68.811 C334.027397,68.9276672 333.914231,69.0699992 333.816231,69.238 C333.71823,69.4060008 333.627231,69.5973323 333.543231,69.812 L333.543231,74.25 L332.038231,74.25 L332.038231,67.11 L332.913231,67.11 C333.071898,67.11 333.181564,67.1391664 333.242231,67.1975 C333.302898,67.2558336 333.344897,67.3573326 333.368231,67.502 L333.459231,68.433 Z M344.165462,74.25 L342.660462,74.25 L342.660462,68.293 L339.181462,68.293 L339.181462,72.346 C339.181462,72.6026679 339.244461,72.798666 339.370462,72.934 C339.496462,73.069334 339.66446,73.137 339.874462,73.137 C339.991129,73.137 340.091461,73.1218335 340.175462,73.0915 C340.259462,73.0611665 340.331795,73.0285002 340.392462,72.9935 C340.453128,72.9584998 340.505628,72.9258335 340.549962,72.8955 C340.594295,72.8651665 340.637461,72.85 340.679462,72.85 C340.763462,72.85 340.831128,72.8966662 340.882462,72.99 L341.330462,73.725 C341.097127,73.9303344 340.821796,74.0878328 340.504462,74.1975 C340.187127,74.3071672 339.860463,74.362 339.524462,74.362 C338.931792,74.362 338.47563,74.1951683 338.155962,73.8615 C337.836293,73.5278317 337.676462,73.0576697 337.676462,72.451 L337.676462,68.293 L336.892462,68.293 C336.808461,68.293 336.736128,68.2661669 336.675462,68.2125 C336.614795,68.1588331 336.584462,68.0783339 336.584462,67.971 L336.584462,67.362 L337.739462,67.194 L338.068462,65.129 C338.091795,65.0496663 338.131461,64.9855002 338.187462,64.9365 C338.243462,64.8874998 338.318128,64.863 338.411462,64.863 L339.181462,64.863 L339.181462,67.208 L344.165462,67.208 L344.165462,74.25 Z M344.473462,64.919 C344.473462,65.054334 344.446628,65.1814994 344.392962,65.3005 C344.339295,65.4195006 344.265795,65.5244995 344.172462,65.6155 C344.079128,65.7065005 343.970629,65.7788331 343.846962,65.8325 C343.723294,65.8861669 343.593796,65.913 343.458462,65.913 C343.323128,65.913 343.195962,65.8861669 343.076962,65.8325 C342.957961,65.7788331 342.852962,65.7065005 342.761962,65.6155 C342.670961,65.5244995 342.598628,65.4195006 342.544962,65.3005 C342.491295,65.1814994 342.464462,65.054334 342.464462,64.919 C342.464462,64.7789993 342.491295,64.6471673 342.544962,64.5235 C342.598628,64.3998327 342.670961,64.2925005 342.761962,64.2015 C342.852962,64.1104995 342.957961,64.0381669 343.076962,63.9845 C343.195962,63.9308331 343.323128,63.904 343.458462,63.904 C343.593796,63.904 343.723294,63.9308331 343.846962,63.9845 C343.970629,64.0381669 344.079128,64.1104995 344.172462,64.2015 C344.265795,64.2925005 344.339295,64.3998327 344.392962,64.5235 C344.446628,64.6471673 344.473462,64.7789993 344.473462,64.919 Z M351.140692,68.51 C351.094025,68.570667 351.049692,68.6173332 351.007692,68.65 C350.965692,68.6826668 350.905026,68.699 350.825692,68.699 C350.746359,68.699 350.663526,68.6710003 350.577192,68.615 C350.490859,68.5589997 350.388193,68.497167 350.269192,68.4295 C350.150192,68.361833 350.006693,68.3000003 349.838692,68.244 C349.670691,68.1879997 349.460694,68.16 349.208692,68.16 C348.882024,68.16 348.596194,68.2183328 348.351192,68.335 C348.106191,68.4516672 347.90086,68.6184989 347.735192,68.8355 C347.569525,69.0525011 347.445859,69.3161651 347.364192,69.6265 C347.282525,69.9368349 347.241692,70.2856647 347.241692,70.673 C347.241692,71.0743353 347.286025,71.4313318 347.374692,71.744 C347.463359,72.0566682 347.590525,72.3203323 347.756192,72.535 C347.92186,72.7496677 348.122524,72.9129994 348.358192,73.025 C348.59386,73.1370006 348.858691,73.193 349.152692,73.193 C349.442027,73.193 349.677691,73.1580003 349.859692,73.088 C350.041693,73.0179997 350.193358,72.9410004 350.314692,72.857 C350.436026,72.7729996 350.539859,72.6960003 350.626192,72.626 C350.712526,72.5559997 350.804692,72.521 350.902692,72.521 C351.024026,72.521 351.117359,72.5676662 351.182692,72.661 L351.609692,73.214 C351.437025,73.4240011 351.245693,73.6013326 351.035692,73.746 C350.825691,73.8906674 350.604027,74.0084995 350.370692,74.0995 C350.137358,74.1905005 349.894694,74.2558331 349.642692,74.2955 C349.390691,74.3351669 349.13636,74.355 348.879692,74.355 C348.436357,74.355 348.022194,74.2721675 347.637192,74.1065 C347.25219,73.9408325 346.916194,73.7005016 346.629192,73.3855 C346.342191,73.0704984 346.11586,72.6855023 345.950192,72.2305 C345.784525,71.7754977 345.701692,71.2563363 345.701692,70.673 C345.701692,70.145664 345.776358,69.6568356 345.925692,69.2065 C346.075026,68.7561644 346.293191,68.3676683 346.580192,68.041 C346.867194,67.7143317 347.223023,67.4588343 347.647692,67.2745 C348.072361,67.0901657 348.562356,66.998 349.117692,66.998 C349.635695,66.998 350.091857,67.0819992 350.486192,67.25 C350.880528,67.4180008 351.231691,67.6559985 351.539692,67.964 L351.140692,68.51 Z M354.377923,63.89 L354.377923,74.25 L352.872923,74.25 L352.872923,63.89 L354.377923,63.89 Z M360.954154,69.875 C360.954154,69.6229987 360.917987,69.3885011 360.845654,69.1715 C360.77332,68.9544989 360.667154,68.7655008 360.527154,68.6045 C360.387153,68.4434992 360.213322,68.3175005 360.005654,68.2265 C359.797986,68.1354995 359.558822,68.09 359.288154,68.09 C358.742151,68.09 358.312822,68.2463318 358.000154,68.559 C357.687486,68.8716682 357.489154,69.3103305 357.405154,69.875 L360.954154,69.875 Z M357.363154,70.799 C357.381821,71.205002 357.44482,71.5561652 357.552154,71.8525 C357.659488,72.1488348 357.802986,72.394999 357.982654,72.591 C358.162321,72.787001 358.376986,72.9328329 358.626654,73.0285 C358.876322,73.1241671 359.155152,73.172 359.463154,73.172 C359.757155,73.172 360.011486,73.138167 360.226154,73.0705 C360.440822,73.002833 360.627486,72.9281671 360.786154,72.8465 C360.944821,72.7648329 361.080153,72.690167 361.192154,72.6225 C361.304154,72.554833 361.40682,72.521 361.500154,72.521 C361.621488,72.521 361.71482,72.5676662 361.780154,72.661 L362.207154,73.214 C362.02982,73.4240011 361.829155,73.6013326 361.605154,73.746 C361.381153,73.8906674 361.143155,74.0084995 360.891154,74.0995 C360.639153,74.1905005 360.380155,74.2558331 360.114154,74.2955 C359.848152,74.3351669 359.589155,74.355 359.337154,74.355 C358.842485,74.355 358.383989,74.2721675 357.961654,74.1065 C357.539318,73.9408325 357.172989,73.6970016 356.862654,73.375 C356.552319,73.0529984 356.309655,72.6540024 356.134654,72.178 C355.959653,71.7019976 355.872154,71.1536698 355.872154,70.533 C355.872154,70.0383309 355.95032,69.5763355 356.106654,69.147 C356.262988,68.7176645 356.486986,68.3443349 356.778654,68.027 C357.070322,67.7096651 357.424985,67.4588343 357.842654,67.2745 C358.260323,67.0901657 358.732818,66.998 359.260154,66.998 C359.698823,66.998 360.104819,67.069166 360.478154,67.2115 C360.851489,67.353834 361.173486,67.5626653 361.444154,67.838 C361.714822,68.1133347 361.925986,68.450498 362.077654,68.8495 C362.229321,69.248502 362.305154,69.7023308 362.305154,70.211 C362.305154,70.4443345 362.279487,70.6006663 362.228154,70.68 C362.17682,70.7593337 362.083488,70.799 361.948154,70.799 L357.363154,70.799 Z M373.238615,67.11 L369.304615,76.28 C369.253282,76.3873339 369.191449,76.471333 369.119115,76.532 C369.046782,76.592667 368.935949,76.623 368.786615,76.623 L367.673615,76.623 L368.989615,73.767 L366.077615,67.11 L367.386615,67.11 C367.512616,67.11 367.609448,67.1391664 367.677115,67.1975 C367.744782,67.2558336 367.794948,67.3246663 367.827615,67.404 L369.528615,71.457 C369.570616,71.5736672 369.609115,71.6891661 369.644115,71.8035 C369.679115,71.9178339 369.712948,72.0356661 369.745615,72.157 C369.782949,72.0356661 369.820282,71.9166673 369.857615,71.8 C369.894949,71.6833328 369.936948,71.5666672 369.983615,71.45 L371.614615,67.404 C371.647282,67.3199996 371.702115,67.2500003 371.779115,67.194 C371.856116,67.1379997 371.941282,67.11 372.034615,67.11 L373.238615,67.11 Z M377.119846,66.998 C377.647182,66.998 378.124344,67.0843325 378.551346,67.257 C378.978348,67.4296675 379.342345,67.6746651 379.643346,67.992 C379.944348,68.3093349 380.176512,68.6943311 380.339846,69.147 C380.50318,69.5996689 380.584846,70.1083305 380.584846,70.673 C380.584846,71.2376695 380.50318,71.7463311 380.339846,72.199 C380.176512,72.6516689 379.944348,73.0378317 379.643346,73.3575 C379.342345,73.6771683 378.978348,73.9233325 378.551346,74.096 C378.124344,74.2686675 377.647182,74.355 377.119846,74.355 C376.587843,74.355 376.108348,74.2686675 375.681346,74.096 C375.254344,73.9233325 374.889181,73.6771683 374.585846,73.3575 C374.282511,73.0378317 374.04918,72.6516689 373.885846,72.199 C373.722512,71.7463311 373.640846,71.2376695 373.640846,70.673 C373.640846,70.1083305 373.722512,69.5996689 373.885846,69.147 C374.04918,68.6943311 374.282511,68.3093349 374.585846,67.992 C374.889181,67.6746651 375.254344,67.4296675 375.681346,67.257 C376.108348,67.0843325 376.587843,66.998 377.119846,66.998 Z M377.119846,73.179 C377.763849,73.179 378.243345,72.9631688 378.558346,72.5315 C378.873348,72.0998312 379.030846,71.4826707 379.030846,70.68 C379.030846,69.8773293 378.873348,69.2578355 378.558346,68.8215 C378.243345,68.3851645 377.763849,68.167 377.119846,68.167 C376.466509,68.167 375.981181,68.3851645 375.663846,68.8215 C375.346511,69.2578355 375.187846,69.8773293 375.187846,70.68 C375.187846,71.4826707 375.346511,72.0998312 375.663846,72.5315 C375.981181,72.9631688 376.466509,73.179 377.119846,73.179 Z M388.078077,67.11 L388.078077,74.25 L387.168077,74.25 C386.967409,74.25 386.839077,74.1543343 386.783077,73.963 L386.671077,73.298 C386.521743,73.4566675 386.364244,73.6013327 386.198577,73.732 C386.032909,73.8626673 385.856744,73.9746662 385.670077,74.068 C385.483409,74.1613338 385.283911,74.2336664 385.071577,74.285 C384.859242,74.3363336 384.631745,74.362 384.389077,74.362 C383.997075,74.362 383.651745,74.2966673 383.353077,74.166 C383.054409,74.0353327 382.803578,73.8510012 382.600577,73.613 C382.397576,73.3749988 382.244744,73.0891683 382.142077,72.7555 C382.03941,72.4218317 381.988077,72.0543353 381.988077,71.653 L381.988077,67.11 L383.493077,67.11 L383.493077,71.653 C383.493077,72.1336691 383.603909,72.5069987 383.825577,72.773 C384.047245,73.0390013 384.384408,73.172 384.837077,73.172 C385.168412,73.172 385.477575,73.0961674 385.764577,72.9445 C386.051578,72.7928326 386.321076,72.5840013 386.573077,72.318 L386.573077,67.11 L388.078077,67.11 Z M397.723538,68.405 C397.686205,68.4703337 397.644205,68.5169999 397.597538,68.545 C397.550871,68.5730001 397.492539,68.587 397.422538,68.587 C397.343205,68.587 397.256872,68.5625002 397.163538,68.5135 C397.070205,68.4644998 396.960539,68.409667 396.834538,68.349 C396.708538,68.288333 396.560373,68.2335002 396.390038,68.1845 C396.219704,68.1354998 396.020206,68.111 395.791538,68.111 C395.604871,68.111 395.435706,68.1331664 395.284038,68.1775 C395.132371,68.2218336 395.004039,68.2848329 394.899038,68.3665 C394.794038,68.4481671 394.713539,68.5438328 394.657538,68.6535 C394.601538,68.7631672 394.573538,68.8809994 394.573538,69.007 C394.573538,69.1750008 394.624871,69.3149994 394.727538,69.427 C394.830206,69.5390006 394.965538,69.6358329 395.133538,69.7175 C395.301539,69.7991671 395.492871,69.8726663 395.707538,69.938 C395.922206,70.0033337 396.141537,70.073333 396.365538,70.148 C396.589539,70.222667 396.808871,70.3089995 397.023538,70.407 C397.238206,70.5050005 397.429538,70.625166 397.597538,70.7675 C397.765539,70.909834 397.900871,71.082499 398.003538,71.2855 C398.106206,71.488501 398.157538,71.7346652 398.157538,72.024 C398.157538,72.3600017 398.096872,72.6703319 397.975538,72.955 C397.854204,73.2396681 397.676873,73.486999 397.443538,73.697 C397.210204,73.9070011 396.919707,74.0703328 396.572038,74.187 C396.22437,74.3036673 395.826541,74.362 395.378538,74.362 C395.131204,74.362 394.89204,74.3398336 394.661038,74.2955 C394.430037,74.2511664 394.210706,74.1905004 394.003038,74.1135 C393.795371,74.0364996 393.601706,73.9443339 393.422038,73.837 C393.242371,73.7296661 393.082539,73.6130006 392.942538,73.487 L393.292538,72.913 C393.334539,72.8429996 393.387038,72.7881669 393.450038,72.7485 C393.513039,72.7088331 393.591205,72.689 393.684538,72.689 C393.782539,72.689 393.879371,72.7204997 393.975038,72.7835 C394.070706,72.8465003 394.182704,72.915333 394.311038,72.99 C394.439372,73.064667 394.594537,73.1334997 394.776538,73.1965 C394.958539,73.2595003 395.18487,73.291 395.455538,73.291 C395.679539,73.291 395.873204,73.2641669 396.036538,73.2105 C396.199873,73.1568331 396.335204,73.0833338 396.442538,72.99 C396.549872,72.8966662 396.629205,72.7905006 396.680538,72.6715 C396.731872,72.5524994 396.757538,72.425334 396.757538,72.29 C396.757538,72.1079991 396.706206,71.9586673 396.603538,71.842 C396.500871,71.7253328 396.364373,71.6250004 396.194038,71.541 C396.023704,71.4569996 395.830039,71.3823337 395.613038,71.317 C395.396037,71.2516663 395.175539,71.181667 394.951538,71.107 C394.727537,71.032333 394.507039,70.9460005 394.290038,70.848 C394.073037,70.7499995 393.879373,70.6251674 393.709038,70.4735 C393.538704,70.3218326 393.402206,70.1375011 393.299538,69.9205 C393.196871,69.7034989 393.145538,69.4386682 393.145538,69.126 C393.145538,68.8413319 393.202704,68.570668 393.317038,68.314 C393.431372,68.057332 393.599371,67.831001 393.821038,67.635 C394.042706,67.438999 394.315703,67.2838339 394.640038,67.1695 C394.964373,67.0551661 395.33887,66.998 395.763538,66.998 C396.244207,66.998 396.680536,67.0749992 397.072538,67.229 C397.46454,67.3830008 397.793537,67.5929987 398.059538,67.859 L397.723538,68.405 Z M403.417769,71.128 C402.8811,71.1466668 402.428438,71.189833 402.059769,71.2575 C401.691101,71.325167 401.392437,71.4114995 401.163769,71.5165 C400.935101,71.6215005 400.770603,71.7463326 400.670269,71.891 C400.569935,72.0356674 400.519769,72.1943325 400.519769,72.367 C400.519769,72.5350008 400.546602,72.6784994 400.600269,72.7975 C400.653936,72.9165006 400.728602,73.0144996 400.824269,73.0915 C400.919936,73.1685004 401.031935,73.2244998 401.160269,73.2595 C401.288603,73.2945002 401.429768,73.312 401.583769,73.312 C401.975771,73.312 402.312934,73.2385007 402.595269,73.0915 C402.877604,72.9444993 403.151768,72.7310014 403.417769,72.451 L403.417769,71.128 Z M399.427769,68.104 C400.235106,67.3526629 401.19643,66.977 402.311769,66.977 C402.722438,66.977 403.087601,67.0434993 403.407269,67.1765 C403.726937,67.3095007 403.995268,67.4973321 404.212269,67.74 C404.42927,67.9826679 404.594935,68.2708317 404.709269,68.6045 C404.823603,68.9381683 404.880769,69.307998 404.880769,69.714 L404.880769,74.25 L404.208769,74.25 C404.064102,74.25 403.954436,74.2278336 403.879769,74.1835 C403.805102,74.1391664 403.742103,74.049334 403.690769,73.914 L403.543769,73.333 C403.361768,73.4963341 403.182103,73.642166 403.004769,73.7705 C402.827435,73.898834 402.64427,74.0073329 402.455269,74.096 C402.266268,74.1846671 402.06327,74.2511664 401.846269,74.2955 C401.629268,74.3398336 401.390104,74.362 401.128769,74.362 C400.839434,74.362 400.569937,74.3223337 400.320269,74.243 C400.070601,74.1636663 399.85477,74.0435008 399.672769,73.8825 C399.490768,73.7214992 399.34727,73.5220012 399.242269,73.284 C399.137269,73.0459988 399.084769,72.7660016 399.084769,72.444 C399.084769,72.1686653 399.158268,71.9003346 399.305269,71.639 C399.45227,71.3776654 399.694934,71.1431677 400.033269,70.9355 C400.371604,70.7278323 400.817266,70.556334 401.370269,70.421 C401.923272,70.285666 402.605765,70.2086668 403.417769,70.19 L403.417769,69.714 C403.417769,69.2006641 403.308104,68.8180013 403.088769,68.566 C402.869435,68.3139987 402.547438,68.188 402.122769,68.188 C401.833434,68.188 401.59077,68.2241663 401.394769,68.2965 C401.198768,68.3688337 401.028437,68.4469996 400.883769,68.531 C400.739102,68.6150004 400.61077,68.6931663 400.498769,68.7655 C400.386769,68.8378337 400.26777,68.874 400.141769,68.874 C400.039102,68.874 399.951603,68.8471669 399.879269,68.7935 C399.806935,68.7398331 399.747436,68.6733337 399.700769,68.594 L399.427769,68.104 Z M412.794,67.11 L409.924,74.25 L408.566,74.25 L405.696,67.11 L406.935,67.11 C407.051667,67.11 407.148499,67.1391664 407.2255,67.1975 C407.3025,67.2558336 407.352666,67.3246663 407.376,67.404 L408.958,71.562 C409.023334,71.758001 409.081666,71.9516657 409.133,72.143 C409.184333,72.3343343 409.228666,72.527999 409.266,72.724 C409.303333,72.527999 409.348833,72.3355009 409.4025,72.1465 C409.456167,71.9574991 409.515666,71.7626677 409.581,71.562 L411.191,67.404 C411.219,67.3199996 411.270333,67.2500003 411.345,67.194 C411.419667,67.1379997 411.510666,67.11 411.618,67.11 L412.794,67.11 Z M418.327231,69.875 C418.327231,69.6229987 418.291064,69.3885011 418.218731,69.1715 C418.146397,68.9544989 418.040231,68.7655008 417.900231,68.6045 C417.76023,68.4434992 417.586398,68.3175005 417.378731,68.2265 C417.171063,68.1354995 416.931899,68.09 416.661231,68.09 C416.115228,68.09 415.685899,68.2463318 415.373231,68.559 C415.060562,68.8716682 414.862231,69.3103305 414.778231,69.875 L418.327231,69.875 Z M414.736231,70.799 C414.754897,71.205002 414.817897,71.5561652 414.925231,71.8525 C415.032565,72.1488348 415.176063,72.394999 415.355731,72.591 C415.535398,72.787001 415.750063,72.9328329 415.999731,73.0285 C416.249399,73.1241671 416.528229,73.172 416.836231,73.172 C417.130232,73.172 417.384563,73.138167 417.599231,73.0705 C417.813898,73.002833 418.000563,72.9281671 418.159231,72.8465 C418.317898,72.7648329 418.45323,72.690167 418.565231,72.6225 C418.677231,72.554833 418.779897,72.521 418.873231,72.521 C418.994565,72.521 419.087897,72.5676662 419.153231,72.661 L419.580231,73.214 C419.402896,73.4240011 419.202232,73.6013326 418.978231,73.746 C418.75423,73.8906674 418.516232,74.0084995 418.264231,74.0995 C418.012229,74.1905005 417.753232,74.2558331 417.487231,74.2955 C417.221229,74.3351669 416.962232,74.355 416.710231,74.355 C416.215562,74.355 415.757066,74.2721675 415.334731,74.1065 C414.912395,73.9408325 414.546066,73.6970016 414.235731,73.375 C413.925396,73.0529984 413.682732,72.6540024 413.507731,72.178 C413.33273,71.7019976 413.245231,71.1536698 413.245231,70.533 C413.245231,70.0383309 413.323397,69.5763355 413.479731,69.147 C413.636065,68.7176645 413.860063,68.3443349 414.151731,68.027 C414.443399,67.7096651 414.798062,67.4588343 415.215731,67.2745 C415.633399,67.0901657 416.105895,66.998 416.633231,66.998 C417.071899,66.998 417.477895,67.069166 417.851231,67.2115 C418.224566,67.353834 418.546563,67.5626653 418.817231,67.838 C419.087899,68.1133347 419.299063,68.450498 419.450731,68.8495 C419.602398,69.248502 419.678231,69.7023308 419.678231,70.211 C419.678231,70.4443345 419.652564,70.6006663 419.601231,70.68 C419.549897,70.7593337 419.456565,70.799 419.321231,70.799 L414.736231,70.799 Z M425.666461,68.867 C425.45646,68.596332 425.225463,68.4073339 424.973461,68.3 C424.72146,68.1926661 424.448463,68.139 424.154461,68.139 C423.566458,68.139 423.106796,68.3548312 422.775461,68.7865 C422.444126,69.2181688 422.278461,69.8563291 422.278461,70.701 C422.278461,71.1396689 422.315794,71.5141651 422.390461,71.8245 C422.465128,72.1348349 422.572461,72.387999 422.712461,72.584 C422.852462,72.780001 423.022794,72.9223329 423.223461,73.011 C423.424129,73.0996671 423.65046,73.144 423.902461,73.144 C424.28513,73.144 424.615293,73.0611675 424.892961,72.8955 C425.170629,72.7298325 425.42846,72.4953349 425.666461,72.192 L425.666461,68.867 Z M427.171461,63.89 L427.171461,74.25 L426.261461,74.25 C426.060794,74.25 425.932462,74.1543343 425.876461,73.963 L425.743461,73.186 C425.444793,73.5360017 425.105297,73.8183323 424.724961,74.033 C424.344626,74.2476677 423.902464,74.355 423.398461,74.355 C422.997126,74.355 422.63313,74.2745008 422.306461,74.1135 C421.979793,73.9524992 421.699796,73.7180015 421.466461,73.41 C421.233127,73.1019985 421.052295,72.7205023 420.923961,72.2655 C420.795627,71.8104977 420.731461,71.2890029 420.731461,70.701 C420.731461,70.1689973 420.802627,69.6766689 420.944961,69.224 C421.087295,68.7713311 421.29146,68.3781683 421.557461,68.0445 C421.823463,67.7108317 422.146626,67.4495009 422.526961,67.2605 C422.907297,67.0714991 423.333126,66.977 423.804461,66.977 C424.224464,66.977 424.58146,67.0434993 424.875461,67.1765 C425.169463,67.3095007 425.433127,67.4949988 425.666461,67.733 L425.666461,63.89 L427.171461,63.89 Z" id="Artcleyousaved" fill="#4A5865" fill-rule="nonzero"></path>
                <rect id="Rectangle" fill="#D8D8D8" opacity="0.150227865" x="307" y="53.75" width="1" height="29"></rect>
                <path d="M162.559846,84.9388381 L179.210675,112.18565 C180.074642,113.599414 179.628943,115.445879 178.21518,116.309846 C177.744156,116.597693 177.202844,116.75 176.650829,116.75 L143.349171,116.75 C141.692316,116.75 140.349171,115.406854 140.349171,113.75 C140.349171,113.197986 140.501477,112.656674 140.789325,112.18565 L157.440154,84.9388381 C158.304121,83.5250745 160.150586,83.079376 161.56435,83.9433426 C161.970448,84.1915134 162.311675,84.5327404 162.559846,84.9388381 Z" id="Triangle" fill="#138FA5"></path>
                <g id="Group" transform="translate(117.518022, 81.500000)" stroke="#F5A623" stroke-linecap="round" stroke-linejoin="round" stroke-width="5">
                    <path d="M10.5375054,3.02222222 L24.3293457,9.63333333" id="Path" transform="translate(17.433426, 6.327778) rotate(24.000000) translate(-17.433426, -6.327778) "></path>
                    <path d="M2.68781824,12.1476179 L16.4796585,18.758729" id="Path" transform="translate(9.583738, 15.453173) rotate(-6.000000) translate(-9.583738, -15.453173) "></path>
                    <path d="M0.755555556,24.366177 L14.5473958,30.9772881" id="Path" transform="translate(7.651476, 27.671733) rotate(-30.000000) translate(-7.651476, -27.671733) "></path>
                </g>
                <g id="Group" transform="translate(190.206911, 98.500000) scale(-1, 1) translate(-190.206911, -98.500000) translate(177.362466, 81.500000)" stroke="#F5A623" stroke-linecap="round" stroke-linejoin="round" stroke-width="5">
                    <path d="M10.5375054,3.02222222 L24.3293457,9.63333333" id="Path" transform="translate(17.433426, 6.327778) rotate(24.000000) translate(-17.433426, -6.327778) "></path>
                    <path d="M2.68781824,12.1476179 L16.4796585,18.758729" id="Path" transform="translate(9.583738, 15.453173) rotate(-6.000000) translate(-9.583738, -15.453173) "></path>
                    <path d="M0.755555556,24.366177 L14.5473958,30.9772881" id="Path" transform="translate(7.651476, 27.671733) rotate(-30.000000) translate(-7.651476, -27.671733) "></path>
                </g>
                <rect id="Rectangle" fill="#138FA5" x="153" y="105.75" width="14" height="26" rx="5"></rect>
            </g>
        </g>
    </g>
</svg>