<?xml version="1.0" encoding="UTF-8"?>
<svg width="364px" height="136px" viewBox="0 0 364 136" version="1.1" xmlns="http://www.w3.org/2000/svg" xmlns:xlink="http://www.w3.org/1999/xlink">
    <!-- Generator: Sketch 54.1 (76490) - https://sketchapp.com -->
    <title>whats-happening</title>
    <desc>Created with Sketch.</desc>
    <g id="Page-1" stroke="none" stroke-width="1" fill="none" fill-rule="evenodd">
        <g id="Desktop-Copy-2" transform="translate(-330.000000, -381.000000)">
            <g id="whats-happening" transform="translate(330.000000, 381.000000)">
                <path d="M12,0 L352,0 C358.627417,-1.21743675e-15 364,5.372583 364,12 L364,136 L0,136 L0,12 C-8.11624501e-16,5.372583 5.372583,1.21743675e-15 12,0 Z" id="Rectangle" fill="#1A2C3C"></path>
                <path d="M38.0273846,21.414 C38.1593852,21.0619982 38.3610499,20.7943343 38.6323846,20.611 C38.9037193,20.4276657 39.2080495,20.336 39.5453846,20.336 C39.97072,20.336 40.3337164,20.4679987 40.6343846,20.732 C40.9350527,20.9960013 41.0853846,21.3553311 41.0853846,21.81 C41.0853846,22.0300011 41.041385,22.2719987 40.9533846,22.536 L36.3773846,35.054 C36.2453839,35.4060018 36.0143862,35.680999 35.6843846,35.879 C35.3543829,36.077001 34.9913865,36.176 34.5953846,36.176 C34.1993826,36.176 33.8400528,36.077001 33.5173846,35.879 C33.1947163,35.680999 32.9673852,35.4060018 32.8353846,35.054 L29.5573846,25.792 L26.1913846,35.054 C26.0593839,35.4060018 25.8320528,35.680999 25.5093846,35.879 C25.1867163,36.077001 24.8273865,36.176 24.4313846,36.176 C24.0500493,36.176 23.6943862,36.077001 23.3643846,35.879 C23.0343829,35.680999 22.8033852,35.4060018 22.6713846,35.054 L18.0953846,22.536 C18.0073841,22.2866654 17.9633846,22.0520011 17.9633846,21.832 C17.9633846,21.3773311 18.1247163,21.0143347 18.4473846,20.743 C18.7700528,20.4716653 19.1513824,20.336 19.5913846,20.336 C19.9433863,20.336 20.2623831,20.4276657 20.5483846,20.611 C20.834386,20.7943343 21.0433839,21.0619982 21.1753846,21.414 L24.5633846,31.16 L28.0833846,21.458 C28.2153852,21.1059982 28.4243831,20.8346676 28.7103846,20.644 C28.996386,20.4533324 29.3007163,20.358 29.6233846,20.358 C29.9607196,20.358 30.2687165,20.4533324 30.5473846,20.644 C30.8260526,20.8346676 31.0313839,21.1133315 31.1633846,21.48 L34.5293846,31.336 L38.0273846,21.414 Z M50.8584615,24.934 C53.366474,24.934 54.6204615,26.4519848 54.6204615,29.488 L54.6204615,34.57 C54.6204615,35.0540024 54.4701297,35.4353319 54.1694615,35.714 C53.8687933,35.9926681 53.4617974,36.132 52.9484615,36.132 C52.4351256,36.132 52.0317963,35.9926681 51.7384615,35.714 C51.4451267,35.4353319 51.2984615,35.0540024 51.2984615,34.57 L51.2984615,29.444 C51.2984615,28.7986634 51.1627962,28.3183349 50.8914615,28.003 C50.6201268,27.6876651 50.1984644,27.53 49.6264615,27.53 C48.9371247,27.53 48.3834636,27.7499978 47.9654615,28.19 C47.5474594,28.6300022 47.3384615,29.216663 47.3384615,29.95 L47.3384615,34.57 C47.3384615,35.0540024 47.1917963,35.4353319 46.8984615,35.714 C46.6051267,35.9926681 46.2017974,36.132 45.6884615,36.132 C45.1751256,36.132 44.7681297,35.9926681 44.4674615,35.714 C44.1667933,35.4353319 44.0164615,35.0540024 44.0164615,34.57 L44.0164615,21.898 C44.0164615,21.4433311 44.1741266,21.0766681 44.4894615,20.798 C44.8047964,20.5193319 45.2191256,20.38 45.7324615,20.38 C46.2164639,20.38 46.6051267,20.5119987 46.8984615,20.776 C47.1917963,21.0400013 47.3384615,21.3919978 47.3384615,21.832 L47.3384615,26.628 C47.7197967,26.0706639 48.2111252,25.6490014 48.8124615,25.363 C49.4137978,25.0769986 50.095791,24.934 50.8584615,24.934 Z M62.0175384,24.934 C63.6015463,24.934 64.7748679,25.3189962 65.5375384,26.089 C66.3002089,26.8590039 66.6815384,28.0359921 66.6815384,29.62 L66.6815384,34.592 C66.6815384,35.0760024 66.5422065,35.4536653 66.2635384,35.725 C65.9848704,35.9963347 65.5962076,36.132 65.0975384,36.132 C64.6282027,36.132 64.2505399,35.9890014 63.9645384,35.703 C63.678537,35.4169986 63.5355384,35.0466689 63.5355384,34.592 L63.5355384,34.438 C63.3155373,34.9806694 62.9488743,35.4059985 62.4355384,35.714 C61.9222025,36.0220015 61.3208752,36.176 60.6315384,36.176 C59.8982014,36.176 59.2345414,36.0293348 58.6405384,35.736 C58.0465355,35.4426652 57.5772068,35.0320026 57.2325384,34.504 C56.88787,33.9759974 56.7155384,33.3893366 56.7155384,32.744 C56.7155384,31.951996 56.9172031,31.3286689 57.3205384,30.874 C57.7238738,30.4193311 58.3728673,30.0893344 59.2675384,29.884 C60.1622096,29.6786656 61.386864,29.576 62.9415384,29.576 L63.5135384,29.576 L63.5135384,29.18 C63.5135384,28.5639969 63.3778731,28.1166681 63.1065384,27.838 C62.8352037,27.5593319 62.3842082,27.42 61.7535384,27.42 C61.1228686,27.42 60.2135444,27.6399978 59.0255384,28.08 C58.6882034,28.2413341 58.4022063,28.322 58.1675384,28.322 C57.8448701,28.322 57.588206,28.2083345 57.3975384,27.981 C57.2068708,27.7536655 57.1115384,27.4566685 57.1115384,27.09 C57.1115384,26.7966652 57.1775378,26.5546676 57.3095384,26.364 C57.4415391,26.1733324 57.6542036,25.9973341 57.9475384,25.836 C58.4608743,25.5573319 59.0878681,25.3373341 59.8285384,25.176 C60.5692088,25.0146659 61.2988682,24.934 62.0175384,24.934 Z M61.3575384,33.888 C62.002875,33.888 62.5235364,33.6716688 62.9195384,33.239 C63.3155404,32.8063312 63.5135384,32.2453368 63.5135384,31.556 L63.5135384,31.182 L63.1395384,31.182 C61.9515325,31.182 61.1192075,31.2773324 60.6425384,31.468 C60.1658694,31.6586676 59.9275384,32.0033308 59.9275384,32.502 C59.9275384,32.9126687 60.0632037,33.246332 60.3345384,33.503 C60.6058731,33.759668 60.9468697,33.888 61.3575384,33.888 Z M75.2226154,33.712 C75.6626176,33.7413335 75.985281,33.8513324 76.1906154,34.042 C76.3959497,34.2326676 76.4986154,34.5113315 76.4986154,34.878 C76.4986154,35.3033355 76.3299504,35.6259989 75.9926154,35.846 C75.6552803,36.0660011 75.1712852,36.1540002 74.5406154,36.11 L73.9246154,36.066 C71.3579359,35.8606656 70.0746154,34.5186791 70.0746154,32.04 L70.0746154,27.684 L69.1946154,27.684 C68.7106129,27.684 68.3439499,27.5776677 68.0946154,27.365 C67.8452808,27.1523323 67.7206154,26.848002 67.7206154,26.452 C67.7206154,26.0413313 67.8452808,25.7296677 68.0946154,25.517 C68.3439499,25.3043323 68.7106129,25.198 69.1946154,25.198 L70.0746154,25.198 L70.0746154,23.482 C70.0746154,22.9979976 70.2249472,22.6166681 70.5256154,22.338 C70.8262835,22.0593319 71.2332795,21.92 71.7466154,21.92 C72.2599513,21.92 72.6632806,22.0593319 72.9566154,22.338 C73.2499502,22.6166681 73.3966154,22.9979976 73.3966154,23.482 L73.3966154,25.198 L74.9366154,25.198 C75.9339537,25.198 76.4326154,25.6159958 76.4326154,26.452 C76.4326154,26.848002 76.3079499,27.1523323 76.0586154,27.365 C75.8092808,27.5776677 75.4352845,27.684 74.9366154,27.684 L73.3966154,27.684 L73.3966154,32.282 C73.3966154,32.7220022 73.499281,33.0556655 73.7046154,33.283 C73.9099497,33.5103345 74.2106134,33.6386665 74.6066154,33.668 L75.2226154,33.712 Z M79.4956923,20.38 C80.0823619,20.38 80.5516905,20.5889979 80.9036923,21.007 C81.255694,21.4250021 81.4316923,22.029996 81.4316923,22.822 C81.4316923,24.347341 80.8816978,25.6819943 79.7816923,26.826 C79.5910247,27.0313344 79.3636936,27.134 79.0996923,27.134 C78.8503577,27.134 78.6303599,27.0496675 78.4396923,26.881 C78.2490247,26.7123325 78.1536923,26.5106678 78.1536923,26.276 C78.1536923,26.0706656 78.2343581,25.8800009 78.3956923,25.704 C78.8796947,25.1906641 79.2023581,24.6406696 79.3636923,24.054 C78.8650231,24.0099998 78.4616938,23.8266683 78.1536923,23.504 C77.8456907,23.1813317 77.6916923,22.7706692 77.6916923,22.272 C77.6916923,21.7293306 77.8640239,21.2783351 78.2086923,20.919 C78.5533607,20.5596649 78.9823564,20.38 79.4956923,20.38 Z M87.2887692,36.176 C86.3940981,36.176 85.6167725,36.1026674 84.9567692,35.956 C84.2967659,35.8093326 83.7174384,35.5746683 83.2187692,35.252 C82.9987681,35.1199993 82.8301031,34.9440011 82.7127692,34.724 C82.5954353,34.5039989 82.5367692,34.2546681 82.5367692,33.976 C82.5367692,33.638665 82.6321016,33.3563345 82.8227692,33.129 C83.0134368,32.9016655 83.2481012,32.788 83.5267692,32.788 C83.7174368,32.788 83.9081016,32.8209997 84.0987692,32.887 C84.2894368,32.9530003 84.4874349,33.0299996 84.6927692,33.118 C85.1034379,33.3086676 85.5067672,33.4589995 85.9027692,33.569 C86.2987712,33.6790005 86.7900996,33.734 87.3767692,33.734 C87.8901051,33.734 88.2897678,33.6533341 88.5757692,33.492 C88.8617706,33.3306659 89.0047692,33.1106681 89.0047692,32.832 C89.0047692,32.6266656 88.9424365,32.4616673 88.8177692,32.337 C88.6931019,32.2123327 88.4621042,32.0986672 88.1247692,31.996 C87.7874342,31.8933328 87.2521062,31.7686674 86.5187692,31.622 C85.2134294,31.3726654 84.2747721,30.9986692 83.7027692,30.5 C83.1307664,30.0013308 82.8447692,29.3046711 82.8447692,28.41 C82.8447692,27.7499967 83.0464339,27.1560026 83.4497692,26.628 C83.8531046,26.0999974 84.4067657,25.6856682 85.1107692,25.385 C85.8147727,25.0843318 86.6067648,24.934 87.4867692,24.934 C88.117439,24.934 88.7334329,25.0146659 89.3347692,25.176 C89.9361056,25.3373341 90.4714335,25.5646652 90.9407692,25.858 C91.3954382,26.1366681 91.6227692,26.5473306 91.6227692,27.09 C91.6227692,27.4420018 91.5274368,27.7353322 91.3367692,27.97 C91.1461016,28.2046678 90.9114373,28.322 90.6327692,28.322 C90.2954342,28.322 89.8921049,28.1900013 89.4227692,27.926 C89.0561007,27.7353324 88.7224374,27.5923338 88.4217692,27.497 C88.121101,27.4016662 87.7654379,27.354 87.3547692,27.354 C86.9001003,27.354 86.5407705,27.4383325 86.2767692,27.607 C86.0127679,27.7756675 85.8807692,28.0066652 85.8807692,28.3 C85.8807692,28.6080015 86.0347677,28.8426659 86.3427692,29.004 C86.6507708,29.1653341 87.2447648,29.3266659 88.1247692,29.488 C89.1074408,29.6786676 89.8774331,29.9096653 90.4347692,30.181 C90.9921053,30.4523347 91.3954346,30.7933313 91.6447692,31.204 C91.8941038,31.6146687 92.0187692,32.1353302 92.0187692,32.766 C92.0187692,33.8073385 91.5897735,34.6359969 90.7317692,35.252 C89.8737649,35.8680031 88.7261097,36.176 87.2887692,36.176 Z M106.988923,24.934 C109.496936,24.934 110.750923,26.4519848 110.750923,29.488 L110.750923,34.57 C110.750923,35.0540024 110.600591,35.4353319 110.299923,35.714 C109.999255,35.9926681 109.592259,36.132 109.078923,36.132 C108.565587,36.132 108.162258,35.9926681 107.868923,35.714 C107.575588,35.4353319 107.428923,35.0540024 107.428923,34.57 L107.428923,29.444 C107.428923,28.7986634 107.293258,28.3183349 107.021923,28.003 C106.750588,27.6876651 106.328926,27.53 105.756923,27.53 C105.067586,27.53 104.513925,27.7499978 104.095923,28.19 C103.677921,28.6300022 103.468923,29.216663 103.468923,29.95 L103.468923,34.57 C103.468923,35.0540024 103.322258,35.4353319 103.028923,35.714 C102.735588,35.9926681 102.332259,36.132 101.818923,36.132 C101.305587,36.132 100.898591,35.9926681 100.597923,35.714 C100.297255,35.4353319 100.146923,35.0540024 100.146923,34.57 L100.146923,21.898 C100.146923,21.4433311 100.304588,21.0766681 100.619923,20.798 C100.935258,20.5193319 101.349587,20.38 101.862923,20.38 C102.346925,20.38 102.735588,20.5119987 103.028923,20.776 C103.322258,21.0400013 103.468923,21.3919978 103.468923,21.832 L103.468923,26.628 C103.850258,26.0706639 104.341587,25.6490014 104.942923,25.363 C105.544259,25.0769986 106.226253,24.934 106.988923,24.934 Z M118.148,24.934 C119.732008,24.934 120.90533,25.3189962 121.668,26.089 C122.43067,26.8590039 122.812,28.0359921 122.812,29.62 L122.812,34.592 C122.812,35.0760024 122.672668,35.4536653 122.394,35.725 C122.115332,35.9963347 121.726669,36.132 121.228,36.132 C120.758664,36.132 120.381001,35.9890014 120.095,35.703 C119.808999,35.4169986 119.666,35.0466689 119.666,34.592 L119.666,34.438 C119.445999,34.9806694 119.079336,35.4059985 118.566,35.714 C118.052664,36.0220015 117.451337,36.176 116.762,36.176 C116.028663,36.176 115.365003,36.0293348 114.771,35.736 C114.176997,35.4426652 113.707668,35.0320026 113.363,34.504 C113.018332,33.9759974 112.846,33.3893366 112.846,32.744 C112.846,31.951996 113.047665,31.3286689 113.451,30.874 C113.854335,30.4193311 114.503329,30.0893344 115.398,29.884 C116.292671,29.6786656 117.517326,29.576 119.072,29.576 L119.644,29.576 L119.644,29.18 C119.644,28.5639969 119.508335,28.1166681 119.237,27.838 C118.965665,27.5593319 118.51467,27.42 117.884,27.42 C117.25333,27.42 116.344006,27.6399978 115.156,28.08 C114.818665,28.2413341 114.532668,28.322 114.298,28.322 C113.975332,28.322 113.718668,28.2083345 113.528,27.981 C113.337332,27.7536655 113.242,27.4566685 113.242,27.09 C113.242,26.7966652 113.307999,26.5546676 113.44,26.364 C113.572001,26.1733324 113.784665,25.9973341 114.078,25.836 C114.591336,25.5573319 115.21833,25.3373341 115.959,25.176 C116.69967,25.0146659 117.42933,24.934 118.148,24.934 Z M117.488,33.888 C118.133337,33.888 118.653998,33.6716688 119.05,33.239 C119.446002,32.8063312 119.644,32.2453368 119.644,31.556 L119.644,31.182 L119.27,31.182 C118.081994,31.182 117.249669,31.2773324 116.773,31.468 C116.296331,31.6586676 116.058,32.0033308 116.058,32.502 C116.058,32.9126687 116.193665,33.246332 116.465,33.503 C116.736335,33.759668 117.077331,33.888 117.488,33.888 Z M132.035077,24.934 C132.959082,24.934 133.784073,25.172331 134.510077,25.649 C135.236081,26.1256691 135.800742,26.7929957 136.204077,27.651 C136.607412,28.5090043 136.809077,29.4953278 136.809077,30.61 C136.809077,31.7246722 136.607412,32.7036624 136.204077,33.547 C135.800742,34.3903375 135.239747,35.0393311 134.521077,35.494 C133.802407,35.9486689 132.973748,36.176 132.035077,36.176 C131.30174,36.176 130.63808,36.0256682 130.044077,35.725 C129.450074,35.4243318 128.991745,35.0026694 128.669077,34.46 L128.669077,38.618 C128.669077,39.0580022 128.522412,39.4099987 128.229077,39.674 C127.935742,39.9380013 127.547079,40.07 127.063077,40.07 C126.549741,40.07 126.135412,39.9306681 125.820077,39.652 C125.504742,39.3733319 125.347077,39.0066689 125.347077,38.552 L125.347077,26.54 C125.347077,26.0706643 125.497409,25.6930014 125.798077,25.407 C126.098745,25.1209986 126.498408,24.978 126.997077,24.978 C127.495746,24.978 127.891742,25.1209986 128.185077,25.407 C128.478412,25.6930014 128.625077,26.0706643 128.625077,26.54 L128.625077,26.716 C128.947745,26.1586639 129.409741,25.7223349 130.011077,25.407 C130.612413,25.0916651 131.287073,24.934 132.035077,24.934 Z M131.067077,33.646 C131.844414,33.646 132.445741,33.3856693 132.871077,32.865 C133.296412,32.3443307 133.509077,31.5926716 133.509077,30.61 C133.509077,29.6126617 133.296412,28.8390027 132.871077,28.289 C132.445741,27.7389973 131.844414,27.464 131.067077,27.464 C130.28974,27.464 129.688412,27.731664 129.263077,28.267 C128.837741,28.802336 128.625077,29.5686617 128.625077,30.566 C128.625077,31.5486716 128.837741,32.307664 129.263077,32.843 C129.688412,33.378336 130.28974,33.646 131.067077,33.646 Z M145.570154,24.934 C146.494158,24.934 147.31915,25.172331 148.045154,25.649 C148.771157,26.1256691 149.335819,26.7929957 149.739154,27.651 C150.142489,28.5090043 150.344154,29.4953278 150.344154,30.61 C150.344154,31.7246722 150.142489,32.7036624 149.739154,33.547 C149.335819,34.3903375 148.774824,35.0393311 148.056154,35.494 C147.337484,35.9486689 146.508825,36.176 145.570154,36.176 C144.836817,36.176 144.173157,36.0256682 143.579154,35.725 C142.985151,35.4243318 142.526822,35.0026694 142.204154,34.46 L142.204154,38.618 C142.204154,39.0580022 142.057489,39.4099987 141.764154,39.674 C141.470819,39.9380013 141.082156,40.07 140.598154,40.07 C140.084818,40.07 139.670489,39.9306681 139.355154,39.652 C139.039819,39.3733319 138.882154,39.0066689 138.882154,38.552 L138.882154,26.54 C138.882154,26.0706643 139.032486,25.6930014 139.333154,25.407 C139.633822,25.1209986 140.033485,24.978 140.532154,24.978 C141.030823,24.978 141.426819,25.1209986 141.720154,25.407 C142.013489,25.6930014 142.160154,26.0706643 142.160154,26.54 L142.160154,26.716 C142.482822,26.1586639 142.944818,25.7223349 143.546154,25.407 C144.14749,25.0916651 144.82215,24.934 145.570154,24.934 Z M144.602154,33.646 C145.379491,33.646 145.980818,33.3856693 146.406154,32.865 C146.831489,32.3443307 147.044154,31.5926716 147.044154,30.61 C147.044154,29.6126617 146.831489,28.8390027 146.406154,28.289 C145.980818,27.7389973 145.379491,27.464 144.602154,27.464 C143.824817,27.464 143.223489,27.731664 142.798154,28.267 C142.372818,28.802336 142.160154,29.5686617 142.160154,30.566 C142.160154,31.5486716 142.372818,32.307664 142.798154,32.843 C143.223489,33.378336 143.824817,33.646 144.602154,33.646 Z M161.085231,32.788 C161.378566,32.788 161.616897,32.9053322 161.800231,33.14 C161.983565,33.3746678 162.075231,33.6753315 162.075231,34.042 C162.075231,34.2913346 162.001898,34.5223323 161.855231,34.735 C161.708563,34.9476677 161.503232,35.1273326 161.239231,35.274 C160.740562,35.5380013 160.161234,35.7543325 159.501231,35.923 C158.841227,36.0916675 158.232567,36.176 157.675231,36.176 C156.501892,36.176 155.478902,35.9486689 154.606231,35.494 C153.73356,35.0393311 153.062566,34.3903375 152.593231,33.547 C152.123895,32.7036624 151.889231,31.7100057 151.889231,30.566 C151.889231,29.4659945 152.116562,28.4906709 152.571231,27.64 C153.0259,26.7893291 153.65656,26.1256691 154.463231,25.649 C155.269901,25.172331 156.186559,24.934 157.213231,24.934 C158.195902,24.934 159.05756,25.1503312 159.798231,25.583 C160.538901,26.0156688 161.114562,26.6316627 161.525231,27.431 C161.9359,28.2303373 162.141231,29.165328 162.141231,30.236 C162.141231,30.5586683 162.064232,30.8043325 161.910231,30.973 C161.75623,31.1416675 161.539899,31.226 161.261231,31.226 L155.101231,31.226 C155.203898,32.0913377 155.467895,32.7183314 155.893231,33.107 C156.318566,33.4956686 156.927227,33.69 157.719231,33.69 C158.144566,33.69 158.525896,33.6386672 158.863231,33.536 C159.200566,33.4333328 159.574562,33.2940009 159.985231,33.118 C160.190565,33.0299996 160.388563,32.9530003 160.579231,32.887 C160.769898,32.8209997 160.938563,32.788 161.085231,32.788 Z M157.301231,27.222 C156.670561,27.222 156.164566,27.4236646 155.783231,27.827 C155.401896,28.2303354 155.174564,28.8133295 155.101231,29.576 L159.347231,29.576 C159.303231,28.7986628 159.108899,28.212002 158.764231,27.816 C158.419562,27.419998 157.931901,27.222 157.301231,27.222 Z M170.968308,24.934 C172.258981,24.934 173.219638,25.3116629 173.850308,26.067 C174.480978,26.8223371 174.796308,27.962659 174.796308,29.488 L174.796308,34.57 C174.796308,35.0540024 174.645976,35.4353319 174.345308,35.714 C174.04464,35.9926681 173.637644,36.132 173.124308,36.132 C172.610972,36.132 172.207643,35.9926681 171.914308,35.714 C171.620973,35.4353319 171.474308,35.0540024 171.474308,34.57 L171.474308,29.642 C171.474308,28.908663 171.338642,28.373335 171.067308,28.036 C170.795973,27.698665 170.374311,27.53 169.802308,27.53 C169.112971,27.53 168.55931,27.7499978 168.141308,28.19 C167.723306,28.6300022 167.514308,29.216663 167.514308,29.95 L167.514308,34.57 C167.514308,35.0540024 167.367643,35.4353319 167.074308,35.714 C166.780973,35.9926681 166.377644,36.132 165.864308,36.132 C165.350972,36.132 164.943976,35.9926681 164.643308,35.714 C164.34264,35.4353319 164.192308,35.0540024 164.192308,34.57 L164.192308,26.496 C164.192308,26.0413311 164.349973,25.6746681 164.665308,25.396 C164.980643,25.1173319 165.387639,24.978 165.886308,24.978 C166.340977,24.978 166.711306,25.1136653 166.997308,25.385 C167.283309,25.6563347 167.426308,26.0046645 167.426308,26.43 L167.426308,26.738 C167.807643,26.1513304 168.302638,25.7040015 168.911308,25.396 C169.519977,25.0879985 170.205637,24.934 170.968308,24.934 Z M179.003385,36.132 C178.519382,36.132 178.11972,36.0000013 177.804385,35.736 C177.48905,35.4719987 177.331385,35.0833359 177.331385,34.57 L177.331385,26.54 C177.331385,26.0266641 177.492716,25.6380013 177.815385,25.374 C178.138053,25.1099987 178.534049,24.978 179.003385,24.978 C179.47272,24.978 179.86505,25.1099987 180.180385,25.374 C180.49572,25.6380013 180.653385,26.0266641 180.653385,26.54 L180.653385,34.57 C180.653385,35.0833359 180.49572,35.4719987 180.180385,35.736 C179.86505,36.0000013 179.47272,36.132 179.003385,36.132 Z M179.003385,23.218 C178.416715,23.218 177.95472,23.0676682 177.617385,22.767 C177.28005,22.4663318 177.111385,22.0593359 177.111385,21.546 C177.111385,21.0326641 177.28005,20.6293348 177.617385,20.336 C177.95472,20.0426652 178.416715,19.896 179.003385,19.896 C179.575388,19.896 180.033716,20.0463318 180.378385,20.347 C180.723053,20.6476682 180.895385,21.0473308 180.895385,21.546 C180.895385,22.0593359 180.72672,22.4663318 180.389385,22.767 C180.05205,23.0676682 179.590054,23.218 179.003385,23.218 Z M190.030462,24.934 C191.321135,24.934 192.281792,25.3116629 192.912462,26.067 C193.543131,26.8223371 193.858462,27.962659 193.858462,29.488 L193.858462,34.57 C193.858462,35.0540024 193.70813,35.4353319 193.407462,35.714 C193.106793,35.9926681 192.699797,36.132 192.186462,36.132 C191.673126,36.132 191.269796,35.9926681 190.976462,35.714 C190.683127,35.4353319 190.536462,35.0540024 190.536462,34.57 L190.536462,29.642 C190.536462,28.908663 190.400796,28.373335 190.129462,28.036 C189.858127,27.698665 189.436464,27.53 188.864462,27.53 C188.175125,27.53 187.621464,27.7499978 187.203462,28.19 C186.785459,28.6300022 186.576462,29.216663 186.576462,29.95 L186.576462,34.57 C186.576462,35.0540024 186.429796,35.4353319 186.136462,35.714 C185.843127,35.9926681 185.439797,36.132 184.926462,36.132 C184.413126,36.132 184.00613,35.9926681 183.705462,35.714 C183.404793,35.4353319 183.254462,35.0540024 183.254462,34.57 L183.254462,26.496 C183.254462,26.0413311 183.412127,25.6746681 183.727462,25.396 C184.042796,25.1173319 184.449792,24.978 184.948462,24.978 C185.403131,24.978 185.77346,25.1136653 186.059462,25.385 C186.345463,25.6563347 186.488462,26.0046645 186.488462,26.43 L186.488462,26.738 C186.869797,26.1513304 187.364792,25.7040015 187.973462,25.396 C188.582131,25.0879985 189.267791,24.934 190.030462,24.934 Z M205.765539,24.978 C206.264208,24.978 206.66387,25.1209986 206.964539,25.407 C207.265207,25.6930014 207.415539,26.0706643 207.415539,26.54 L207.415539,34.834 C207.415539,36.5793421 206.909544,37.8993289 205.897539,38.794 C204.885533,39.6886711 203.404215,40.136 201.453539,40.136 C199.810864,40.136 198.461544,39.8426696 197.405539,39.256 C197.141537,39.1093326 196.936206,38.9296677 196.789539,38.717 C196.642871,38.5043323 196.569539,38.2660013 196.569539,38.002 C196.569539,37.6353315 196.657538,37.3346678 196.833539,37.1 C197.009539,36.8653322 197.244204,36.748 197.537539,36.748 C197.698873,36.748 197.889537,36.7809997 198.109539,36.847 C198.32954,36.9130003 198.556871,36.9899996 198.791539,37.078 C199.260874,37.2540009 199.693537,37.3933328 200.089539,37.496 C200.48554,37.5986672 200.91087,37.65 201.365539,37.65 C202.30421,37.65 203.00087,37.4373355 203.455539,37.012 C203.910207,36.5866645 204.137539,35.9413377 204.137539,35.076 L204.137539,33.888 C203.829537,34.4453361 203.367542,34.8853317 202.751539,35.208 C202.135535,35.5306683 201.446209,35.692 200.683539,35.692 C199.744867,35.692 198.912542,35.4720022 198.186539,35.032 C197.460535,34.5919978 196.892207,33.9650041 196.481539,33.151 C196.07087,32.3369959 195.865539,31.394672 195.865539,30.324 C195.865539,29.253328 196.07087,28.3110041 196.481539,27.497 C196.892207,26.6829959 197.460535,26.0523356 198.186539,25.605 C198.912542,25.1576644 199.744867,24.934 200.683539,24.934 C201.431542,24.934 202.109869,25.0916651 202.718539,25.407 C203.327208,25.7223349 203.79287,26.1586639 204.115539,26.716 L204.115539,26.496 C204.115539,26.0266643 204.26587,25.6563347 204.566539,25.385 C204.867207,25.1136653 205.266869,24.978 205.765539,24.978 Z M201.651539,33.162 C202.428876,33.162 203.03387,32.9126692 203.466539,32.414 C203.899207,31.9153308 204.115539,31.2186711 204.115539,30.324 C204.115539,29.4293289 203.899207,28.7290025 203.466539,28.223 C203.03387,27.7169975 202.428876,27.464 201.651539,27.464 C200.874201,27.464 200.265541,27.7169975 199.825539,28.223 C199.385536,28.7290025 199.165539,29.4293289 199.165539,30.324 C199.165539,31.2186711 199.385536,31.9153308 199.825539,32.414 C200.265541,32.9126692 200.874201,33.162 201.651539,33.162 Z" id="What’shappening" fill="#FFFFFF" fill-rule="nonzero"></path>
                <path d="M25.1691153,80.43 L22.6941153,80.43 L22.0561153,83.708 L24.5311153,83.708 L25.1691153,80.43 Z M29.6241153,78.703 L29.4481153,79.693 C29.4041151,79.949668 29.3032828,80.1366661 29.1456153,80.254 C28.9879479,80.3713339 28.7404503,80.43 28.4031153,80.43 L27.1051153,80.43 L26.4781153,83.708 L28.2271153,83.708 C28.4691165,83.708 28.6451148,83.7813326 28.7551153,83.928 C28.8651159,84.0746674 28.8907823,84.3276649 28.8321153,84.687 L28.7221153,85.446 L26.2251153,85.446 L25.3451153,90 L24.2671153,90 C24.1571148,90 24.0526158,89.9743336 23.9536153,89.923 C23.8546148,89.8716664 23.7721156,89.8001671 23.7061153,89.7085 C23.640115,89.6168329 23.5942821,89.5105006 23.5686153,89.3895 C23.5429485,89.2684994 23.5447818,89.138334 23.5741153,88.999 L24.2781153,85.446 L21.8141153,85.446 L21.1101153,89.12 C21.0514483,89.4353349 20.921283,89.6608327 20.7196153,89.7965 C20.5179476,89.9321673 20.2887833,90 20.0321153,90 L18.9871153,90 L19.8671153,85.446 L18.4481153,85.446 C18.2061141,85.446 18.0301159,85.3708341 17.9201153,85.2205 C17.8101148,85.0701659 17.7807817,84.8190018 17.8321153,84.467 L17.9531153,83.708 L20.1201153,83.708 L20.7471153,80.43 L18.3051153,80.43 L18.4811153,79.44 C18.5251155,79.1833321 18.6259479,78.9963339 18.7836153,78.879 C18.9412828,78.7616661 19.1887803,78.703 19.5261153,78.703 L21.0001153,78.703 L21.7261153,74.985 C21.7774489,74.7283321 21.8966144,74.5266674 22.0836153,74.38 C22.2706162,74.2333326 22.4924474,74.16 22.7491153,74.16 L23.8161153,74.16 L22.9361153,78.703 L25.4111153,78.703 L26.2911153,74.16 L27.3361153,74.16 C27.5927833,74.16 27.7926146,74.2406659 27.9356153,74.402 C28.078616,74.5633341 28.1281155,74.7649988 28.0841153,75.007 L27.3581153,78.703 L29.6241153,78.703 Z M38.2531922,80.815 C38.1945253,80.9176672 38.1285259,80.9909998 38.0551922,81.035 C37.9818585,81.0790002 37.8901928,81.101 37.7801922,81.101 C37.6555249,81.101 37.5198596,81.0625004 37.3731922,80.9855 C37.2265248,80.9084996 37.0541932,80.8223338 36.8561922,80.727 C36.6581912,80.6316662 36.4253602,80.5455004 36.1576922,80.4685 C35.8900242,80.3914996 35.5765274,80.353 35.2171922,80.353 C34.9238574,80.353 34.6580268,80.387833 34.4196922,80.4575 C34.1813577,80.527167 33.9796931,80.626166 33.8146922,80.7545 C33.6496914,80.882834 33.5231927,81.0331658 33.4351922,81.2055 C33.3471918,81.3778342 33.3031922,81.562999 33.3031922,81.761 C33.3031922,82.0250013 33.3838581,82.2449991 33.5451922,82.421 C33.7065264,82.5970009 33.9191909,82.749166 34.1831922,82.8775 C34.4471936,83.005834 34.7478572,83.1213328 35.0851922,83.224 C35.4225273,83.3266672 35.7671905,83.4366661 36.1191922,83.554 C36.471194,83.6713339 36.8158572,83.8069992 37.1531922,83.961 C37.4905273,84.1150008 37.7911909,84.3038322 38.0551922,84.5275 C38.3191936,84.7511678 38.5318581,85.0224984 38.6931922,85.3415 C38.8545264,85.6605016 38.9351922,86.0473311 38.9351922,86.502 C38.9351922,87.0300026 38.8398599,87.5176644 38.6491922,87.965 C38.4585246,88.4123356 38.1798607,88.8009984 37.8131922,89.131 C37.4465237,89.4610017 36.9900283,89.7176658 36.4436922,89.901 C35.8973562,90.0843342 35.2721958,90.176 34.5681922,90.176 C34.1795236,90.176 33.8036941,90.141167 33.4406922,90.0715 C33.0776904,90.001833 32.7330272,89.9065006 32.4066922,89.7855 C32.0803573,89.6644994 31.776027,89.5196675 31.4936922,89.351 C31.2113575,89.1823325 30.9601933,88.999001 30.7401922,88.801 L31.2901922,87.899 C31.3561926,87.7889995 31.4386917,87.7028336 31.5376922,87.6405 C31.6366927,87.5781664 31.7595248,87.547 31.9061922,87.547 C32.060193,87.547 32.2123582,87.5964995 32.3626922,87.6955 C32.5130263,87.7945005 32.6890246,87.9026661 32.8906922,88.02 C33.0923599,88.1373339 33.3361908,88.2454995 33.6221922,88.3445 C33.9081937,88.4435005 34.2638568,88.493 34.6891922,88.493 C35.041194,88.493 35.3455243,88.4508338 35.6021922,88.3665 C35.8588602,88.2821662 36.0715247,88.1666674 36.2401922,88.02 C36.4088597,87.8733326 36.5335252,87.7065009 36.6141922,87.5195 C36.6948593,87.3324991 36.7351922,87.1326677 36.7351922,86.92 C36.7351922,86.6339986 36.6545264,86.3993343 36.4931922,86.216 C36.3318581,86.0326658 36.1173602,85.8750007 35.8496922,85.743 C35.5820242,85.6109993 35.2776939,85.4936672 34.9366922,85.391 C34.5956905,85.2883328 34.249194,85.1783339 33.8971922,85.061 C33.5451905,84.9436661 33.1986939,84.8080008 32.8576922,84.654 C32.5166905,84.4999992 32.2123602,84.3038345 31.9446922,84.0655 C31.6770242,83.8271655 31.4625264,83.5375017 31.3011922,83.1965 C31.1398581,82.8554983 31.0591922,82.4393358 31.0591922,81.948 C31.0591922,81.5006644 31.1490247,81.0753354 31.3286922,80.672 C31.5083598,80.2686647 31.7723572,79.9130015 32.1206922,79.605 C32.4690273,79.2969985 32.898023,79.0531676 33.4076922,78.8735 C33.9173615,78.6938324 34.5058556,78.604 35.1731922,78.604 C35.9285293,78.604 36.6141892,78.7249988 37.2301922,78.967 C37.8461953,79.2090012 38.3631901,79.5389979 38.7811922,79.957 L38.2531922,80.815 Z M50.6662692,78.78 L50.6662692,90 L49.2362692,90 C48.9209343,90 48.7192696,89.8496682 48.6312692,89.549 L48.4552692,88.504 C48.2206013,88.7533346 47.9731038,88.9806656 47.7127692,89.186 C47.4524345,89.3913344 47.175604,89.5673326 46.8822692,89.714 C46.5889344,89.8606674 46.2754375,89.9743329 45.9417692,90.055 C45.6081008,90.1356671 45.2506044,90.176 44.8692692,90.176 C44.2532661,90.176 43.7106048,90.0733344 43.2412692,89.868 C42.7719335,89.6626656 42.3777708,89.3730019 42.0587692,88.999 C41.7397676,88.6249981 41.4996033,88.175836 41.3382692,87.6515 C41.176935,87.127164 41.0962692,86.5496698 41.0962692,85.919 L41.0962692,78.78 L43.4612692,78.78 L43.4612692,85.919 C43.4612692,86.6743371 43.6354341,87.2609979 43.9837692,87.679 C44.3321042,88.0970021 44.8619323,88.306 45.5732692,88.306 C46.0939384,88.306 46.5797669,88.1868345 47.0307692,87.9485 C47.4817714,87.7101655 47.9052672,87.3820021 48.3012692,86.964 L48.3012692,78.78 L50.6662692,78.78 Z M55.9623461,87.184 C56.2923477,87.6093355 56.6535108,87.9081658 57.0458461,88.0805 C57.4381814,88.2528342 57.872677,88.339 58.3493461,88.339 C59.2733507,88.339 59.9938435,88.00167 60.5108461,87.327 C61.0278487,86.65233 61.2863461,85.6476733 61.2863461,84.313 C61.2863461,83.6236632 61.22768,83.0351691 61.1103461,82.5475 C60.9930122,82.0598309 60.8243472,81.6620015 60.6043461,81.354 C60.384345,81.0459985 60.116681,80.822334 59.8013461,80.683 C59.4860112,80.543666 59.1303481,80.474 58.7343461,80.474 C58.1330098,80.474 57.6141816,80.6041654 57.1778461,80.8645 C56.7415106,81.1248346 56.336348,81.4969976 55.9623461,81.981 L55.9623461,87.184 Z M55.8413461,80.408 C56.3106818,79.8579972 56.8441764,79.414335 57.4418461,79.077 C58.0395158,78.739665 58.7343421,78.571 59.5263461,78.571 C60.1570159,78.571 60.7290102,78.6974987 61.2423461,78.9505 C61.755682,79.2035013 62.1956776,79.5719976 62.5623461,80.056 C62.9290146,80.5400024 63.2131784,81.1394964 63.4148461,81.8545 C63.6165138,82.5695036 63.7173461,83.3889954 63.7173461,84.313 C63.7173461,85.1416708 63.6055139,85.9134964 63.3818461,86.6285 C63.1581783,87.3435036 62.8373482,87.963164 62.4193461,88.4875 C62.001344,89.011836 61.4953491,89.4224985 60.9013461,89.7195 C60.3073431,90.0165015 59.6363498,90.165 58.8883461,90.165 C58.2283428,90.165 57.6691817,90.0586677 57.2108461,89.846 C56.7525105,89.6333323 56.336348,89.3400019 55.9623461,88.966 L55.9623461,93.729 L53.5973461,93.729 L53.5973461,78.78 L55.0273461,78.78 C55.3500144,78.78 55.5553457,78.9303318 55.6433461,79.231 L55.8413461,80.408 Z M73.424423,83.125 C73.424423,82.728998 73.3675903,82.3605017 73.253923,82.0195 C73.1402558,81.6784983 72.9734241,81.3815013 72.753423,81.1285 C72.5334219,80.8754987 72.260258,80.6775007 71.933923,80.5345 C71.6075881,80.3914993 71.2317585,80.32 70.806423,80.32 C69.9484187,80.32 69.2737588,80.5656642 68.782423,81.057 C68.2910872,81.5483358 67.9794237,82.2376622 67.847423,83.125 L73.424423,83.125 Z M67.781423,84.577 C67.8107565,85.2150032 67.9097555,85.766831 68.078423,86.2325 C68.2470905,86.698169 68.4725883,87.0849985 68.754923,87.393 C69.0372578,87.7010015 69.3745877,87.9301659 69.766923,88.0805 C70.1592583,88.2308341 70.5974206,88.306 71.081423,88.306 C71.5434253,88.306 71.943088,88.2528339 72.280423,88.1465 C72.617758,88.0401661 72.9110884,87.922834 73.160423,87.7945 C73.4097576,87.666166 73.6224221,87.5488339 73.798423,87.4425 C73.9744239,87.3361661 74.1357556,87.283 74.282423,87.283 C74.4730906,87.283 74.6197558,87.3563326 74.722423,87.503 L75.393423,88.372 C75.114755,88.7020016 74.7994248,88.9806655 74.447423,89.208 C74.0954213,89.4353345 73.721425,89.6204993 73.325423,89.7635 C72.929421,89.9065007 72.5224251,90.0091664 72.104423,90.0715 C71.6864209,90.1338336 71.279425,90.165 70.883423,90.165 C70.1060858,90.165 69.385593,90.0348346 68.721923,89.7745 C68.058253,89.5141654 67.4825921,89.1310025 66.994923,88.625 C66.5072539,88.1189975 66.1259244,87.4920037 65.850923,86.744 C65.5759217,85.9959963 65.438423,85.1343382 65.438423,84.159 C65.438423,83.3816628 65.5612551,82.65567 65.806923,81.981 C66.0525909,81.30633 66.4045874,80.7196692 66.862923,80.221 C67.3212587,79.7223308 67.8785864,79.3281681 68.534923,79.0385 C69.1912596,78.7488319 69.9337522,78.604 70.762423,78.604 C71.4517598,78.604 72.0897534,78.7158322 72.676423,78.9395 C73.2630926,79.1631678 73.7690876,79.4913312 74.194423,79.924 C74.6197585,80.3566688 74.9515885,80.8864969 75.189923,81.5135 C75.4282576,82.1405031 75.547423,82.8536627 75.547423,83.653 C75.547423,84.0196685 75.5070901,84.2653327 75.426423,84.39 C75.345756,84.5146673 75.1990908,84.577 74.986423,84.577 L67.781423,84.577 Z M80.0295,80.859 C80.3815017,80.1476631 80.8068308,79.588502 81.3055,79.1815 C81.8041691,78.774498 82.4018298,78.571 83.0985,78.571 C83.3405012,78.571 83.5678322,78.5984997 83.7805,78.6535 C83.9931677,78.7085003 84.1838324,78.7909995 84.3525,78.901 L84.1875,80.683 C84.1581665,80.8076673 84.1123336,80.8938331 84.05,80.9415 C83.9876663,80.9891669 83.9051671,81.013 83.8025,81.013 C83.6924994,81.013 83.5348343,80.9928335 83.3295,80.9525 C83.1241656,80.9121665 82.9078344,80.892 82.6805,80.892 C82.3504983,80.892 82.0590012,80.9396662 81.806,81.035 C81.5529987,81.1303338 81.3256676,81.2696658 81.124,81.453 C80.9223323,81.6363343 80.7445007,81.8599987 80.5905,82.124 C80.4364992,82.3880013 80.2935006,82.688665 80.1615,83.026 L80.1615,90 L77.7965,90 L77.7965,78.78 L79.1715,78.78 C79.4208345,78.78 79.5931661,78.8258329 79.6885,78.9175 C79.7838338,79.0091671 79.8498331,79.1686655 79.8865,79.396 L80.0295,80.859 Z M91.1335769,82.234 C91.7055797,82.234 92.2097414,82.1606674 92.6460769,82.014 C93.0824124,81.8673326 93.4454088,81.660168 93.7350769,81.3925 C94.024745,81.124832 94.2429095,80.8003352 94.3895769,80.419 C94.5362443,80.0376648 94.6095769,79.6123357 94.6095769,79.143 C94.6095769,78.6809977 94.5380776,78.2666685 94.3950769,77.9 C94.2520762,77.5333315 94.0375783,77.221668 93.7515769,76.965 C93.4655755,76.708332 93.1044124,76.5121673 92.6680769,76.3765 C92.2317414,76.2408327 91.7202465,76.173 91.1335769,76.173 L88.7795769,76.173 L88.7795769,82.234 L91.1335769,82.234 Z M91.1335769,74.16 C92.1675821,74.16 93.0640731,74.2809988 93.8230769,74.523 C94.5820807,74.7650012 95.2090744,75.1041645 95.7040769,75.5405 C96.1990794,75.9768355 96.5675757,76.5011636 96.8095769,77.1135 C97.0515781,77.7258364 97.1725769,78.4023296 97.1725769,79.143 C97.1725769,79.8983371 97.0442448,80.5894969 96.7875769,81.2165 C96.5309089,81.8435031 96.1495794,82.3824977 95.6435769,82.8335 C95.1375744,83.2845023 94.5087473,83.6364987 93.7570769,83.8895 C93.0054065,84.1425013 92.1309152,84.269 91.1335769,84.269 L88.7795769,84.269 L88.7795769,90 L86.2055769,90 L86.2055769,74.16 L91.1335769,74.16 Z M101.291654,80.859 C101.643656,80.1476631 102.068985,79.588502 102.567654,79.1815 C103.066323,78.774498 103.663984,78.571 104.360654,78.571 C104.602655,78.571 104.829986,78.5984997 105.042654,78.6535 C105.255322,78.7085003 105.445986,78.7909995 105.614654,78.901 L105.449654,80.683 C105.42032,80.8076673 105.374487,80.8938331 105.312154,80.9415 C105.24982,80.9891669 105.167321,81.013 105.064654,81.013 C104.954653,81.013 104.796988,80.9928335 104.591654,80.9525 C104.386319,80.9121665 104.169988,80.892 103.942654,80.892 C103.612652,80.892 103.321155,80.9396662 103.068154,81.035 C102.815153,81.1303338 102.587821,81.2696658 102.386154,81.453 C102.184486,81.6363343 102.006655,81.8599987 101.852654,82.124 C101.698653,82.3880013 101.555654,82.688665 101.423654,83.026 L101.423654,90 L99.0586538,90 L99.0586538,78.78 L100.433654,78.78 C100.682988,78.78 100.85532,78.8258329 100.950654,78.9175 C101.045988,79.0091671 101.111987,79.1686655 101.148654,79.396 L101.291654,80.859 Z M111.691731,78.604 C112.520402,78.604 113.270227,78.7396653 113.941231,79.011 C114.612234,79.2823347 115.184228,79.6673308 115.657231,80.166 C116.130233,80.6646692 116.495063,81.2696631 116.751731,81.981 C117.008399,82.6923369 117.136731,83.4916622 117.136731,84.379 C117.136731,85.2663378 117.008399,86.0656631 116.751731,86.777 C116.495063,87.4883369 116.130233,88.0951642 115.657231,88.5975 C115.184228,89.0998358 114.612234,89.4866653 113.941231,89.758 C113.270227,90.0293347 112.520402,90.165 111.691731,90.165 C110.855727,90.165 110.102234,90.0293347 109.431231,89.758 C108.760227,89.4866653 108.1864,89.0998358 107.709731,88.5975 C107.233062,88.0951642 106.866399,87.4883369 106.609731,86.777 C106.353063,86.0656631 106.224731,85.2663378 106.224731,84.379 C106.224731,83.4916622 106.353063,82.6923369 106.609731,81.981 C106.866399,81.2696631 107.233062,80.6646692 107.709731,80.166 C108.1864,79.6673308 108.760227,79.2823347 109.431231,79.011 C110.102234,78.7396653 110.855727,78.604 111.691731,78.604 Z M111.691731,88.317 C112.703736,88.317 113.457228,87.9778367 113.952231,87.2995 C114.447233,86.6211633 114.694731,85.6513396 114.694731,84.39 C114.694731,83.1286604 114.447233,82.1551701 113.952231,81.4695 C113.457228,80.7838299 112.703736,80.441 111.691731,80.441 C110.665059,80.441 109.9024,80.7838299 109.403731,81.4695 C108.905062,82.1551701 108.655731,83.1286604 108.655731,84.39 C108.655731,85.6513396 108.905062,86.6211633 109.403731,87.2995 C109.9024,87.9778367 110.665059,88.317 111.691731,88.317 Z M121.816808,87.184 C122.146809,87.6093355 122.507972,87.9081658 122.900308,88.0805 C123.292643,88.2528342 123.719805,88.339 124.181808,88.339 C125.113146,88.339 125.839138,88.00167 126.359808,87.327 C126.880477,86.65233 127.140808,85.6073404 127.140808,84.192 C127.140808,82.9013269 126.91531,81.959003 126.464308,81.365 C126.013305,80.770997 125.369812,80.474 124.533808,80.474 C123.954471,80.474 123.45031,80.6041654 123.021308,80.8645 C122.592306,81.1248346 122.19081,81.4969976 121.816808,81.981 L121.816808,87.184 Z M121.816808,80.265 C122.27881,79.7589975 122.795805,79.3556682 123.367808,79.055 C123.939811,78.7543318 124.592471,78.604 125.325808,78.604 C125.978478,78.604 126.566972,78.7304987 127.091308,78.9835 C127.615644,79.2365013 128.061139,79.601331 128.427808,80.078 C128.794476,80.5546691 129.076807,81.1321633 129.274808,81.8105 C129.472809,82.4888367 129.571808,83.2533291 129.571808,84.104 C129.571808,85.0133379 129.459975,85.8401629 129.236308,86.5845 C129.01264,87.3288371 128.69181,87.9668307 128.273808,88.4985 C127.855806,89.0301693 127.349811,89.4408319 126.755808,89.7305 C126.161805,90.0201681 125.498145,90.165 124.764808,90.165 C124.405473,90.165 124.079142,90.130167 123.785808,90.0605 C123.492473,89.990833 123.221142,89.8900007 122.971808,89.758 C122.722473,89.6259993 122.493309,89.4683342 122.284308,89.285 C122.075307,89.1016657 121.875475,88.8926678 121.684808,88.658 L121.585808,89.527 C121.549141,89.6956675 121.483141,89.8166663 121.387808,89.89 C121.292474,89.9633337 121.160475,90 120.991808,90 L119.451808,90 L119.451808,73.72 L121.816808,73.72 L121.816808,80.265 Z M134.317885,73.72 L134.317885,90 L131.952885,90 L131.952885,73.72 L134.317885,73.72 Z M144.651962,83.125 C144.651962,82.728998 144.595129,82.3605017 144.481462,82.0195 C144.367794,81.6784983 144.200963,81.3815013 143.980962,81.1285 C143.76096,80.8754987 143.487797,80.6775007 143.161462,80.5345 C142.835127,80.3914993 142.459297,80.32 142.033962,80.32 C141.175957,80.32 140.501297,80.5656642 140.009962,81.057 C139.518626,81.5483358 139.206962,82.2376622 139.074962,83.125 L144.651962,83.125 Z M139.008962,84.577 C139.038295,85.2150032 139.137294,85.766831 139.305962,86.2325 C139.474629,86.698169 139.700127,87.0849985 139.982462,87.393 C140.264796,87.7010015 140.602126,87.9301659 140.994462,88.0805 C141.386797,88.2308341 141.824959,88.306 142.308962,88.306 C142.770964,88.306 143.170627,88.2528339 143.507962,88.1465 C143.845297,88.0401661 144.138627,87.922834 144.387962,87.7945 C144.637296,87.666166 144.849961,87.5488339 145.025962,87.4425 C145.201962,87.3361661 145.363294,87.283 145.509962,87.283 C145.700629,87.283 145.847294,87.3563326 145.949962,87.503 L146.620962,88.372 C146.342293,88.7020016 146.026963,88.9806655 145.674962,89.208 C145.32296,89.4353345 144.948964,89.6204993 144.552962,89.7635 C144.15696,89.9065007 143.749964,90.0091664 143.331962,90.0715 C142.913959,90.1338336 142.506964,90.165 142.110962,90.165 C141.333624,90.165 140.613132,90.0348346 139.949462,89.7745 C139.285792,89.5141654 138.710131,89.1310025 138.222462,88.625 C137.734792,88.1189975 137.353463,87.4920037 137.078462,86.744 C136.80346,85.9959963 136.665962,85.1343382 136.665962,84.159 C136.665962,83.3816628 136.788794,82.65567 137.034462,81.981 C137.280129,81.30633 137.632126,80.7196692 138.090462,80.221 C138.548797,79.7223308 139.106125,79.3281681 139.762462,79.0385 C140.418798,78.7488319 141.161291,78.604 141.989962,78.604 C142.679298,78.604 143.317292,78.7158322 143.903962,78.9395 C144.490631,79.1631678 144.996626,79.4913312 145.421962,79.924 C145.847297,80.3566688 146.179127,80.8864969 146.417462,81.5135 C146.655796,82.1405031 146.774962,82.8536627 146.774962,83.653 C146.774962,84.0196685 146.734629,84.2653327 146.653962,84.39 C146.573294,84.5146673 146.426629,84.577 146.213962,84.577 L139.008962,84.577 Z M149.024038,90 L149.024038,78.78 L150.454038,78.78 C150.776707,78.78 150.982038,78.9303318 151.070038,79.231 L151.224038,80.21 C151.429373,79.9753322 151.642037,79.7608343 151.862038,79.5665 C152.08204,79.3721657 152.318537,79.2035007 152.571538,79.0605 C152.82454,78.9174993 153.09587,78.8056671 153.385538,78.725 C153.675207,78.6443329 153.988703,78.604 154.326038,78.604 C154.685374,78.604 155.01537,78.6553328 155.316038,78.758 C155.616707,78.8606672 155.882537,79.0073324 156.113538,79.198 C156.34454,79.3886676 156.544371,79.6196653 156.713038,79.891 C156.881706,80.1623347 157.021038,80.466665 157.131038,80.804 C157.299706,80.4153314 157.512371,80.0816681 157.769038,79.803 C158.025706,79.5243319 158.311704,79.2970009 158.627038,79.121 C158.942373,78.9449991 159.27787,78.8148338 159.633538,78.7305 C159.989207,78.6461662 160.35037,78.604 160.717038,78.604 C161.318375,78.604 161.855536,78.6993324 162.328538,78.89 C162.801541,79.0806676 163.201203,79.3574982 163.527538,79.7205 C163.853873,80.0835018 164.101371,80.5289974 164.270038,81.057 C164.438706,81.5850026 164.523038,82.18633 164.523038,82.861 L164.523038,90 L162.158038,90 L162.158038,82.861 C162.158038,82.068996 161.98754,81.4731687 161.646538,81.0735 C161.305537,80.6738313 160.801375,80.474 160.134038,80.474 C159.83337,80.474 159.55104,80.5253328 159.287038,80.628 C159.023037,80.7306672 158.792039,80.880999 158.594038,81.079 C158.396037,81.277001 158.240206,81.5244985 158.126538,81.8215 C158.012871,82.1185015 157.956038,82.464998 157.956038,82.861 L157.956038,90 L155.591038,90 L155.591038,82.861 C155.591038,82.0396626 155.42604,81.4365019 155.096038,81.0515 C154.766037,80.6664981 154.282042,80.474 153.644038,80.474 C153.204036,80.474 152.79704,80.5858322 152.423038,80.8095 C152.049037,81.0331678 151.704373,81.3393314 151.389038,81.728 L151.389038,90 L149.024038,90 Z M173.339115,85.094 C172.495778,85.1233335 171.784452,85.1911661 171.205115,85.2975 C170.625779,85.4038339 170.156451,85.5394992 169.797115,85.7045 C169.43778,85.8695008 169.179283,86.0656655 169.021615,86.293 C168.863948,86.5203345 168.785115,86.7696653 168.785115,87.041 C168.785115,87.3050013 168.827282,87.5304991 168.911615,87.7175 C168.995949,87.9045009 169.113281,88.0584994 169.263615,88.1795 C169.413949,88.3005006 169.589948,88.3884997 169.791615,88.4435 C169.993283,88.4985003 170.215114,88.526 170.457115,88.526 C171.073118,88.526 171.602947,88.4105012 172.046615,88.1795 C172.490284,87.9484988 172.921113,87.6130022 173.339115,87.173 L173.339115,85.094 Z M167.069115,80.342 C168.337788,79.1613274 169.84844,78.571 171.601115,78.571 C172.246452,78.571 172.82028,78.675499 173.322615,78.8845 C173.824951,79.093501 174.246614,79.3886648 174.587615,79.77 C174.928617,80.1513352 175.188948,80.604164 175.368615,81.1285 C175.548283,81.652836 175.638115,82.2339968 175.638115,82.872 L175.638115,90 L174.582115,90 C174.354781,90 174.182449,89.965167 174.065115,89.8955 C173.947781,89.825833 173.848782,89.6846677 173.768115,89.472 L173.537115,88.559 C173.251114,88.815668 172.968783,89.0448323 172.690115,89.2465 C172.411447,89.4481677 172.123617,89.618666 171.826615,89.758 C171.529614,89.897334 171.210617,90.001833 170.869615,90.0715 C170.528614,90.141167 170.152784,90.176 169.742115,90.176 C169.287446,90.176 168.863951,90.1136673 168.471615,89.989 C168.07928,89.8643327 167.740117,89.6755013 167.454115,89.4225 C167.168114,89.1694987 166.942616,88.8560019 166.777615,88.482 C166.612615,88.1079981 166.530115,87.6680025 166.530115,87.162 C166.530115,86.7293312 166.645614,86.3076687 166.876615,85.897 C167.107617,85.4863313 167.488946,85.117835 168.020615,84.7915 C168.552285,84.465165 169.252611,84.1956677 170.121615,83.983 C170.99062,83.7703323 172.063109,83.6493335 173.339115,83.62 L173.339115,82.872 C173.339115,82.0653293 173.166784,81.464002 172.822115,81.068 C172.477447,80.671998 171.971452,80.474 171.304115,80.474 C170.849446,80.474 170.468117,80.5308328 170.160115,80.6445 C169.852114,80.7581672 169.58445,80.8809993 169.357115,81.013 C169.129781,81.1450007 168.928116,81.2678328 168.752115,81.3815 C168.576115,81.4951672 168.389116,81.552 168.191115,81.552 C168.029781,81.552 167.892283,81.5098338 167.778615,81.4255 C167.664948,81.3411662 167.571449,81.2366673 167.498115,81.112 L167.069115,80.342 Z M189.184192,90 L186.819192,90 L186.819192,80.639 L181.352192,80.639 L181.352192,87.008 C181.352192,87.4113354 181.451191,87.7193323 181.649192,87.932 C181.847193,88.1446677 182.111191,88.251 182.441192,88.251 C182.624527,88.251 182.782192,88.2271669 182.914192,88.1795 C183.046193,88.1318331 183.159859,88.0805003 183.255192,88.0255 C183.350526,87.9704997 183.433025,87.9191669 183.502692,87.8715 C183.572359,87.8238331 183.640192,87.8 183.706192,87.8 C183.838193,87.8 183.944525,87.8733326 184.025192,88.02 L184.729192,89.175 C184.362524,89.4976683 183.929861,89.7451658 183.431192,89.9175 C182.932523,90.0898342 182.419195,90.176 181.891192,90.176 C180.959854,90.176 180.243028,89.913836 179.740692,89.3895 C179.238356,88.865164 178.987192,88.1263381 178.987192,87.173 L178.987192,80.639 L177.755192,80.639 C177.623192,80.639 177.509526,80.5968338 177.414192,80.5125 C177.318859,80.4281662 177.271192,80.3016675 177.271192,80.133 L177.271192,79.176 L179.086192,78.912 L179.603192,75.667 C179.639859,75.5423327 179.702192,75.4415004 179.790192,75.3645 C179.878193,75.2874996 179.995525,75.249 180.142192,75.249 L181.352192,75.249 L181.352192,78.934 L189.184192,78.934 L189.184192,90 Z M189.668192,75.337 C189.668192,75.5496677 189.626026,75.7494991 189.541692,75.9365 C189.457359,76.1235009 189.34186,76.2884993 189.195192,76.4315 C189.048525,76.5745007 188.878027,76.6881662 188.683692,76.7725 C188.489358,76.8568338 188.28586,76.899 188.073192,76.899 C187.860525,76.899 187.660693,76.8568338 187.473692,76.7725 C187.286691,76.6881662 187.121693,76.5745007 186.978692,76.4315 C186.835692,76.2884993 186.722026,76.1235009 186.637692,75.9365 C186.553359,75.7494991 186.511192,75.5496677 186.511192,75.337 C186.511192,75.1169989 186.553359,74.9098343 186.637692,74.7155 C186.722026,74.5211657 186.835692,74.3525007 186.978692,74.2095 C187.121693,74.0664993 187.286691,73.9528338 187.473692,73.8685 C187.660693,73.7841662 187.860525,73.742 188.073192,73.742 C188.28586,73.742 188.489358,73.7841662 188.683692,73.8685 C188.878027,73.9528338 189.048525,74.0664993 189.195192,74.2095 C189.34186,74.3525007 189.457359,74.5211657 189.541692,74.7155 C189.626026,74.9098343 189.668192,75.1169989 189.668192,75.337 Z M200.145269,80.98 C200.071936,81.0753338 200.00227,81.1486664 199.936269,81.2 C199.870269,81.2513336 199.774937,81.277 199.650269,81.277 C199.525602,81.277 199.395437,81.2330004 199.259769,81.145 C199.124102,81.0569996 198.96277,80.9598339 198.775769,80.8535 C198.588768,80.7471661 198.363271,80.6500004 198.099269,80.562 C197.835268,80.4739996 197.505271,80.43 197.109269,80.43 C196.595933,80.43 196.146771,80.5216657 195.761769,80.705 C195.376767,80.8883342 195.054104,81.1504983 194.793769,81.4915 C194.533435,81.8325017 194.339103,82.2468309 194.210769,82.7345 C194.082435,83.2221691 194.018269,83.7703303 194.018269,84.379 C194.018269,85.0096698 194.087935,85.5706642 194.227269,86.062 C194.366603,86.5533358 194.566435,86.967665 194.826769,87.305 C195.087104,87.642335 195.402434,87.8989991 195.772769,88.075 C196.143104,88.2510009 196.559267,88.339 197.021269,88.339 C197.475938,88.339 197.846268,88.2840006 198.132269,88.174 C198.418271,88.0639994 198.656602,87.9430007 198.847269,87.811 C199.037937,87.6789993 199.201102,87.5580006 199.336769,87.448 C199.472437,87.3379994 199.617268,87.283 199.771269,87.283 C199.961937,87.283 200.108602,87.3563326 200.211269,87.503 L200.882269,88.372 C200.610935,88.7020016 200.310271,88.9806655 199.980269,89.208 C199.650268,89.4353345 199.301938,89.6204993 198.935269,89.7635 C198.568601,89.9065007 198.187271,90.0091664 197.791269,90.0715 C197.395267,90.1338336 196.995605,90.165 196.592269,90.165 C195.895599,90.165 195.244772,90.0348346 194.639769,89.7745 C194.034766,89.5141654 193.506772,89.1365025 193.055769,88.6415 C192.604767,88.1464975 192.249104,87.5415036 191.988769,86.8265 C191.728435,86.1114964 191.598269,85.2956712 191.598269,84.379 C191.598269,83.5503292 191.715601,82.7821702 191.950269,82.0745 C192.184937,81.3668298 192.527767,80.7563359 192.978769,80.243 C193.429772,79.7296641 193.988933,79.3281681 194.656269,79.0385 C195.323606,78.7488319 196.093598,78.604 196.966269,78.604 C197.780273,78.604 198.497099,78.7359987 199.116769,79 C199.736439,79.2640013 200.288267,79.6379976 200.772269,80.122 L200.145269,80.98 Z M216.287346,74.16 L216.287346,90 L213.713346,90 L213.713346,82.949 L205.760346,82.949 L205.760346,90 L203.175346,90 L203.175346,74.16 L205.760346,74.16 L205.760346,81.09 L213.713346,81.09 L213.713346,74.16 L216.287346,74.16 Z M225.356423,85.094 C224.513086,85.1233335 223.801759,85.1911661 223.222423,85.2975 C222.643087,85.4038339 222.173758,85.5394992 221.814423,85.7045 C221.455088,85.8695008 221.196591,86.0656655 221.038923,86.293 C220.881256,86.5203345 220.802423,86.7696653 220.802423,87.041 C220.802423,87.3050013 220.844589,87.5304991 220.928923,87.7175 C221.013257,87.9045009 221.130589,88.0584994 221.280923,88.1795 C221.431257,88.3005006 221.607255,88.3884997 221.808923,88.4435 C222.010591,88.4985003 222.232422,88.526 222.474423,88.526 C223.090426,88.526 223.620254,88.4105012 224.063923,88.1795 C224.507592,87.9484988 224.938421,87.6130022 225.356423,87.173 L225.356423,85.094 Z M219.086423,80.342 C220.355096,79.1613274 221.865748,78.571 223.618423,78.571 C224.26376,78.571 224.837587,78.675499 225.339923,78.8845 C225.842259,79.093501 226.263921,79.3886648 226.604923,79.77 C226.945925,80.1513352 227.206256,80.604164 227.385923,81.1285 C227.565591,81.652836 227.655423,82.2339968 227.655423,82.872 L227.655423,90 L226.599423,90 C226.372089,90 226.199757,89.965167 226.082423,89.8955 C225.965089,89.825833 225.86609,89.6846677 225.785423,89.472 L225.554423,88.559 C225.268422,88.815668 224.986091,89.0448323 224.707423,89.2465 C224.428755,89.4481677 224.140925,89.618666 223.843923,89.758 C223.546922,89.897334 223.227925,90.001833 222.886923,90.0715 C222.545921,90.141167 222.170092,90.176 221.759423,90.176 C221.304754,90.176 220.881258,90.1136673 220.488923,89.989 C220.096588,89.8643327 219.757425,89.6755013 219.471423,89.4225 C219.185422,89.1694987 218.959924,88.8560019 218.794923,88.482 C218.629922,88.1079981 218.547423,87.6680025 218.547423,87.162 C218.547423,86.7293312 218.662922,86.3076687 218.893923,85.897 C219.124924,85.4863313 219.506254,85.117835 220.037923,84.7915 C220.569592,84.465165 221.269919,84.1956677 222.138923,83.983 C223.007927,83.7703323 224.080417,83.6493335 225.356423,83.62 L225.356423,82.872 C225.356423,82.0653293 225.184092,81.464002 224.839423,81.068 C224.494755,80.671998 223.98876,80.474 223.321423,80.474 C222.866754,80.474 222.485425,80.5308328 222.177423,80.6445 C221.869422,80.7581672 221.601758,80.8809993 221.374423,81.013 C221.147089,81.1450007 220.945424,81.2678328 220.769423,81.3815 C220.593422,81.4951672 220.406424,81.552 220.208423,81.552 C220.047089,81.552 219.90959,81.5098338 219.795923,81.4255 C219.682256,81.3411662 219.588757,81.2366673 219.515423,81.112 L219.086423,80.342 Z M237.1645,80.815 C237.105833,80.9176672 237.039834,80.9909998 236.9665,81.035 C236.893166,81.0790002 236.801501,81.101 236.6915,81.101 C236.566833,81.101 236.431167,81.0625004 236.2845,80.9855 C236.137833,80.9084996 235.965501,80.8223338 235.7675,80.727 C235.569499,80.6316662 235.336668,80.5455004 235.069,80.4685 C234.801332,80.3914996 234.487835,80.353 234.1285,80.353 C233.835165,80.353 233.569335,80.387833 233.331,80.4575 C233.092666,80.527167 232.891001,80.626166 232.726,80.7545 C232.560999,80.882834 232.4345,81.0331658 232.3465,81.2055 C232.2585,81.3778342 232.2145,81.562999 232.2145,81.761 C232.2145,82.0250013 232.295166,82.2449991 232.4565,82.421 C232.617834,82.5970009 232.830499,82.749166 233.0945,82.8775 C233.358501,83.005834 233.659165,83.1213328 233.9965,83.224 C234.333835,83.3266672 234.678498,83.4366661 235.0305,83.554 C235.382502,83.6713339 235.727165,83.8069992 236.0645,83.961 C236.401835,84.1150008 236.702499,84.3038322 236.9665,84.5275 C237.230501,84.7511678 237.443166,85.0224984 237.6045,85.3415 C237.765834,85.6605016 237.8465,86.0473311 237.8465,86.502 C237.8465,87.0300026 237.751168,87.5176644 237.5605,87.965 C237.369832,88.4123356 237.091169,88.8009984 236.7245,89.131 C236.357832,89.4610017 235.901336,89.7176658 235.355,89.901 C234.808664,90.0843342 234.183504,90.176 233.4795,90.176 C233.090831,90.176 232.715002,90.141167 232.352,90.0715 C231.988998,90.001833 231.644335,89.9065006 231.318,89.7855 C230.991665,89.6644994 230.687335,89.5196675 230.405,89.351 C230.122665,89.1823325 229.871501,88.999001 229.6515,88.801 L230.2015,87.899 C230.2675,87.7889995 230.35,87.7028336 230.449,87.6405 C230.548001,87.5781664 230.670833,87.547 230.8175,87.547 C230.971501,87.547 231.123666,87.5964995 231.274,87.6955 C231.424334,87.7945005 231.600332,87.9026661 231.802,88.02 C232.003668,88.1373339 232.247499,88.2454995 232.5335,88.3445 C232.819501,88.4435005 233.175165,88.493 233.6005,88.493 C233.952502,88.493 234.256832,88.4508338 234.5135,88.3665 C234.770168,88.2821662 234.982833,88.1666674 235.1515,88.02 C235.320168,87.8733326 235.444833,87.7065009 235.5255,87.5195 C235.606167,87.3324991 235.6465,87.1326677 235.6465,86.92 C235.6465,86.6339986 235.565834,86.3993343 235.4045,86.216 C235.243166,86.0326658 235.028668,85.8750007 234.761,85.743 C234.493332,85.6109993 234.189002,85.4936672 233.848,85.391 C233.506998,85.2883328 233.160502,85.1783339 232.8085,85.061 C232.456498,84.9436661 232.110002,84.8080008 231.769,84.654 C231.427998,84.4999992 231.123668,84.3038345 230.856,84.0655 C230.588332,83.8271655 230.373834,83.5375017 230.2125,83.1965 C230.051166,82.8554983 229.9705,82.4393358 229.9705,81.948 C229.9705,81.5006644 230.060332,81.0753354 230.24,80.672 C230.419668,80.2686647 230.683665,79.9130015 231.032,79.605 C231.380335,79.2969985 231.809331,79.0531676 232.319,78.8735 C232.828669,78.6938324 233.417163,78.604 234.0845,78.604 C234.839837,78.604 235.525497,78.7249988 236.1415,78.967 C236.757503,79.2090012 237.274498,79.5389979 237.6925,79.957 L237.1645,80.815 Z M242.482577,80.111 C242.944579,79.6563311 243.450574,79.2915014 244.000577,79.0165 C244.55058,78.7414986 245.19224,78.604 245.925577,78.604 C246.54158,78.604 247.082408,78.7066656 247.548077,78.912 C248.013746,79.1173344 248.406075,79.4069981 248.725077,79.781 C249.044079,80.1550019 249.284243,80.604164 249.445577,81.1285 C249.606911,81.652836 249.687577,82.2303302 249.687577,82.861 L249.687577,90 L247.333577,90 L247.333577,82.861 C247.333577,82.1056629 247.159412,81.5190021 246.811077,81.101 C246.462742,80.6829979 245.932914,80.474 245.221577,80.474 C244.693574,80.474 244.204079,80.5949988 243.753077,80.837 C243.302075,81.0790012 242.878579,81.4089979 242.482577,81.827 L242.482577,90 L240.117577,90 L240.117577,73.72 L242.482577,73.72 L242.482577,80.111 Z M255.951654,90.176 C255.020316,90.176 254.30349,89.913836 253.801154,89.3895 C253.298818,88.865164 253.047654,88.1263381 253.047654,87.173 L253.047654,80.639 L251.815654,80.639 C251.683653,80.639 251.569988,80.5968338 251.474654,80.5125 C251.37932,80.4281662 251.331654,80.3016675 251.331654,80.133 L251.331654,79.176 L253.146654,78.912 L253.663654,75.667 C253.700321,75.5423327 253.762653,75.4415004 253.850654,75.3645 C253.938654,75.2874996 254.055987,75.249 254.202654,75.249 L255.412654,75.249 L255.412654,78.934 L258.525654,78.934 L258.525654,80.639 L255.412654,80.639 L255.412654,87.008 C255.412654,87.4113354 255.511653,87.7193323 255.709654,87.932 C255.907655,88.1446677 256.171652,88.251 256.501654,88.251 C256.684988,88.251 256.842653,88.2271669 256.974654,88.1795 C257.106655,88.1318331 257.22032,88.0805003 257.315654,88.0255 C257.410988,87.9704997 257.493487,87.9191669 257.563154,87.8715 C257.632821,87.8238331 257.700654,87.8 257.766654,87.8 C257.898655,87.8 258.004987,87.8733326 258.085654,88.02 L258.789654,89.175 C258.422985,89.4976683 257.990323,89.7451658 257.491654,89.9175 C256.992985,90.0898342 256.479657,90.176 255.951654,90.176 Z M266.439731,85.094 C265.596393,85.1233335 264.885067,85.1911661 264.305731,85.2975 C263.726395,85.4038339 263.257066,85.5394992 262.897731,85.7045 C262.538396,85.8695008 262.279898,86.0656655 262.122231,86.293 C261.964563,86.5203345 261.885731,86.7696653 261.885731,87.041 C261.885731,87.3050013 261.927897,87.5304991 262.012231,87.7175 C262.096565,87.9045009 262.213897,88.0584994 262.364231,88.1795 C262.514565,88.3005006 262.690563,88.3884997 262.892231,88.4435 C263.093899,88.4985003 263.31573,88.526 263.557731,88.526 C264.173734,88.526 264.703562,88.4105012 265.147231,88.1795 C265.5909,87.9484988 266.021729,87.6130022 266.439731,87.173 L266.439731,85.094 Z M260.169731,80.342 C261.438404,79.1613274 262.949055,78.571 264.701731,78.571 C265.347067,78.571 265.920895,78.675499 266.423231,78.8845 C266.925567,79.093501 267.347229,79.3886648 267.688231,79.77 C268.029233,80.1513352 268.289563,80.604164 268.469231,81.1285 C268.648898,81.652836 268.738731,82.2339968 268.738731,82.872 L268.738731,90 L267.682731,90 C267.455396,90 267.283065,89.965167 267.165731,89.8955 C267.048397,89.825833 266.949398,89.6846677 266.868731,89.472 L266.637731,88.559 C266.351729,88.815668 266.069399,89.0448323 265.790731,89.2465 C265.512063,89.4481677 265.224232,89.618666 264.927231,89.758 C264.630229,89.897334 264.311233,90.001833 263.970231,90.0715 C263.629229,90.141167 263.2534,90.176 262.842731,90.176 C262.388062,90.176 261.964566,90.1136673 261.572231,89.989 C261.179896,89.8643327 260.840732,89.6755013 260.554731,89.4225 C260.268729,89.1694987 260.043232,88.8560019 259.878231,88.482 C259.71323,88.1079981 259.630731,87.6680025 259.630731,87.162 C259.630731,86.7293312 259.74623,86.3076687 259.977231,85.897 C260.208232,85.4863313 260.589562,85.117835 261.121231,84.7915 C261.6529,84.465165 262.353226,84.1956677 263.222231,83.983 C264.091235,83.7703323 265.163724,83.6493335 266.439731,83.62 L266.439731,82.872 C266.439731,82.0653293 266.267399,81.464002 265.922731,81.068 C265.578062,80.671998 265.072068,80.474 264.404731,80.474 C263.950062,80.474 263.568732,80.5308328 263.260731,80.6445 C262.952729,80.7581672 262.685065,80.8809993 262.457731,81.013 C262.230396,81.1450007 262.028732,81.2678328 261.852731,81.3815 C261.67673,81.4951672 261.489732,81.552 261.291731,81.552 C261.130397,81.552 260.992898,81.5098338 260.879231,81.4255 C260.765564,81.3411662 260.672065,81.2366673 260.598731,81.112 L260.169731,80.342 Z M275.552808,84.291 C276.286145,84.291 276.836139,84.1040019 277.202808,83.73 C277.569476,83.3559981 277.752808,82.8683363 277.752808,82.267 C277.752808,81.6509969 277.569476,81.1633351 277.202808,80.804 C276.836139,80.4446649 276.286145,80.265 275.552808,80.265 C274.826804,80.265 274.278643,80.4446649 273.908308,80.804 C273.537973,81.1633351 273.352808,81.6509969 273.352808,82.267 C273.352808,82.5603348 273.400474,82.8316654 273.495808,83.081 C273.591142,83.3303346 273.730474,83.5448324 273.913808,83.7245 C274.097142,83.9041676 274.326306,84.0434995 274.601308,84.1425 C274.876309,84.2415005 275.193473,84.291 275.552808,84.291 Z M278.841808,90.55 C278.841808,90.3006654 278.770308,90.1008341 278.627308,89.9505 C278.484307,89.8001659 278.291809,89.6828338 278.049808,89.5985 C277.807807,89.5141662 277.525476,89.4518335 277.202808,89.4115 C276.880139,89.3711665 276.53731,89.3418334 276.174308,89.3235 C275.811306,89.3051666 275.440976,89.2868334 275.063308,89.2685 C274.685639,89.2501666 274.32081,89.2153336 273.968808,89.164 C273.616806,89.3473343 273.328976,89.5673321 273.105308,89.824 C272.88164,90.0806679 272.769808,90.377665 272.769808,90.715 C272.769808,90.9350011 272.826641,91.1403324 272.940308,91.331 C273.053975,91.5216676 273.229973,91.686666 273.468308,91.826 C273.706642,91.965334 274.010973,92.0753329 274.381308,92.156 C274.751643,92.2366671 275.197138,92.277 275.717808,92.277 C276.759146,92.277 277.540138,92.1156683 278.060808,91.793 C278.581477,91.4703317 278.841808,91.0560025 278.841808,90.55 Z M281.217808,79.187 L281.217808,80.067 C281.217808,80.3603348 281.04181,80.5399997 280.689808,80.606 L279.567808,80.793 C279.758475,81.2183355 279.853808,81.6913307 279.853808,82.212 C279.853808,82.7620027 279.745642,83.2606644 279.529308,83.708 C279.312973,84.1553356 279.014143,84.5366651 278.632808,84.852 C278.251473,85.1673349 277.79681,85.4093325 277.268808,85.578 C276.740805,85.7466675 276.168811,85.831 275.552808,85.831 C275.31814,85.831 275.088976,85.8181668 274.865308,85.7925 C274.64164,85.7668332 274.423475,85.7320002 274.210808,85.688 C273.99814,85.8126673 273.840475,85.944666 273.737808,86.084 C273.635141,86.223334 273.583808,86.3663326 273.583808,86.513 C273.583808,86.7550012 273.69014,86.9346661 273.902808,87.052 C274.115475,87.1693339 274.395973,87.2536664 274.744308,87.305 C275.092643,87.3563336 275.490472,87.3893333 275.937808,87.404 C276.385143,87.4186667 276.839805,87.4443332 277.301808,87.481 C277.76381,87.5176668 278.218472,87.5781662 278.665808,87.6625 C279.113143,87.7468338 279.510973,87.8861657 279.859308,88.0805 C280.207643,88.2748343 280.48814,88.5369984 280.700808,88.867 C280.913475,89.1970017 281.019808,89.6259974 281.019808,90.154 C281.019808,90.6380024 280.898809,91.1109977 280.656808,91.573 C280.414807,92.0350023 280.064643,92.4456649 279.606308,92.805 C279.147972,93.1643351 278.588811,93.4521656 277.928808,93.6685 C277.268804,93.8848344 276.517145,93.993 275.673808,93.993 C274.837804,93.993 274.109978,93.9123341 273.490308,93.751 C272.870638,93.5896659 272.353643,93.3715014 271.939308,93.0965 C271.524972,92.8214986 271.216975,92.5043351 271.015308,92.145 C270.81364,91.7856649 270.712808,91.4116686 270.712808,91.023 C270.712808,90.4949974 270.879639,90.0440019 271.213308,89.67 C271.546976,89.2959981 271.999805,89.0026677 272.571808,88.79 C272.263806,88.6433326 272.016309,88.4416679 271.829308,88.185 C271.642307,87.928332 271.548808,87.5910021 271.548808,87.173 C271.548808,86.8429984 271.669807,86.4983351 271.911808,86.139 C272.153809,85.7796649 272.516805,85.4753346 273.000808,85.226 C272.443472,84.9179985 272.003476,84.5091692 271.680808,83.9995 C271.358139,83.4898308 271.196808,82.8940034 271.196808,82.212 C271.196808,81.6546639 271.304973,81.1523356 271.521308,80.705 C271.737642,80.2576644 272.040139,79.8763349 272.428808,79.561 C272.817476,79.2456651 273.277638,79.0036675 273.809308,78.835 C274.340977,78.6663325 274.922138,78.582 275.552808,78.582 C276.520813,78.582 277.364138,78.7836647 278.082808,79.187 L281.217808,79.187 Z" id="#superProblematcHashtag" fill="#FFFFFF" fill-rule="nonzero"></path>
                <path d="M19.639,112 L18.1115,112 L18.1115,102.64 L19.639,102.64 L19.639,112 Z M22.5865,102.016 C22.781501,102.345335 22.9136663,102.688748 22.983,103.04625 C23.0523337,103.403752 23.0588336,103.756915 23.0025,104.10575 C22.9461664,104.454585 22.8280842,104.789332 22.64825,105.11 C22.4684158,105.430668 22.2290015,105.716665 21.93,105.968 L21.4945,105.7015 C21.420833,105.653833 21.38725,105.592084 21.39375,105.51625 C21.40025,105.440416 21.4251664,105.380834 21.4685,105.3375 C21.5681672,105.216166 21.6591663,105.062334 21.7415,104.876 C21.8238337,104.689666 21.8790832,104.484918 21.90725,104.26175 C21.9354168,104.038582 21.9289169,103.803501 21.88775,103.5565 C21.8465831,103.309499 21.7523341,103.064668 21.605,102.822 C21.5356663,102.709333 21.5161665,102.611834 21.5465,102.5295 C21.5768335,102.447166 21.6396662,102.388667 21.735,102.354 L22.5865,102.016 Z M24.481,112 L24.481,105.37 L25.326,105.37 C25.5166676,105.37 25.6379997,105.458832 25.69,105.6365 L25.781,106.215 C25.9023339,106.076333 26.0279993,105.949584 26.158,105.83475 C26.2880006,105.719916 26.4277492,105.62025 26.57725,105.53575 C26.7267507,105.45125 26.8870825,105.385167 27.05825,105.3375 C27.2294175,105.289833 27.4146657,105.266 27.614,105.266 C27.8263344,105.266 28.0213324,105.296333 28.199,105.357 C28.3766675,105.417667 28.5337493,105.504333 28.67025,105.617 C28.8067507,105.729667 28.9248328,105.866166 29.0245,106.0265 C29.1241672,106.186834 29.2064997,106.366666 29.2715,106.566 C29.3711672,106.336332 29.4968326,106.139167 29.6485,105.9745 C29.8001674,105.809833 29.9691657,105.675501 30.1555,105.5715 C30.3418343,105.467499 30.5400823,105.390584 30.75025,105.34075 C30.9604177,105.290916 31.1738322,105.266 31.3905,105.266 C31.7458351,105.266 32.0632486,105.322333 32.34275,105.435 C32.6222514,105.547667 32.8584157,105.711249 33.05125,105.92575 C33.2440843,106.140251 33.3903328,106.403498 33.49,106.7155 C33.5896672,107.027502 33.6395,107.382831 33.6395,107.7815 L33.6395,112 L32.242,112 L32.242,107.7815 C32.242,107.313498 32.141251,106.961418 31.93975,106.72525 C31.738249,106.489082 31.4403353,106.371 31.046,106.371 C30.8683324,106.371 30.7015008,106.401333 30.5455,106.462 C30.3894992,106.522667 30.2530006,106.611499 30.136,106.7285 C30.0189994,106.845501 29.926917,106.991749 29.85975,107.16725 C29.792583,107.342751 29.759,107.547499 29.759,107.7815 L29.759,112 L28.3615,112 L28.3615,107.7815 C28.3615,107.296164 28.264001,106.939751 28.069,106.71225 C27.873999,106.484749 27.5880019,106.371 27.211,106.371 C26.9509987,106.371 26.7105011,106.437083 26.4895,106.56925 C26.2684989,106.701417 26.0648343,106.882332 25.8785,107.112 L25.8785,112 L24.481,112 Z M39.97,106.1565 C40.2430013,105.887832 40.5419984,105.672251 40.867,105.50975 C41.1920016,105.347249 41.5711645,105.266 42.0045,105.266 C42.3685018,105.266 42.6880819,105.326666 42.96325,105.448 C43.238418,105.569334 43.470249,105.740499 43.65875,105.9615 C43.8472509,106.182501 43.9891662,106.447915 44.0845,106.75775 C44.1798338,107.067585 44.2275,107.408831 44.2275,107.7815 L44.2275,112 L42.8365,112 L42.8365,107.7815 C42.8365,107.335164 42.7335843,106.988501 42.52775,106.7415 C42.3219156,106.494499 42.0088354,106.371 41.5885,106.371 C41.2764984,106.371 40.9872513,106.442499 40.72075,106.5855 C40.4542486,106.728501 40.2040012,106.923499 39.97,107.1705 L39.97,112 L38.5725,112 L38.5725,102.38 L39.97,102.38 L39.97,106.1565 Z M50.243,107.9375 C50.243,107.703499 50.209417,107.485751 50.14225,107.28425 C50.075083,107.082749 49.9765006,106.907251 49.8465,106.75775 C49.7164993,106.608249 49.5550843,106.49125 49.36225,106.40675 C49.1694157,106.32225 48.9473346,106.28 48.696,106.28 C48.1889974,106.28 47.7903348,106.425165 47.5,106.7155 C47.2096652,107.005835 47.0255004,107.413164 46.9475,107.9375 L50.243,107.9375 Z M46.9085,108.7955 C46.9258334,109.172502 46.9843328,109.498582 47.084,109.77375 C47.1836671,110.048918 47.3169158,110.277499 47.48375,110.4595 C47.6505841,110.641501 47.8499155,110.776916 48.08175,110.86575 C48.3135845,110.954584 48.5724985,110.999 48.8585,110.999 C49.1315013,110.999 49.3676656,110.967584 49.567,110.90475 C49.7663343,110.841916 49.9396659,110.772584 50.087,110.69675 C50.234334,110.620916 50.3599995,110.551584 50.464,110.48875 C50.5680005,110.425916 50.6633329,110.3945 50.75,110.3945 C50.8626672,110.3945 50.949333,110.437833 51.01,110.5245 L51.4065,111.038 C51.2418325,111.233001 51.055501,111.397666 50.8475,111.532 C50.6394989,111.666334 50.4185011,111.77575 50.1845,111.86025 C49.9504988,111.94475 49.7100012,112.005416 49.463,112.04225 C49.2159987,112.079084 48.9755011,112.0975 48.7415,112.0975 C48.2821643,112.0975 47.8564186,112.020584 47.46425,111.86675 C47.0720813,111.712916 46.7319181,111.486501 46.44375,111.1875 C46.1555819,110.888499 45.9302508,110.518002 45.76775,110.076 C45.6052492,109.633998 45.524,109.124836 45.524,108.5485 C45.524,108.089164 45.5965826,107.660169 45.74175,107.2615 C45.8869174,106.862831 46.0949153,106.516168 46.36575,106.2215 C46.6365847,105.926832 46.9659147,105.693918 47.35375,105.52275 C47.7415852,105.351582 48.1803309,105.266 48.67,105.266 C49.0773353,105.266 49.4543316,105.332083 49.801,105.46425 C50.1476684,105.596417 50.4466654,105.790332 50.698,106.046 C50.9493346,106.301668 51.1454159,106.614748 51.28625,106.98525 C51.427084,107.355752 51.4975,107.777164 51.4975,108.2495 C51.4975,108.466168 51.4736669,108.611333 51.426,108.685 C51.3783331,108.758667 51.2916673,108.7955 51.166,108.7955 L46.9085,108.7955 Z M54.146,106.5985 C54.354001,106.178165 54.6053318,105.847751 54.9,105.60725 C55.1946681,105.366749 55.5478312,105.2465 55.9595,105.2465 C56.1025007,105.2465 56.2368327,105.26275 56.3625,105.29525 C56.4881673,105.32775 56.6008328,105.3765 56.7005,105.4415 L56.603,106.4945 C56.5856666,106.568167 56.5585835,106.619083 56.52175,106.64725 C56.4849165,106.675417 56.4361669,106.6895 56.3755,106.6895 C56.3104996,106.6895 56.2173339,106.677583 56.096,106.65375 C55.974666,106.629917 55.846834,106.618 55.7125,106.618 C55.517499,106.618 55.3452507,106.646166 55.19575,106.7025 C55.0462492,106.758834 54.9119172,106.841166 54.79275,106.9495 C54.6735827,107.057834 54.5685004,107.189999 54.4775,107.346 C54.3864995,107.502001 54.3020004,107.679666 54.224,107.879 L54.224,112 L52.8265,112 L52.8265,105.37 L53.639,105.37 C53.786334,105.37 53.8881664,105.397083 53.9445,105.45125 C54.0008336,105.505417 54.0398332,105.599666 54.0615,105.734 L54.146,106.5985 Z M61.7735,107.9375 C61.7735,107.703499 61.739917,107.485751 61.67275,107.28425 C61.605583,107.082749 61.5070006,106.907251 61.377,106.75775 C61.2469993,106.608249 61.0855843,106.49125 60.89275,106.40675 C60.6999157,106.32225 60.4778346,106.28 60.2265,106.28 C59.7194974,106.28 59.3208348,106.425165 59.0305,106.7155 C58.7401652,107.005835 58.5560004,107.413164 58.478,107.9375 L61.7735,107.9375 Z M58.439,108.7955 C58.4563334,109.172502 58.5148328,109.498582 58.6145,109.77375 C58.7141671,110.048918 58.8474158,110.277499 59.01425,110.4595 C59.1810841,110.641501 59.3804155,110.776916 59.61225,110.86575 C59.8440845,110.954584 60.1029985,110.999 60.389,110.999 C60.6620013,110.999 60.8981656,110.967584 61.0975,110.90475 C61.2968343,110.841916 61.4701659,110.772584 61.6175,110.69675 C61.764834,110.620916 61.8904994,110.551584 61.9945,110.48875 C62.0985005,110.425916 62.1938329,110.3945 62.2805,110.3945 C62.3931672,110.3945 62.479833,110.437833 62.5405,110.5245 L62.937,111.038 C62.7723325,111.233001 62.586001,111.397666 62.378,111.532 C62.1699989,111.666334 61.9490011,111.77575 61.715,111.86025 C61.4809988,111.94475 61.2405012,112.005416 60.9935,112.04225 C60.7464987,112.079084 60.5060011,112.0975 60.272,112.0975 C59.8126643,112.0975 59.3869186,112.020584 58.99475,111.86675 C58.6025813,111.712916 58.2624181,111.486501 57.97425,111.1875 C57.6860819,110.888499 57.4607508,110.518002 57.29825,110.076 C57.1357492,109.633998 57.0545,109.124836 57.0545,108.5485 C57.0545,108.089164 57.1270826,107.660169 57.27225,107.2615 C57.4174174,106.862831 57.6254153,106.516168 57.89625,106.2215 C58.1670847,105.926832 58.4964147,105.693918 58.88425,105.52275 C59.2720852,105.351582 59.7108309,105.266 60.2005,105.266 C60.6078353,105.266 60.9848316,105.332083 61.3315,105.46425 C61.6781684,105.596417 61.9771654,105.790332 62.2285,106.046 C62.4798346,106.301668 62.6759159,106.614748 62.81675,106.98525 C62.957584,107.355752 63.028,107.777164 63.028,108.2495 C63.028,108.466168 63.0041669,108.611333 62.9565,108.685 C62.9088331,108.758667 62.8221673,108.7955 62.6965,108.7955 L58.439,108.7955 Z M69.7485,112.104 C69.1981639,112.104 68.7745848,111.949085 68.47775,111.63925 C68.1809151,111.329415 68.0325,110.892836 68.0325,110.3295 L68.0325,106.4685 L67.3045,106.4685 C67.2264996,106.4685 67.1593336,106.443584 67.103,106.39375 C67.0466663,106.343916 67.0185,106.269167 67.0185,106.1695 L67.0185,105.604 L68.091,105.448 L68.3965,103.5305 C68.4181667,103.456833 68.4549997,103.39725 68.507,103.35175 C68.5590002,103.30625 68.6283329,103.2835 68.715,103.2835 L69.43,103.2835 L69.43,105.461 L71.2695,105.461 L71.2695,106.4685 L69.43,106.4685 L69.43,110.232 C69.43,110.470335 69.4884994,110.652333 69.6055,110.778 C69.7225005,110.903667 69.878499,110.9665 70.0735,110.9665 C70.1818338,110.9665 70.2749996,110.952417 70.353,110.92425 C70.4310003,110.896083 70.4981663,110.86575 70.5545,110.83325 C70.6108336,110.80075 70.6595831,110.770417 70.70075,110.74225 C70.7419168,110.714083 70.7819998,110.7 70.821,110.7 C70.8990003,110.7 70.9618331,110.743333 71.0095,110.83 L71.4255,111.5125 C71.2088322,111.703168 70.9531681,111.849416 70.6585,111.95125 C70.3638318,112.053084 70.0605015,112.104 69.7485,112.104 Z M75.2245,105.266 C75.7141691,105.266 76.157248,105.346166 76.55375,105.5065 C76.9502519,105.666834 77.2882486,105.894332 77.56775,106.189 C77.8472514,106.483668 78.0628325,106.841165 78.2145,107.2615 C78.3661674,107.681835 78.442,108.154164 78.442,108.6785 C78.442,109.202836 78.3661674,109.675165 78.2145,110.0955 C78.0628325,110.515835 77.8472514,110.874415 77.56775,111.17125 C77.2882486,111.468085 76.9502519,111.696666 76.55375,111.857 C76.157248,112.017334 75.7141691,112.0975 75.2245,112.0975 C74.7304975,112.0975 74.2852519,112.017334 73.88875,111.857 C73.492248,111.696666 73.153168,111.468085 72.8715,111.17125 C72.5898319,110.874415 72.3731674,110.515835 72.2215,110.0955 C72.0698325,109.675165 71.994,109.202836 71.994,108.6785 C71.994,108.154164 72.0698325,107.681835 72.2215,107.2615 C72.3731674,106.841165 72.5898319,106.483668 72.8715,106.189 C73.153168,105.894332 73.492248,105.666834 73.88875,105.5065 C74.2852519,105.346166 74.7304975,105.266 75.2245,105.266 Z M75.2245,111.0055 C75.8225029,111.0055 76.2677485,110.805085 76.56025,110.40425 C76.8527514,110.003415 76.999,109.430337 76.999,108.685 C76.999,107.939663 76.8527514,107.364419 76.56025,106.95925 C76.2677485,106.554081 75.8225029,106.3515 75.2245,106.3515 C74.6178303,106.3515 74.1671681,106.554081 73.8725,106.95925 C73.5778318,107.364419 73.4305,107.939663 73.4305,108.685 C73.4305,109.430337 73.5778318,110.003415 73.8725,110.40425 C74.1671681,110.805085 74.6178303,111.0055 75.2245,111.0055 Z M84.3954999,106.5985 C84.603501,106.178165 84.8548318,105.847751 85.1494999,105.60725 C85.4441681,105.366749 85.7973312,105.2465 86.2089999,105.2465 C86.3520007,105.2465 86.4863327,105.26275 86.6119999,105.29525 C86.7376672,105.32775 86.8503328,105.3765 86.9499999,105.4415 L86.8524999,106.4945 C86.8351665,106.568167 86.8080835,106.619083 86.7712499,106.64725 C86.7344164,106.675417 86.6856669,106.6895 86.6249999,106.6895 C86.5599996,106.6895 86.4668339,106.677583 86.3454999,106.65375 C86.224166,106.629917 86.096334,106.618 85.9619999,106.618 C85.766999,106.618 85.5947507,106.646166 85.4452499,106.7025 C85.2957492,106.758834 85.1614172,106.841166 85.0422499,106.9495 C84.9230827,107.057834 84.8180004,107.189999 84.7269999,107.346 C84.6359995,107.502001 84.5515003,107.679666 84.4734999,107.879 L84.4734999,112 L83.0759999,112 L83.0759999,105.37 L83.8884999,105.37 C84.035834,105.37 84.1376663,105.397083 84.1939999,105.45125 C84.2503336,105.505417 84.2893332,105.599666 84.3109999,105.734 L84.3954999,106.5985 Z M93.4919999,105.37 L93.4919999,112 L92.6469999,112 C92.4606657,112 92.3415002,111.911168 92.2894999,111.7335 L92.1854999,111.116 C92.0468326,111.263334 91.900584,111.397666 91.7467499,111.519 C91.5929158,111.640334 91.4293341,111.744333 91.2559999,111.831 C91.0826657,111.917667 90.8974176,111.984833 90.7002499,112.0325 C90.5030823,112.080167 90.2918344,112.104 90.0664999,112.104 C89.7024981,112.104 89.3818347,112.043334 89.1044999,111.922 C88.8271652,111.800666 88.5942509,111.629501 88.4057499,111.4085 C88.217249,111.187499 88.0753338,110.922085 87.9799999,110.61225 C87.8846661,110.302415 87.8369999,109.961169 87.8369999,109.5885 L87.8369999,105.37 L89.2344999,105.37 L89.2344999,109.5885 C89.2344999,110.034836 89.3374156,110.381499 89.5432499,110.6285 C89.7490843,110.875501 90.0621645,110.999 90.4824999,110.999 C90.7901681,110.999 91.0772486,110.928584 91.3437499,110.78775 C91.6102513,110.646916 91.8604988,110.453001 92.0944999,110.206 L92.0944999,105.37 L93.4919999,105.37 Z M96.6799999,105.37 L96.6799999,112 L95.2824999,112 L95.2824999,105.37 L96.6799999,105.37 Z M96.9139999,103.368 C96.9139999,103.493667 96.8890835,103.612833 96.8392499,103.7255 C96.7894164,103.838167 96.721167,103.93675 96.6344999,104.02125 C96.5478328,104.10575 96.4470838,104.172916 96.3322499,104.22275 C96.217416,104.272584 96.0950006,104.2975 95.9649999,104.2975 C95.8393326,104.2975 95.7212505,104.272584 95.6107499,104.22275 C95.5002494,104.172916 95.4038337,104.10575 95.3214999,104.02125 C95.2391662,103.93675 95.1730835,103.838167 95.1232499,103.7255 C95.0734164,103.612833 95.0484999,103.493667 95.0484999,103.368 C95.0484999,103.237999 95.0734164,103.116667 95.1232499,103.004 C95.1730835,102.891333 95.2391662,102.79275 95.3214999,102.70825 C95.4038337,102.62375 95.5002494,102.556584 95.6107499,102.50675 C95.7212505,102.456916 95.8393326,102.432 95.9649999,102.432 C96.0950006,102.432 96.217416,102.456916 96.3322499,102.50675 C96.4470838,102.556584 96.5478328,102.62375 96.6344999,102.70825 C96.721167,102.79275 96.7894164,102.891333 96.8392499,103.004 C96.8890835,103.116667 96.9139999,103.237999 96.9139999,103.368 Z M99.7769999,106.2475 C99.9200006,106.100166 100.068416,105.966917 100.22225,105.84775 C100.376084,105.728583 100.539666,105.625667 100.713,105.539 C100.886334,105.452333 101.070499,105.385167 101.2655,105.3375 C101.460501,105.289833 101.672832,105.266 101.9025,105.266 C102.266502,105.266 102.586082,105.326666 102.86125,105.448 C103.136418,105.569334 103.368249,105.740499 103.55675,105.9615 C103.745251,106.182501 103.887166,106.447915 103.9825,106.75775 C104.077834,107.067585 104.1255,107.408831 104.1255,107.7815 L104.1255,112 L102.7345,112 L102.7345,107.7815 C102.7345,107.335164 102.631584,106.988501 102.42575,106.7415 C102.219916,106.494499 101.906835,106.371 101.4865,106.371 C101.174498,106.371 100.885251,106.442499 100.61875,106.5855 C100.352249,106.728501 100.102001,106.923499 99.8679999,107.1705 L99.8679999,112 L98.4704999,112 L98.4704999,105.37 L99.3154999,105.37 C99.5061676,105.37 99.6274997,105.458832 99.6794999,105.6365 L99.7769999,106.2475 Z M114.616,105.37 L110.963,113.885 C110.915333,113.984667 110.857917,114.062666 110.79075,114.119 C110.723583,114.175334 110.620667,114.2035 110.482,114.2035 L109.4485,114.2035 L110.6705,111.5515 L107.9665,105.37 L109.182,105.37 C109.299001,105.37 109.388916,105.397083 109.45175,105.45125 C109.514584,105.505417 109.561166,105.569333 109.5915,105.643 L111.171,109.4065 C111.21,109.514834 111.24575,109.622083 111.27825,109.72825 C111.31075,109.834417 111.342166,109.943833 111.3725,110.0565 C111.407167,109.943833 111.441833,109.833334 111.4765,109.725 C111.511167,109.616666 111.550166,109.508334 111.5935,109.4 L113.108,105.643 C113.138333,105.565 113.18925,105.5 113.26075,105.448 C113.33225,105.396 113.411333,105.37 113.498,105.37 L114.616,105.37 Z M118.22,105.266 C118.709669,105.266 119.152748,105.346166 119.54925,105.5065 C119.945752,105.666834 120.283749,105.894332 120.56325,106.189 C120.842751,106.483668 121.058332,106.841165 121.21,107.2615 C121.361667,107.681835 121.4375,108.154164 121.4375,108.6785 C121.4375,109.202836 121.361667,109.675165 121.21,110.0955 C121.058332,110.515835 120.842751,110.874415 120.56325,111.17125 C120.283749,111.468085 119.945752,111.696666 119.54925,111.857 C119.152748,112.017334 118.709669,112.0975 118.22,112.0975 C117.725997,112.0975 117.280752,112.017334 116.88425,111.857 C116.487748,111.696666 116.148668,111.468085 115.867,111.17125 C115.585332,110.874415 115.368667,110.515835 115.217,110.0955 C115.065332,109.675165 114.9895,109.202836 114.9895,108.6785 C114.9895,108.154164 115.065332,107.681835 115.217,107.2615 C115.368667,106.841165 115.585332,106.483668 115.867,106.189 C116.148668,105.894332 116.487748,105.666834 116.88425,105.5065 C117.280752,105.346166 117.725997,105.266 118.22,105.266 Z M118.22,111.0055 C118.818003,111.0055 119.263248,110.805085 119.55575,110.40425 C119.848251,110.003415 119.9945,109.430337 119.9945,108.685 C119.9945,107.939663 119.848251,107.364419 119.55575,106.95925 C119.263248,106.554081 118.818003,106.3515 118.22,106.3515 C117.61333,106.3515 117.162668,106.554081 116.868,106.95925 C116.573332,107.364419 116.426,107.939663 116.426,108.685 C116.426,109.430337 116.573332,110.003415 116.868,110.40425 C117.162668,110.805085 117.61333,111.0055 118.22,111.0055 Z M128.3955,105.37 L128.3955,112 L127.5505,112 C127.364166,112 127.245,111.911168 127.193,111.7335 L127.089,111.116 C126.950333,111.263334 126.804084,111.397666 126.65025,111.519 C126.496416,111.640334 126.332834,111.744333 126.1595,111.831 C125.986166,111.917667 125.800918,111.984833 125.60375,112.0325 C125.406582,112.080167 125.195334,112.104 124.97,112.104 C124.605998,112.104 124.285335,112.043334 124.008,111.922 C123.730665,111.800666 123.497751,111.629501 123.30925,111.4085 C123.120749,111.187499 122.978834,110.922085 122.8835,110.61225 C122.788166,110.302415 122.7405,109.961169 122.7405,109.5885 L122.7405,105.37 L124.138,105.37 L124.138,109.5885 C124.138,110.034836 124.240916,110.381499 124.44675,110.6285 C124.652584,110.875501 124.965664,110.999 125.386,110.999 C125.693668,110.999 125.980749,110.928584 126.24725,110.78775 C126.513751,110.646916 126.763999,110.453001 126.998,110.206 L126.998,105.37 L128.3955,105.37 Z M131.447,106.5985 C131.655001,106.178165 131.906332,105.847751 132.201,105.60725 C132.495668,105.366749 132.848831,105.2465 133.2605,105.2465 C133.403501,105.2465 133.537833,105.26275 133.6635,105.29525 C133.789167,105.32775 133.901833,105.3765 134.0015,105.4415 L133.904,106.4945 C133.886666,106.568167 133.859583,106.619083 133.82275,106.64725 C133.785916,106.675417 133.737167,106.6895 133.6765,106.6895 C133.6115,106.6895 133.518334,106.677583 133.397,106.65375 C133.275666,106.629917 133.147834,106.618 133.0135,106.618 C132.818499,106.618 132.646251,106.646166 132.49675,106.7025 C132.347249,106.758834 132.212917,106.841166 132.09375,106.9495 C131.974583,107.057834 131.8695,107.189999 131.7785,107.346 C131.687499,107.502001 131.603,107.679666 131.525,107.879 L131.525,112 L130.1275,112 L130.1275,105.37 L130.94,105.37 C131.087334,105.37 131.189166,105.397083 131.2455,105.45125 C131.301834,105.505417 131.340833,105.599666 131.3625,105.734 L131.447,106.5985 Z M142.178,107.0015 C141.982999,106.750165 141.768501,106.574667 141.5345,106.475 C141.300499,106.375333 141.047001,106.3255 140.774,106.3255 C140.227997,106.3255 139.801168,106.525915 139.4935,106.92675 C139.185832,107.327585 139.032,107.920163 139.032,108.7045 C139.032,109.111835 139.066666,109.459582 139.136,109.74775 C139.205334,110.035918 139.304999,110.270999 139.435,110.453 C139.565001,110.635001 139.723166,110.767166 139.9095,110.8495 C140.095834,110.931834 140.305999,110.973 140.54,110.973 C140.895335,110.973 141.201915,110.896084 141.45975,110.74225 C141.717585,110.588416 141.956999,110.370668 142.178,110.089 L142.178,107.0015 Z M143.5755,102.38 L143.5755,112 L142.7305,112 C142.544166,112 142.425,111.911168 142.373,111.7335 L142.2495,111.012 C141.972165,111.337002 141.656918,111.599166 141.30375,111.7985 C140.950581,111.997834 140.540002,112.0975 140.072,112.0975 C139.699331,112.0975 139.361335,112.022751 139.058,111.87325 C138.754665,111.723749 138.494668,111.506001 138.278,111.22 C138.061332,110.933999 137.893417,110.579752 137.77425,110.15725 C137.655083,109.734748 137.5955,109.250503 137.5955,108.7045 C137.5955,108.210498 137.661583,107.753335 137.79375,107.333 C137.925917,106.912665 138.115499,106.547585 138.3625,106.23775 C138.609501,105.927915 138.909581,105.685251 139.26275,105.50975 C139.615918,105.334249 140.011331,105.2465 140.449,105.2465 C140.839002,105.2465 141.170499,105.308249 141.4435,105.43175 C141.716501,105.555251 141.961332,105.727499 142.178,105.9485 L142.178,102.38 L143.5755,102.38 Z M148.85,109.101 C148.351664,109.118333 147.931335,109.158416 147.589,109.22125 C147.246665,109.284084 146.969334,109.36425 146.757,109.46175 C146.544666,109.55925 146.391917,109.675166 146.29875,109.8095 C146.205583,109.943834 146.159,110.091166 146.159,110.2515 C146.159,110.407501 146.183916,110.540749 146.23375,110.65125 C146.283583,110.761751 146.352916,110.85275 146.44175,110.92425 C146.530584,110.99575 146.634583,111.04775 146.75375,111.08025 C146.872917,111.11275 147.003999,111.129 147.147,111.129 C147.511002,111.129 147.824082,111.060751 148.08625,110.92425 C148.348418,110.787749 148.602999,110.589501 148.85,110.3295 L148.85,109.101 Z M145.145,106.293 C145.89467,105.59533 146.787328,105.2465 147.823,105.2465 C148.204335,105.2465 148.543415,105.308249 148.84025,105.43175 C149.137085,105.555251 149.386249,105.729666 149.58775,105.955 C149.789251,106.180334 149.943083,106.447915 150.04925,106.75775 C150.155417,107.067585 150.2085,107.410998 150.2085,107.788 L150.2085,112 L149.5845,112 C149.450166,112 149.348334,111.979417 149.279,111.93825 C149.209666,111.897083 149.151167,111.813667 149.1035,111.688 L148.967,111.1485 C148.797999,111.300167 148.631167,111.435583 148.4665,111.55475 C148.301832,111.673917 148.131751,111.774666 147.95625,111.857 C147.780749,111.939334 147.592251,112.001083 147.39075,112.04225 C147.189249,112.083417 146.967168,112.104 146.7245,112.104 C146.455832,112.104 146.205584,112.067167 145.97375,111.9935 C145.741915,111.919833 145.541501,111.808251 145.3725,111.65875 C145.203499,111.509249 145.07025,111.324001 144.97275,111.103 C144.875249,110.881999 144.8265,110.622001 144.8265,110.323 C144.8265,110.067332 144.894749,109.818168 145.03125,109.5755 C145.167751,109.332832 145.393082,109.115084 145.70725,108.92225 C146.021418,108.729416 146.435247,108.570167 146.94875,108.4445 C147.462252,108.318833 148.095996,108.247333 148.85,108.23 L148.85,107.788 C148.85,107.311331 148.748168,106.956001 148.5445,106.722 C148.340832,106.487999 148.041835,106.371 147.6475,106.371 C147.378832,106.371 147.153501,106.404583 146.9715,106.47175 C146.789499,106.538917 146.631334,106.6115 146.497,106.6895 C146.362666,106.7675 146.2435,106.840083 146.1395,106.90725 C146.035499,106.974417 145.925,107.008 145.808,107.008 C145.712666,107.008 145.631417,106.983084 145.56425,106.93325 C145.497083,106.883416 145.441833,106.821667 145.3985,106.748 L145.145,106.293 Z M157.576,105.37 L153.923,113.885 C153.875333,113.984667 153.817917,114.062666 153.75075,114.119 C153.683583,114.175334 153.580667,114.2035 153.442,114.2035 L152.4085,114.2035 L153.6305,111.5515 L150.9265,105.37 L152.142,105.37 C152.259,105.37 152.348916,105.397083 152.41175,105.45125 C152.474584,105.505417 152.521166,105.569333 152.5515,105.643 L154.131,109.4065 C154.17,109.514834 154.20575,109.622083 154.23825,109.72825 C154.27075,109.834417 154.302166,109.943833 154.3325,110.0565 C154.367167,109.943833 154.401833,109.833334 154.4365,109.725 C154.471167,109.616666 154.510166,109.508334 154.5535,109.4 L156.068,105.643 C156.098333,105.565 156.14925,105.5 156.22075,105.448 C156.29225,105.396 156.371333,105.37 156.458,105.37 L157.576,105.37 Z" id="I’mheretoruinyourday" fill="#FFFFFF" fill-rule="nonzero"></path>
                <rect id="Rectangle" fill="#D8D8D8" opacity="0.262625558" x="0" y="54" width="364" height="1"></rect>
            </g>
        </g>
    </g>
</svg>